<svg width="10" height="10" viewBox="0 0 10 10" fill="none" xmlns="http://www.w3.org/2000/svg">
<path d="M0.402613 9.64393C0.207021 9.44727 0.207629 9.12902 0.403972 8.93311L8.93622 0.419571C9.13256 0.223658 9.45029 0.224268 9.64588 0.420932C9.84147 0.617596 9.84086 0.935842 9.64452 1.13175L1.11227 9.64529C0.915932 9.84121 0.598205 9.8406 0.402613 9.64393Z" fill="white"/>
<path d="M9.56346 9.61316C9.36711 9.80908 9.04939 9.80847 8.8538 9.6118L0.354166 1.06559C0.158573 0.868929 0.159182 0.550683 0.355525 0.35477C0.551867 0.158858 0.869594 0.159467 1.06519 0.356132L9.56482 8.90234C9.76041 9.09901 9.7598 9.41725 9.56346 9.61316Z" fill="white"/>
</svg>
