<svg width="30" height="30" viewBox="0 0 30 30" fill="none" xmlns="http://www.w3.org/2000/svg">
<path d="M14.5405 19.7306C13.6827 19.7306 12.9883 20.4319 12.9883 21.2735C12.9883 22.095 13.6623 22.8164 14.5405 22.8164C15.4187 22.8164 16.1131 22.0951 16.1131 21.2735C16.1131 20.4319 15.3983 19.7306 14.5405 19.7306Z" fill="white"/>
<path d="M14.8058 8.04822C12.0485 8.04822 10.7822 9.65124 10.7822 10.7333C10.7822 11.5148 11.4562 11.8755 12.0077 11.8755C13.1105 11.8755 12.6612 10.3326 14.7445 10.3326C15.7657 10.3326 16.5827 10.7734 16.5827 11.6952C16.5827 12.7773 15.4389 13.3985 14.7649 13.9595C14.1727 14.4605 13.3965 15.2821 13.3965 17.0054C13.3965 18.0473 13.6824 18.3479 14.5198 18.3479C15.5206 18.3479 15.7248 17.9071 15.7248 17.5264C15.7248 16.4844 15.7453 15.8832 16.8686 15.0216C17.42 14.6008 19.1561 13.2382 19.1561 11.3546C19.1561 9.47096 17.42 8.04822 14.8058 8.04822Z" fill="white"/>
<path d="M15 0C6.70992 0 0 6.58204 0 14.7166V28.2834C0 28.9184 0.524648 29.4331 1.17188 29.4331H15C23.29 29.4331 30 22.8511 30 14.7166C30 6.58313 23.2912 0 15 0ZM15 27.1336H2.34375V14.7166C2.34375 7.85398 8.00432 2.29946 15 2.29946C21.9947 2.29946 27.6562 7.85306 27.6562 14.7166C27.6562 21.5791 21.9957 27.1336 15 27.1336Z" fill="white"/>
</svg>
