<svg width="31" height="30" viewBox="0 0 31 30" fill="none" xmlns="http://www.w3.org/2000/svg">
<path d="M2.6612 16.0734L0.330721 18.4015C-0.119864 18.8516 -0.10865 19.5706 0.355906 20.0073C0.583576 20.2214 0.877762 20.3278 1.17177 20.3278C1.47764 20.3278 1.78328 20.2124 2.013 19.9829L4.34347 17.6549C4.79406 17.2047 4.78285 16.4858 4.31829 16.0491C3.85373 15.6123 3.11184 15.6232 2.6612 16.0734Z" fill="white"/>
<path d="M8.08597 16.8076C7.43881 16.8076 6.91406 17.3161 6.91406 17.9432V27.9368C6.91406 28.5639 7.43875 29.0724 8.08597 29.0724H8.08603C8.73319 29.0724 9.25793 28.564 9.25793 27.9368L9.25782 17.9432C9.25782 17.3161 8.73319 16.8076 8.08597 16.8076Z" fill="white"/>
<path d="M12.6562 14.3091C12.0091 14.3091 11.4844 14.8175 11.4844 15.4447V27.9366C11.4844 28.5638 12.0091 29.0723 12.6562 29.0723C13.3034 29.0723 13.8281 28.5638 13.8281 27.9366V15.4447C13.8281 14.8175 13.3034 14.3091 12.6562 14.3091Z" fill="white"/>
<path d="M26.5429 0H23.0272C22.38 0 21.8554 0.508452 21.8554 1.13564C21.8554 1.76283 22.38 2.27128 23.0272 2.27128H26.1159L17.511 10.6083C17.2802 10.8321 16.9781 10.9593 16.6793 10.9593C16.673 10.9593 16.6666 10.9593 16.6604 10.9592C16.3726 10.9539 16.0786 10.8261 15.8538 10.6082L14.4761 9.27309C13.8016 8.61944 12.9062 8.24054 12.0193 8.23348C12.0106 8.23343 12.002 8.23343 11.9935 8.23343C11.0755 8.23343 10.1589 8.62229 9.47379 9.30296L6.96249 11.7476C6.50586 12.1921 6.5075 12.9111 6.96619 13.3536C7.1948 13.5742 7.49386 13.6844 7.79292 13.6844C8.09368 13.6844 8.39444 13.5729 8.6234 13.35L11.1393 10.901C11.1427 10.8977 11.1461 10.8943 11.1495 10.891C11.3942 10.6467 11.7131 10.5019 12.0001 10.5046C12.2731 10.5068 12.5792 10.6468 12.8189 10.8791L14.1967 12.2142C14.8557 12.853 15.7152 13.2137 16.6168 13.23C17.5543 13.2471 18.485 12.8767 19.1684 12.2143L27.7147 3.93392V6.75706C27.7147 7.38424 28.2394 7.89269 28.8866 7.89269C29.5338 7.89269 30.0585 7.38424 30.0585 6.75706V3.40692C30.0585 1.52837 28.4814 0 26.5429 0Z" fill="white"/>
<path d="M3.46106 21.918C2.81231 21.9158 2.28516 22.4249 2.28516 23.0536V27.9368C2.28516 28.5639 2.80985 29.0724 3.45706 29.0724H3.45712C4.10434 29.0724 4.62903 28.564 4.62903 27.9368V23.0536C4.62897 22.4279 4.1068 21.9201 3.46106 21.918Z" fill="white"/>
<path d="M26.4843 9.70996C25.8372 9.70996 25.3125 10.2184 25.3125 10.8456V27.937C25.3125 28.5641 25.8372 29.0726 26.4843 29.0726H26.4844C27.1315 29.0726 27.6562 28.5642 27.6562 27.937V10.8456C27.6562 10.2184 27.1316 9.70996 26.4843 9.70996Z" fill="white"/>
<path d="M17.2266 15.7285C16.5794 15.7285 16.0547 16.237 16.0547 16.8641V27.9366C16.0547 28.5637 16.5794 29.0722 17.2266 29.0722H17.2267C17.8738 29.0722 18.3986 28.5638 18.3986 27.9366V16.8641C18.3985 16.237 17.8739 15.7285 17.2266 15.7285Z" fill="white"/>
<path d="M21.8512 13.5708C21.2056 13.5731 20.6836 14.0809 20.6836 14.7064V27.9367C20.6836 28.5638 21.2083 29.0723 21.8554 29.0723H21.8555C22.5026 29.0723 23.0273 28.5639 23.0273 27.9367V14.7064C23.0272 14.0776 22.5 13.5685 21.8512 13.5708Z" fill="white"/>
</svg>
