<?xml version="1.0" encoding="utf-8"?>
<!-- Generator: Adobe Illustrator 24.1.2, SVG Export Plug-In . SVG Version: 6.00 Build 0)  -->
<svg version="1.1" id="Layer_1" xmlns="http://www.w3.org/2000/svg" xmlns:xlink="http://www.w3.org/1999/xlink" x="0px" y="0px"
	 viewBox="0 0 71 48" style="enable-background:new 0 0 71 48;" xml:space="preserve">
<style type="text/css">
	.st0{fill:none;stroke:#D3D3D3;stroke-width:3;}
	.st1{fill:none;stroke:#D3D3D3;stroke-width:2;}
</style>
<path class="st0" d="M20,38.8c0.4-4.7,2-8.9,4.6-11.9c2.9-3.3,6.7-5.1,10.9-5.1h0.1h0.1c4.2,0,8,1.8,10.9,5.1v0l0,0
	c0.9,1.1,1.8,2.3,2.4,3.7L40,39.7L39.7,40l-0.1,0.4l-0.2,0.9l0,0L39,42.5c-1.1,0.1-2.2,0.2-3.2,0.2h0h0h0h0h0h0h0h0h0h0h0h0h0h0h0h0
	h0h0h0h0h0h0h0h0h0h0h0h0h0h0h0h0h0h0h0h0h0h0h0h0h0h0h0h0h0h0h0h0h0h0h0h0h0h0h0h0h0h0h0h0h0h0h0h0h0h0h0h0h0h0h0h0h0h0h0h0h0h0h0
	h0h0h0h0h0h0h0h0h0h0h0h0h0h0h0h0h0h0h0h0h0h0h0h0h0h0h0h0h0h0h0h0h0h0h0h0h0h0h0h0h0h0h0h0h0h0h0h0h0h0h0h0h0h0h0h0h0h0h0h0h0h0h0
	h0h0h0h0h0h0h0h0h0h0h0h0h0h0h0h0h0h0h0h0h0h0h0h0h0h0h0h0h0h0h0h0h0h0h0h0h0h0h0h0h0h0h0h0h0h0h0h0h0h0h0h0h0h0h0h0h0h0h0h0h0h0h0
	h0h0h0h0h0h0h0h0h0h0h0h0h0h0h0h0h0h0h0h0h0h0h0h0h0h0h0h0h0h0h0h0h0h0h0h0h0h0h0h0h0h0h0h0h0h0h0h0h0h0h0h0h0h0h0h0h0h0h0h0h0h0h0
	h0h0h0h0h0h0h0h0h0h0h0h0h0h0h0h0h0h0h0h0h0h0h0h0h0h0h0h0h0h0h0h0h0h0h0h0h0h0h0h0h0h0h0h0h0h0h0h0h0h0h0h0h0h0h0h0h0h0h0h0h0h0h0
	h0h0h0h0h0h0h0h0h0h0h0h0h0h0h0h0h0h0h0h0h0h0h0h0h0h0h0h0h0h0h0h0h0h0h0h0h0h0h0h0h0h0h0h0h0h0h0h0h0h0h0h0h0h0h0h0h0h0h0h0h0h0h0
	h0h0h0h0h0h0h0h0h0h0h0h0h0h0h0h0h0h0h0h0h0h0h0h0h0h0h0h0h0h0h0h0h0h0h0h0h0h0h0h0h0h0h0h0h0h0h0h0h0h0h0h0h0h0h0h0h0h0h0h0h0h0h0
	h0h0h0h0h0h0h0h0h0h0h0h0h0h0h0h0h0h0h0l0,0h0h0h0h0l0,0h0h0l0,0h0h0l0,0h0l0,0h0h0l0,0l0,0h0l0,0h0l0,0l0,0h0l0,0l0,0h0l0,0l0,0
	l0,0l0,0h0l0,0h-0.1C29.4,42.7,23.2,40.3,20,38.8z"/>
<path class="st0" d="M42.7,8.7c0,4-3.2,7.2-7.2,7.2s-7.2-3.2-7.2-7.2c0-4,3.2-7.2,7.2-7.2S42.7,4.7,42.7,8.7z"/>
<path class="st1" d="M63.8,32.1c0-0.2,0-0.5,0-0.7c0-3.4-2.8-6.2-6.2-6.2c-1.1,0-2.1,0.3-3,0.8c-0.1,0.1-0.2,0.1-0.3,0.2
	c-0.6-1-1.3-2-2-2.9c1.8-1.8,4.2-2.8,6.7-2.8h0.2c2.7,0,5.2,1.2,7.1,3.3c1.6,1.8,2.7,4.3,3,7.2c-1.4,0.6-3.4,1.3-5.6,1.8
	C63.8,32.7,63.8,32.4,63.8,32.1z"/>
<path class="st1" d="M63.8,11.3c0,2.6-2.1,4.8-4.8,4.8c-2.6,0-4.8-2.1-4.8-4.8c0-2.6,2.1-4.8,4.8-4.8C61.7,6.6,63.8,8.7,63.8,11.3z"
	/>
<path class="st1" d="M18.7,23.4c-2.3,2.8-4.1,6.2-5,10c-0.6,0.1-1.1,0.1-1.6,0.1H12h-0.1c-3.8,0-7.8-1.4-10.2-2.4
	c0.4-2.9,1.5-5.4,3-7.2c1.9-2.1,4.4-3.3,7.1-3.3H12C14.5,20.5,16.9,21.5,18.7,23.4z"/>
<path class="st1" d="M16.7,11.3c0,2.6-2.1,4.8-4.8,4.8c-2.6,0-4.8-2.1-4.8-4.8c0-2.6,2.1-4.8,4.8-4.8C14.6,6.6,16.7,8.7,16.7,11.3z"
	/>
<path class="st1" d="M42.9,45.2l0.9,0.9l-1.3,0.4L42.9,45.2z"/>
<path class="st1" d="M47.1,44.5l-2.6-2.6l9.6-9.6l2.6,2.6L47.1,44.5z"/>
<path class="st1" d="M57.6,29.7c1,0,1.8,0.8,1.8,1.8c0,0.1,0,0.2,0,0.4l-2.1-2.1C57.4,29.7,57.5,29.7,57.6,29.7z"/>
</svg>
