<svg width="23" height="27" viewBox="0 0 23 27" fill="none" xmlns="http://www.w3.org/2000/svg">
<path d="M15.7028 10.3389L12.0684 6.70438C13.1068 6.04129 14.4705 6.19143 15.3463 7.06095C16.2221 7.93673 16.3722 9.30044 15.7028 10.3389Z" fill="#255888"/>
<path d="M9.36001 25.9527L5.71927 22.312C5.5879 22.1806 5.60041 21.9742 5.73804 21.8553C6.13214 21.5175 6.53249 21.1923 6.95161 20.8857C7.07673 20.7982 7.24563 20.8107 7.35823 20.917L9.34124 22.8938C10.1294 23.682 10.3234 24.8705 9.87296 25.8527C9.77287 26.0591 9.51014 26.1029 9.36001 25.9527Z" fill="#255888"/>
<path d="M5.22496 20.9984C4.81209 21.3487 4.41799 21.7115 4.0364 22.0931C3.83622 22.2933 3.56098 22.4059 3.27948 22.4059C2.99798 22.4059 2.72273 22.2933 2.52255 22.0931L0.314342 19.8849C-0.104781 19.4657 -0.104781 18.7901 0.314342 18.371C0.695931 17.9894 1.05875 17.5953 1.40906 17.1825L5.22496 20.9984Z" fill="#255888"/>
<path d="M18.3741 14.3925C18.5367 14.5552 18.4742 14.8304 18.2615 14.9055L11.4117 17.3952C9.46618 18.1083 7.63956 19.1155 5.99435 20.3791L2.02832 16.4131C3.29194 14.7678 4.29909 12.9412 5.01222 10.9957L7.50194 4.1459C7.577 3.93321 7.85225 3.87065 8.01489 4.0333L18.3741 14.3925Z" fill="#255888"/>
<path d="M18.7934 10.2575C19.0436 10.3639 19.3314 10.2513 19.4377 10.0073C20.6137 7.31743 19.3814 4.18339 16.6915 3.00735C15.4341 2.45686 14.0079 2.41932 12.7192 2.89475C12.4628 2.98858 12.3376 3.27008 12.4315 3.5203C12.5253 3.77678 12.8068 3.90189 13.057 3.80806C15.3028 2.97607 17.7987 4.12709 18.6307 6.37284C19.0186 7.42377 18.9873 8.58731 18.5369 9.61322C18.4306 9.85718 18.5432 10.1449 18.7934 10.2575Z" fill="#255888"/>
<path d="M12.2187 1.40595C15.7719 0.0922824 19.7254 1.9064 21.0391 5.45955C21.6521 7.12353 21.6021 8.96267 20.8952 10.5891C20.7889 10.8393 20.9015 11.1271 21.1454 11.2334C21.3957 11.3398 21.6834 11.2272 21.7898 10.9832C23.5225 7.01093 21.7084 2.38807 17.7424 0.655283C15.8845 -0.15794 13.7826 -0.21424 11.8809 0.486383C11.6245 0.580216 11.4931 0.861716 11.5869 1.11194C11.6808 1.36842 11.9623 1.49978 12.2125 1.40595H12.2187Z" fill="#255888"/>
</svg>
