<svg width="20" height="20" viewBox="0 0 20 20" fill="none" xmlns="http://www.w3.org/2000/svg">
<path d="M19.485 14.7513L16.9987 12.265C16.3133 11.5796 15.1979 11.5796 14.5124 12.265L13.3823 13.3951C12.863 13.9144 12.018 13.9143 11.4989 13.3953L6.60049 8.4927C6.07998 7.97219 6.0799 7.12973 6.60049 6.60915C6.78252 6.42711 7.30522 5.90442 7.73061 5.47903C8.41307 4.79661 8.4226 3.68469 7.72994 2.99211L5.24432 0.514297C4.55885 -0.171133 3.44349 -0.171133 2.75986 0.512501C2.2483 1.01961 2.0833 1.1832 1.85392 1.41059C-0.617954 3.88243 -0.617955 7.90442 1.85381 10.3762L9.61522 18.1417C12.0929 20.6194 16.103 20.6195 18.5809 18.1417L19.485 17.2376C20.1705 16.5521 20.1705 15.4368 19.485 14.7513ZM3.58681 1.34305C3.81529 1.11457 4.18701 1.11453 4.41623 1.34367L6.90186 3.82149C7.13088 4.05051 7.13088 4.42118 6.90186 4.65024L6.48744 5.06461L3.17455 1.75172L3.58681 1.34305ZM10.4441 17.313L2.68267 9.54747C0.770249 7.63504 0.665132 4.63211 2.35939 2.5941L5.66268 5.89739C4.79471 6.88133 4.83088 8.38067 5.77154 9.32134L10.6698 14.2237C10.6699 14.2238 10.6699 14.2238 10.67 14.2239C11.6096 15.1636 13.1089 15.2021 14.0941 14.3329L17.3974 17.6363C15.3659 19.3276 12.3697 19.2386 10.4441 17.313ZM18.6563 16.4088L18.2419 16.8232L14.9269 13.5081L15.3412 13.0938C15.5697 12.8653 15.9415 12.8652 16.17 13.0938L18.6563 15.5801C18.8848 15.8086 18.8848 16.1804 18.6563 16.4088Z" fill="#F2F2F2"/>
</svg>
