<svg width="30" height="30" viewBox="0 0 30 30" fill="none" xmlns="http://www.w3.org/2000/svg">
<path d="M19.1847 19.5745C19.198 19.5144 19.196 19.452 19.1788 19.3929C19.1616 19.3338 19.1298 19.2801 19.0863 19.2366L16.433 16.5832C16.8103 16.0631 16.9898 15.4254 16.9392 14.7848C16.8885 14.1443 16.6111 13.5427 16.1567 13.0883C15.7024 12.6339 15.1008 12.3565 14.4602 12.3059C13.8196 12.2552 13.182 12.4347 12.6619 12.8121L10.0082 10.1585C9.9647 10.115 9.91092 10.0832 9.85185 10.0659C9.79278 10.0487 9.73032 10.0467 9.67025 10.06C9.61018 10.0733 9.55444 10.1016 9.50819 10.1422C9.46194 10.1828 9.42667 10.2343 9.40564 10.2922L7.22137 16.2991C6.50128 18.2704 5.36073 20.0612 3.87894 21.5474C3.73657 21.6897 3.62365 21.8587 3.5466 22.0447C3.46956 22.2307 3.4299 22.43 3.4299 22.6314C3.4299 22.8327 3.46956 23.032 3.5466 23.218C3.62365 23.404 3.73657 23.573 3.87894 23.7153L5.52948 25.3658C5.67183 25.5082 5.84082 25.6211 6.0268 25.6982C6.21279 25.7752 6.41213 25.8149 6.61345 25.8149C6.81476 25.8149 7.0141 25.7752 7.20009 25.6982C7.38608 25.6211 7.55507 25.5082 7.69741 25.3658C7.70747 25.3558 7.7179 25.3461 7.7279 25.3361L11.1413 28.7495C11.2099 28.8181 11.3029 28.8566 11.3999 28.8566C11.497 28.8566 11.59 28.8181 11.6586 28.7495C12.1643 28.2427 12.4482 27.5561 12.4482 26.8402C12.4482 26.1243 12.1643 25.4377 11.6586 24.931L10.1378 23.4101C11.0205 22.8471 11.962 22.3821 12.9456 22.0234L18.9525 19.8391C19.0103 19.8181 19.0619 19.7828 19.1025 19.7366C19.1431 19.6903 19.1714 19.6346 19.1847 19.5745ZM15.6391 13.6056C15.9562 13.9227 16.1555 14.3385 16.2041 14.7842C16.2527 15.23 16.1477 15.6789 15.9064 16.0569L13.1883 13.3387C13.5663 13.098 14.015 12.9933 14.4606 13.0418C14.9061 13.0903 15.3218 13.2892 15.6391 13.6056ZM6.61345 25.0832C6.50818 25.0835 6.4039 25.0629 6.30665 25.0226C6.20939 24.9823 6.12109 24.9232 6.04686 24.8485L4.39637 23.1979C4.32197 23.1235 4.26294 23.0352 4.22267 22.938C4.1824 22.8408 4.16167 22.7366 4.16167 22.6314C4.16167 22.5261 4.1824 22.4219 4.22267 22.3247C4.26294 22.2275 4.32197 22.1392 4.39637 22.0648C4.68146 21.7797 4.95487 21.4828 5.21662 21.1742L8.07064 24.0282C7.76259 24.2899 7.46574 24.5633 7.18009 24.8485C7.10586 24.9232 7.01755 24.9823 6.92028 25.0226C6.82302 25.0629 6.71873 25.0835 6.61345 25.0832ZM11.1414 25.4484C11.4656 25.7727 11.6665 26.2001 11.7094 26.6567C11.7522 27.1133 11.6344 27.5706 11.3762 27.9496L8.26034 24.8338C8.66117 24.475 9.08176 24.139 9.52015 23.8272L11.1414 25.4484ZM12.6956 21.3358C11.239 21.8681 9.87242 22.6203 8.64345 23.5663L5.67851 20.6013C6.62446 19.3723 7.37667 18.0058 7.909 16.5491L9.8968 11.0822L18.1627 19.3475L12.6956 21.3358Z" fill="white"/>
<path d="M18.6305 16.2976C18.675 16.3156 18.7227 16.3246 18.7707 16.3241C18.8188 16.3237 18.8663 16.3137 18.9105 16.2949C18.9547 16.2761 18.9948 16.2488 19.0284 16.2145C19.062 16.1802 19.0886 16.1396 19.1065 16.095C19.3979 15.3718 19.4701 14.5789 19.3143 13.815C19.1585 13.0511 18.7815 12.3499 18.2302 11.7986C17.6789 11.2473 16.9776 10.8702 16.2137 10.7144C15.4498 10.5586 14.6569 10.6309 13.9337 10.9222C13.8437 10.9585 13.7718 11.029 13.7339 11.1183C13.6959 11.2076 13.6949 11.3083 13.7312 11.3983C13.7675 11.4884 13.838 11.5603 13.9273 11.5982C14.0166 11.6362 14.1173 11.6372 14.2073 11.6009C14.7974 11.3632 15.4443 11.3043 16.0676 11.4314C16.6909 11.5586 17.2631 11.8662 17.7129 12.316C18.1627 12.7658 18.4703 13.338 18.5975 13.9613C18.7246 14.5846 18.6657 15.2315 18.428 15.8216C18.3917 15.9116 18.3927 16.0123 18.4306 16.1015C18.4686 16.1908 18.5405 16.2613 18.6305 16.2976Z" fill="white"/>
<path d="M13.527 9.82083C14.4611 9.44445 15.4852 9.35105 16.4719 9.55227C17.4586 9.75349 18.3643 10.2404 19.0764 10.9525C19.7885 11.6646 20.2754 12.5703 20.4766 13.557C20.6778 14.5437 20.5844 15.5678 20.208 16.5019C20.1901 16.5464 20.1811 16.5941 20.1815 16.6421C20.182 16.6902 20.1919 16.7377 20.2107 16.7819C20.2296 16.8261 20.2569 16.8661 20.2912 16.8998C20.3255 16.9334 20.3661 16.96 20.4107 16.9779C20.4552 16.9959 20.5029 17.0049 20.5509 17.0044C20.599 17.0039 20.6465 16.994 20.6907 16.9752C20.7349 16.9564 20.7749 16.929 20.8086 16.8947C20.8422 16.8604 20.8688 16.8198 20.8867 16.7753C21.3167 15.7081 21.4234 14.5381 21.1935 13.4108C20.9637 12.2835 20.4073 11.2486 19.5938 10.4351C18.7802 9.62155 17.7454 9.06522 16.6181 8.83533C15.4907 8.60544 14.3207 8.71215 13.2536 9.14217C13.2087 9.15988 13.1677 9.1863 13.1331 9.21991C13.0984 9.25353 13.0708 9.29366 13.0517 9.33801C13.0326 9.38236 13.0225 9.43004 13.022 9.47831C13.0214 9.52658 13.0304 9.57448 13.0485 9.61925C13.0665 9.66403 13.0932 9.70479 13.1271 9.73919C13.161 9.77358 13.2013 9.80094 13.2458 9.81968C13.2903 9.83841 13.338 9.84816 13.3863 9.84836C13.4346 9.84856 13.4824 9.8392 13.527 9.82083Z" fill="white"/>
<path d="M24.4893 0C23.3994 0 22.3339 0.323195 21.4277 0.928716C20.5215 1.53424 19.8152 2.39489 19.3981 3.40183C18.981 4.40877 18.8719 5.51678 19.0845 6.58575C19.2971 7.65471 19.822 8.63662 20.5926 9.4073C21.3633 10.178 22.3452 10.7028 23.4142 10.9155C24.4832 11.1281 25.5912 11.019 26.5981 10.6019C27.6051 10.1848 28.4657 9.47846 29.0712 8.57224C29.6768 7.66601 30 6.60058 30 5.51067C29.9983 4.04966 29.4172 2.64895 28.3841 1.61586C27.351 0.582762 25.9503 0.00164616 24.4893 0ZM24.4893 10.2896C23.5441 10.2896 22.6201 10.0094 21.8342 9.48423C21.0483 8.95911 20.4358 8.21274 20.0741 7.3395C19.7124 6.46626 19.6177 5.50537 19.8021 4.57834C19.9865 3.65131 20.4417 2.79978 21.11 2.13143C21.7784 1.46308 22.6299 1.00793 23.557 0.823534C24.484 0.639136 25.4449 0.733776 26.3181 1.09548C27.1914 1.45719 27.9377 2.06972 28.4628 2.85562C28.988 3.64152 29.2682 4.56548 29.2682 5.51067C29.2668 6.77769 28.7628 7.9924 27.8669 8.88832C26.971 9.78424 25.7563 10.2882 24.4893 10.2896Z" fill="white"/>
<path d="M26.4687 4.87062C26.7391 4.87065 27.0034 4.79059 27.2283 4.64054C27.4531 4.49048 27.6285 4.27717 27.7323 4.02752C27.836 3.77787 27.8635 3.50308 27.8112 3.23784C27.7589 2.9726 27.6292 2.7288 27.4384 2.53722C27.2477 2.34564 27.0044 2.21487 26.7394 2.16141C26.4744 2.10796 26.1995 2.13421 25.9494 2.23687C25.6993 2.33952 25.4852 2.51398 25.3342 2.7382C25.1832 2.96243 25.102 3.22637 25.1008 3.49672L23.4042 4.47653C23.2074 4.30611 22.9661 4.19536 22.7087 4.15726C22.4512 4.11917 22.1882 4.15533 21.9505 4.26149C21.7128 4.36765 21.5104 4.5394 21.3669 4.75659C21.2235 4.97378 21.145 5.22739 21.1406 5.48764C21.1362 5.7479 21.2062 6.00399 21.3423 6.22587C21.4784 6.44775 21.675 6.6262 21.9089 6.74027C22.1429 6.85434 22.4045 6.89929 22.6632 6.86986C22.9218 6.84043 23.1666 6.73782 23.369 6.5741L25.1085 7.66403C25.1432 7.9909 25.2943 8.29438 25.5342 8.51904C25.7742 8.7437 26.0869 8.87453 26.4154 8.88764C26.7438 8.90075 27.066 8.79527 27.3231 8.59045C27.5802 8.38564 27.755 8.09517 27.8157 7.77211C27.8763 7.44905 27.8187 7.11495 27.6533 6.83087C27.488 6.54678 27.2259 6.33166 26.9151 6.2248C26.6042 6.11795 26.2653 6.12649 25.9603 6.24887C25.6552 6.37125 25.4043 6.5993 25.2535 6.89135L23.7957 5.97794C23.9001 5.69085 23.9053 5.37705 23.8105 5.08666L25.3064 4.22275C25.429 4.42073 25.6001 4.58413 25.8035 4.6975C26.0069 4.81088 26.2359 4.87046 26.4687 4.87062ZM26.4687 2.86617C26.5946 2.86616 26.7177 2.90347 26.8223 2.97339C26.927 3.04331 27.0086 3.1427 27.0567 3.25899C27.1049 3.37527 27.1175 3.50324 27.093 3.62669C27.0684 3.75014 27.0078 3.86355 26.9188 3.95255C26.8298 4.04156 26.7164 4.10218 26.593 4.12674C26.4695 4.1513 26.3416 4.1387 26.2253 4.09054C26.109 4.04237 26.0096 3.9608 25.9397 3.85614C25.8697 3.75149 25.8324 3.62844 25.8324 3.50257C25.8326 3.33386 25.8997 3.17211 26.019 3.0528C26.1383 2.9335 26.3 2.86638 26.4687 2.86617ZM22.51 6.14702C22.3841 6.14702 22.2611 6.1097 22.1564 6.03977C22.0517 5.96984 21.9702 5.87045 21.922 5.75416C21.8738 5.63787 21.8612 5.50991 21.8858 5.38646C21.9103 5.26301 21.971 5.14962 22.06 5.06062C22.149 4.97161 22.2624 4.911 22.3858 4.88645C22.5093 4.86189 22.6372 4.87449 22.7535 4.92266C22.8698 4.97083 22.9692 5.0524 23.0391 5.15705C23.109 5.26171 23.1464 5.38475 23.1464 5.51062C23.1462 5.67934 23.0791 5.8411 22.9598 5.96041C22.8404 6.07972 22.6787 6.14683 22.51 6.14702ZM26.4687 6.88233C26.5946 6.88231 26.7177 6.91963 26.8223 6.98955C26.927 7.05948 27.0086 7.15887 27.0568 7.27516C27.1049 7.39145 27.1175 7.51941 27.093 7.64287C27.0684 7.76633 27.0078 7.87973 26.9188 7.96873C26.8298 8.05774 26.7164 8.11835 26.5929 8.14291C26.4695 8.16746 26.3415 8.15485 26.2252 8.10668C26.1089 8.0585 26.0096 7.97692 25.9396 7.87226C25.8697 7.76759 25.8324 7.64454 25.8324 7.51867C25.8326 7.34996 25.8997 7.18822 26.019 7.06892C26.1383 6.94963 26.3 6.88252 26.4687 6.88233Z" fill="white"/>
<path d="M24.4893 18.9786C23.3994 18.9786 22.3339 19.3018 21.4277 19.9074C20.5215 20.5129 19.8152 21.3735 19.3981 22.3805C18.981 23.3874 18.8719 24.4954 19.0845 25.5644C19.2971 26.6334 19.822 27.6153 20.5926 28.3859C21.3633 29.1566 22.3452 29.6815 23.4142 29.8941C24.4832 30.1067 25.5912 29.9976 26.5981 29.5805C27.6051 29.1634 28.4657 28.4571 29.0712 27.5509C29.6768 26.6446 30 25.5792 30 24.4893C29.9983 23.0283 29.4172 21.6276 28.3841 20.5945C27.351 19.5614 25.9503 18.9803 24.4893 18.9786ZM24.4893 29.2683C23.5441 29.2683 22.6201 28.988 21.8342 28.4629C21.0483 27.9378 20.4358 27.1914 20.0741 26.3181C19.7124 25.4449 19.6177 24.484 19.8021 23.557C19.9865 22.63 20.4417 21.7784 21.11 21.1101C21.7784 20.4417 22.6299 19.9866 23.557 19.8022C24.484 19.6178 25.4449 19.7124 26.3181 20.0741C27.1914 20.4358 27.9377 21.0484 28.4628 21.8343C28.988 22.6202 29.2682 23.5441 29.2682 24.4893C29.2668 25.7563 28.7628 26.971 27.8669 27.867C26.971 28.7629 25.7563 29.2668 24.4893 29.2683Z" fill="white"/>
<path d="M26.7518 24.1781L23.7549 22.3245C23.6995 22.2902 23.6359 22.2714 23.5708 22.2699C23.5057 22.2684 23.4413 22.2843 23.3844 22.316C23.3275 22.3477 23.2801 22.394 23.2471 22.4502C23.2141 22.5064 23.1966 22.5703 23.1966 22.6355V26.3428C23.1966 26.4079 23.2141 26.4719 23.2471 26.528C23.2801 26.5842 23.3275 26.6305 23.3844 26.6622C23.4413 26.6939 23.5057 26.7098 23.5708 26.7083C23.6359 26.7069 23.6995 26.688 23.7549 26.6537L26.7518 24.8001C26.8049 24.7673 26.8486 24.7215 26.879 24.667C26.9093 24.6126 26.9253 24.5513 26.9253 24.4889C26.9253 24.4266 26.9093 24.3653 26.879 24.3108C26.8486 24.2564 26.8049 24.2106 26.7518 24.1778V24.1781ZM23.9283 25.6865V23.2921L25.8639 24.4893L23.9283 25.6865Z" fill="white"/>
<path d="M11.0213 5.51067C11.0213 4.42077 10.6981 3.35533 10.0926 2.44911C9.48711 1.54288 8.62646 0.836567 7.61952 0.419477C6.61257 0.00238765 5.50456 -0.106742 4.43559 0.105888C3.36663 0.318519 2.38472 0.84336 1.61404 1.61404C0.84336 2.38472 0.318519 3.36663 0.105888 4.43559C-0.106742 5.50456 0.00238765 6.61257 0.419477 7.61952C0.836567 8.62646 1.54288 9.48711 2.44911 10.0926C3.35533 10.6981 4.42077 11.0213 5.51067 11.0213C6.97169 11.0197 8.37239 10.4386 9.40549 9.40549C10.4386 8.37239 11.0197 6.97169 11.0213 5.51067ZM0.73171 5.51067C0.73171 4.56548 1.01199 3.64152 1.53711 2.85562C2.06223 2.06973 2.8086 1.4572 3.68184 1.09549C4.55508 0.733778 5.51597 0.639139 6.443 0.823536C7.37003 1.00793 8.22156 1.46309 8.88991 2.13144C9.55826 2.79979 10.0134 3.65132 10.1978 4.57834C10.3822 5.50537 10.2876 6.46626 9.92586 7.3395C9.56415 8.21274 8.95162 8.95912 8.16572 9.48424C7.37983 10.0094 6.45586 10.2896 5.51067 10.2896C4.24365 10.2882 3.02894 9.78424 2.13302 8.88832C1.2371 7.99241 0.733146 6.77769 0.73171 5.51067Z" fill="white"/>
<path d="M6.85601 6.72306V6.66501L8.1929 7.39855C8.24861 7.42911 8.31132 7.44464 8.37485 7.4436C8.43839 7.44256 8.50056 7.42499 8.55524 7.39263C8.60992 7.36026 8.65523 7.31421 8.6867 7.25901C8.71817 7.2038 8.73473 7.14136 8.73473 7.07781V3.94367C8.73472 3.88012 8.71816 3.81767 8.68668 3.76247C8.6552 3.70727 8.60988 3.66122 8.5552 3.62886C8.50051 3.5965 8.43833 3.57894 8.37479 3.57791C8.31126 3.57688 8.24855 3.59242 8.19284 3.623L6.85601 4.35672V4.29842C6.85572 4.03977 6.75284 3.79178 6.56994 3.60889C6.38704 3.42599 6.13906 3.32311 5.8804 3.32281H3.26217C3.00351 3.32309 2.75552 3.42597 2.57261 3.60887C2.38971 3.79177 2.28683 4.03976 2.28656 4.29842V6.72306C2.28683 6.98172 2.38971 7.22971 2.57261 7.41262C2.75552 7.59552 3.00351 7.69839 3.26217 7.69867H5.8804C6.13906 7.69838 6.38704 7.5955 6.56994 7.4126C6.75284 7.2297 6.85572 6.98172 6.85601 6.72306ZM8.00302 4.56184V6.45971L6.85601 5.83038V5.19141L8.00302 4.56184ZM3.01827 6.72306V4.29842C3.01827 4.23374 3.04396 4.1717 3.0897 4.12596C3.13545 4.08022 3.19748 4.05452 3.26217 4.05452H5.8804C5.94509 4.05452 6.00713 4.08022 6.05287 4.12596C6.09861 4.1717 6.1243 4.23374 6.1243 4.29842V6.72306C6.1243 6.78775 6.09861 6.84978 6.05287 6.89552C6.00713 6.94126 5.94509 6.96696 5.8804 6.96696H3.26217C3.19748 6.96696 3.13545 6.94126 3.0897 6.89552C3.04396 6.84978 3.01827 6.78775 3.01827 6.72306Z" fill="white"/>
</svg>
