<svg width="47" height="50" viewBox="0 0 47 50" fill="none" xmlns="http://www.w3.org/2000/svg">
<path d="M41.0095 50H15.2621C12.321 50 9.91016 47.5892 9.91016 44.6481V12.488C9.91016 9.54679 12.321 7.13599 15.2621 7.13599H40.9613C43.9025 7.13599 46.3133 9.54679 46.3133 12.488V44.6481C46.3615 47.5892 43.9507 50 41.0095 50ZM15.2621 9.25749C13.4781 9.25749 12.0317 10.704 12.0317 12.488V44.6481C12.0317 46.432 13.4781 47.8785 15.2621 47.8785H40.9613C42.7453 47.8785 44.1918 46.432 44.1918 44.6481V12.488C44.1918 10.704 42.7453 9.25749 40.9613 9.25749H15.2621Z" fill="#D3D3D3"/>
<path d="M6.72805 43.5391H6.05303C3.06363 43.5391 0.652832 41.1765 0.652832 38.1871V5.35198C0.652832 2.4108 3.06363 0 6.00481 0H30.2575C33.1987 0 35.6095 0.964321 35.6095 3.9055C35.6095 4.48409 35.1273 4.96625 34.5487 4.96625C33.9701 4.96625 33.4879 4.48409 33.4879 3.9055C33.4879 2.12151 32.0415 2.12151 30.2575 2.12151H6.00481C4.22082 2.12151 2.77434 3.56799 2.77434 5.35198V38.1871C2.77434 39.9711 4.22082 41.4176 6.00481 41.4176H6.67984C7.25843 41.4176 7.74059 41.8997 7.74059 42.4783C7.74059 43.0569 7.30664 43.5391 6.72805 43.5391Z" fill="#D3D3D3"/>
<path d="M20.7002 30.2689L19.2113 31.7562C18.9234 32.0439 18.9306 32.5032 19.2274 32.7822C19.3728 32.9189 19.5608 32.9869 19.7486 32.9869C19.944 32.9869 20.1393 32.9132 20.286 32.7666L21.7749 31.2793C22.0628 30.9917 22.0556 30.5324 21.7588 30.2534C21.462 29.9743 20.9881 29.9813 20.7002 30.2689Z" fill="#D3D3D3"/>
<path d="M24.1657 30.7378C23.7522 30.7378 23.417 31.0626 23.417 31.4633V37.8479C23.417 38.2486 23.7522 38.5734 24.1657 38.5734H24.1657C24.5792 38.5734 24.9144 38.2486 24.9144 37.8479L24.9144 31.4633C24.9144 31.0626 24.5792 30.7378 24.1657 30.7378Z" fill="#D3D3D3"/>
<path d="M27.0856 29.1416C26.6722 29.1416 26.3369 29.4664 26.3369 29.8671V37.8479C26.3369 38.2485 26.6721 38.5734 27.0856 38.5734C27.4991 38.5734 27.8343 38.2485 27.8343 37.8479V29.8671C27.8342 29.4664 27.4991 29.1416 27.0856 29.1416Z" fill="#D3D3D3"/>
<path d="M35.9574 20H33.7114C33.2979 20 32.9627 20.3248 32.9627 20.7255C32.9627 21.1262 33.2979 21.4511 33.7114 21.4511H35.6846L30.1873 26.7773C30.0398 26.9203 29.8468 27.0016 29.6559 27.0016C29.6519 27.0016 29.6478 27.0016 29.6438 27.0015C29.46 26.9982 29.2721 26.9165 29.1285 26.7773L28.2483 25.9243C27.8174 25.5067 27.2453 25.2646 26.6787 25.2601C26.6732 25.2601 26.6677 25.2601 26.6622 25.2601C26.0758 25.2601 25.4902 25.5085 25.0525 25.9434L23.4481 27.5052C23.1564 27.7892 23.1574 28.2485 23.4505 28.5312C23.5965 28.6722 23.7876 28.7426 23.9786 28.7426C24.1708 28.7426 24.3629 28.6713 24.5092 28.5289L26.1165 26.9643C26.1187 26.9622 26.1209 26.9601 26.123 26.9579C26.2794 26.8019 26.4831 26.7093 26.6664 26.7111C26.8409 26.7125 27.0364 26.8019 27.1896 26.9503L28.0698 27.8033C28.4909 28.2114 29.04 28.4419 29.6159 28.4523C30.2149 28.4632 30.8095 28.2266 31.2461 27.8034L36.7061 22.5133V24.3169C36.7061 24.7176 37.0413 25.0424 37.4548 25.0424C37.8682 25.0424 38.2034 24.7176 38.2034 24.3169V22.1766C38.2034 20.9764 37.1959 20 35.9574 20Z" fill="#D3D3D3"/>
<path d="M21.2112 34.0027C20.7967 34.0013 20.46 34.3265 20.46 34.7282V37.848C20.46 38.2486 20.7952 38.5735 21.2087 38.5735H21.2087C21.6222 38.5735 21.9574 38.2486 21.9574 37.848V34.7282C21.9574 34.3285 21.6238 34.004 21.2112 34.0027Z" fill="#D3D3D3"/>
<path d="M35.92 26.2032C35.5066 26.2032 35.1714 26.5281 35.1714 26.9288V37.848C35.1714 38.2486 35.5066 38.5735 35.92 38.5735H35.9201C36.3335 38.5735 36.6687 38.2487 36.6687 37.848V26.9288C36.6687 26.528 36.3336 26.2032 35.92 26.2032Z" fill="#D3D3D3"/>
<path d="M30.0055 30.0486C29.592 30.0486 29.2568 30.3734 29.2568 30.7741V37.848C29.2568 38.2486 29.592 38.5735 30.0055 38.5735H30.0056C30.419 38.5735 30.7543 38.2487 30.7543 37.848V30.7741C30.7542 30.3734 30.4191 30.0486 30.0055 30.0486Z" fill="#D3D3D3"/>
<path d="M32.9598 28.67C32.5474 28.6715 32.2139 28.9959 32.2139 29.3956V37.848C32.2139 38.2487 32.5491 38.5735 32.9625 38.5735H32.9626C33.376 38.5735 33.7112 38.2487 33.7112 37.848V29.3956C33.7111 28.9938 33.3743 28.6686 32.9598 28.67Z" fill="#D3D3D3"/>
</svg>
