<svg width="25" height="20" viewBox="0 0 25 20" fill="none" xmlns="http://www.w3.org/2000/svg">
<path d="M24.5485 2.44157C24.3867 2.26466 24.1262 2.21868 23.9137 2.32943C23.6952 2.42872 23.4691 2.51046 23.2376 2.57384C23.5986 2.1118 23.8713 1.58703 24.0417 1.0259C24.1167 0.743545 23.9486 0.453804 23.6663 0.378765C23.5155 0.338691 23.3548 0.367209 23.227 0.45668C22.4226 0.891986 21.5676 1.22641 20.6813 1.45232C18.8568 -0.269755 16.0777 -0.484407 14.0103 0.937069C12.4178 2.0138 11.5411 3.87475 11.7249 5.78822C8.27288 5.49406 5.09679 3.78344 2.95155 1.06294C2.84135 0.92963 2.67461 0.856227 2.50186 0.865105C2.32669 0.875619 2.16818 0.972332 2.07866 1.12325C1.35059 2.31341 1.13966 3.74907 1.49462 5.09834C1.67663 5.79159 1.98864 6.44398 2.41408 7.02083C2.22244 6.927 2.04211 6.81164 1.87661 6.67698C1.6497 6.49293 1.31657 6.52765 1.13247 6.75455C1.05609 6.84873 1.01433 6.96628 1.01428 7.08754C1.04572 9.04495 2.12057 10.8364 3.83293 11.7853C3.60191 11.7569 3.37386 11.7081 3.15153 11.6393C2.87175 11.5551 2.57671 11.7137 2.49254 11.9934C2.45584 12.1155 2.46442 12.2467 2.51669 12.363C3.25989 14.0278 4.74569 15.2437 6.52461 15.6429C4.82976 16.5991 2.87815 17.0009 0.943405 16.792C0.692547 16.7599 0.454882 16.9124 0.379447 17.1538C0.30168 17.3933 0.403451 17.6544 0.622815 17.7781C2.99178 19.1856 5.68668 19.9514 8.4418 20C11.085 19.9903 13.6665 19.2009 15.863 17.7305C20.056 14.9478 22.6694 9.95167 22.3055 5.48142C23.202 4.81777 23.9797 4.00717 24.6057 3.08389C24.7343 2.88154 24.7109 2.61798 24.5485 2.44157Z" fill="#03A9F4"/>
</svg>
