<?xml version="1.0" encoding="utf-8"?>
<!-- Generator: Adobe Illustrator 24.1.2, SVG Export Plug-In . SVG Version: 6.00 Build 0)  -->
<svg version="1.1" id="Layer_1" xmlns="http://www.w3.org/2000/svg" xmlns:xlink="http://www.w3.org/1999/xlink" x="0px" y="0px"
	 viewBox="0 0 39 48" style="enable-background:new 0 0 39 48;" xml:space="preserve">
<style type="text/css">
	.st0{fill:none;stroke:#D3D3D3;stroke-width:3;}
</style>
<g>
	<path class="st0" d="M26.9,9.7c0,4.1-3.3,7.4-7.4,7.4c-4.1,0-7.4-3.3-7.4-7.4c0-4.1,3.3-7.4,7.4-7.4C23.6,2.2,26.9,5.6,26.9,9.7z"
		/>
	<path class="st0" d="M6.7,27.7C6.7,27.7,6.8,27.7,6.7,27.7C7,27.4,7.2,27.2,7.4,27l0,0l0,0c3.2-3.3,7.4-5.1,11.9-5.1h0.1h0.1h0.1
		h0.1c4.3,0,8.4,1.7,11.6,4.8l0.1,0.1l0,0l0,0l0,0c0,0,0.1,0.1,0.1,0.1c0.2,0.2,0.5,0.5,0.7,0.7l0,0l0,0l0,0c0,0,0,0,0,0
		c0,0,0,0,0,0.1l0,0c0,0,0.1,0.1,0.1,0.1c0,0,0,0,0,0.1l0.2,0.3c0.1,0.1,0.2,0.2,0.2,0.3l0.2,0.3l0.1,0.1l0.1,0.1
		c0.9,1.2,1.7,2.6,2.3,4.1l0,0l0,0c0.3,0.6,0.5,1.3,0.8,2.1c0.1,0.4,0.3,0.9,0.4,1.4c0,0.1,0,0.2,0.1,0.3c0.1,0.3,0.1,0.6,0.2,0.9
		l0.1,0.4c0,0.1,0.1,0.3,0.1,0.4l0,0c0,0,0,0,0,0.1l0,0.1c0,0.1,0,0.2,0,0.3l0,0c0,0.1,0,0.2,0,0.3c0,0,0,0,0,0l0,0.2l0,0l0,0
		c0,0,0,0,0,0.1l0,0c0,0.1,0,0.2,0,0.3c0,0.1,0,0.1,0,0.2c0,0,0,0,0,0v0.2l0,0.2l0,0c0,0.2,0,0.4,0.1,0.5l0,0c0,0,0,0.1,0,0.1
		c-3.5,1.6-11,4.5-18.1,4.5h-0.1h-0.1h-0.1h-0.1c-7,0-14.3-2.8-17.9-4.4l0,0l0,0l0-0.1v-0.3v0c0,0,0,0,0,0c0,0,0-0.1,0-0.1l0-0.2
		v-0.2v0c0-0.1,0-0.1,0-0.2c0,0,0,0,0,0c0-0.1,0-0.1,0-0.1c0,0,0,0,0,0c0-0.1,0-0.3,0.1-0.3c0,0,0,0,0,0c0,0,0,0,0,0l0-0.2v-0.1
		c0-0.1,0-0.1,0-0.1l0,0c0,0,0-0.1,0-0.1l0-0.1l0-0.1c0,0,0-0.1,0-0.2l0,0c0-0.1,0-0.2,0.1-0.4l0.1-0.4c0-0.1,0-0.2,0.1-0.2
		c0.1-0.5,0.2-0.9,0.3-1.3l0.4-1.5c0.8-2.4,1.9-4.5,3.2-6.3l0,0l0,0l0,0C5.9,28.7,6,28.6,6,28.6l0.1-0.1l0.1-0.1L6.5,28
		C6.6,27.9,6.7,27.8,6.7,27.7L6.7,27.7z"/>
</g>
</svg>
