<svg width="67" height="43" viewBox="0 0 67 43" fill="none" xmlns="http://www.w3.org/2000/svg">
<path d="M40.1654 8.50115C40.1654 12.3678 37.0309 15.5023 33.1642 15.5023C29.2976 15.5023 26.1631 12.3678 26.1631 8.50115C26.1631 4.63452 29.2976 1.5 33.1642 1.5C37.0309 1.5 40.1654 4.63452 40.1654 8.50115Z" stroke="#D3D3D3" stroke-width="3"/>
<path d="M51.0923 25.8699L51.0489 25.8115L50.9974 25.76L50.9735 25.7362L50.905 25.6447L50.7937 25.4965L50.7511 25.4396L50.7492 25.4377C50.7276 25.4084 50.6961 25.3676 50.6553 25.3221L50.4094 25.0091L50.3724 24.9621L50.3302 24.9198C50.3304 24.92 50.326 24.9156 50.3149 24.9031C50.3033 24.8901 50.2907 24.8754 50.2711 24.8525C50.2692 24.8503 50.2672 24.848 50.2651 24.8455C50.2322 24.8071 50.1729 24.7378 50.1078 24.6727C50.1078 24.6727 50.1078 24.6727 50.1077 24.6727L50.1048 24.6697C50.0786 24.6399 50.0496 24.6063 50.018 24.5699C49.9913 24.539 49.9628 24.506 49.9326 24.4714C50.3092 23.7402 50.7499 23.0899 51.2406 22.5291L51.2412 22.5284C52.7641 20.7847 54.841 19.8309 57.0368 19.8309H57.2098C59.4288 19.8309 61.4815 20.7835 63.0055 22.5284L63.0055 22.5284L63.0101 22.5336C64.2461 23.9291 65.1177 25.8477 65.4994 28.0649C63.4241 28.897 60.2408 29.9401 57.2593 29.9401H57.1604H57.0616C55.7912 29.9401 54.4678 29.7575 53.2077 29.4674C52.6198 28.1653 51.9085 26.9659 51.0923 25.8699Z" stroke="#D3D3D3" stroke-width="2"/>
<path d="M61.7453 11.2442C61.7453 13.8304 59.6476 15.9281 57.0613 15.9281C54.4751 15.9281 52.3774 13.8304 52.3774 11.2442C52.3774 8.65799 54.4751 6.5603 57.0613 6.5603C59.6476 6.5603 61.7453 8.65799 61.7453 11.2442Z" stroke="#D3D3D3" stroke-width="2"/>
<path d="M15.6033 25.76L15.5518 25.8115L15.5083 25.8699C14.6921 26.9659 13.9809 28.1653 13.3929 29.4674C12.1328 29.7575 10.8095 29.9401 9.53908 29.9401H9.44023H9.34138C6.35957 29.9401 3.17587 28.8968 1.10065 28.0646C1.47934 25.8429 2.33443 23.9293 3.58525 22.5396L3.59023 22.534L3.59512 22.5284C5.11913 20.7835 7.1718 19.8309 9.3908 19.8309H9.56379C11.7596 19.8309 13.8365 20.7847 15.3595 22.5284L15.3601 22.5291C15.8508 23.0899 16.2914 23.7402 16.668 24.4714C16.6379 24.506 16.6093 24.539 16.5826 24.5699C16.5511 24.6063 16.5221 24.6399 16.4959 24.6697L16.4929 24.6727C16.4929 24.6727 16.4929 24.6727 16.4929 24.6727C16.4278 24.7378 16.3685 24.8071 16.3356 24.8455L16.3295 24.8526C16.3099 24.8754 16.2973 24.8901 16.2858 24.9031C16.2754 24.9148 16.2708 24.9194 16.2705 24.9198L16.2705 24.9198L16.2282 24.9621L16.1913 25.0091L15.9454 25.3221C15.9045 25.3676 15.873 25.4084 15.8514 25.4377L15.8495 25.4396L15.8069 25.4965L15.6271 25.7361L15.6033 25.76Z" stroke="#D3D3D3" stroke-width="2"/>
<path d="M9.53889 15.9281C6.95267 15.9281 4.85498 13.8304 4.85498 11.2442C4.85498 8.65799 6.95267 6.5603 9.53889 6.5603C12.1251 6.5603 14.2228 8.65799 14.2228 11.2442C14.2228 13.8304 12.1251 15.9281 9.53889 15.9281Z" stroke="#D3D3D3" stroke-width="2"/>
<path d="M22.6432 26.3928C22.6683 26.361 22.6908 26.3319 22.7083 26.3091C22.8953 26.0988 23.0522 25.9241 23.203 25.7733L23.2117 25.7646L23.2203 25.7558C25.9132 22.9731 29.4577 21.4431 33.2136 21.4431H33.2878H33.3619H33.4361H33.4855C37.1128 21.4431 40.5652 22.8647 43.2041 25.4813L43.2775 25.5541L43.3112 25.5794L43.3239 25.5934L43.3405 25.6118C43.3626 25.6361 43.4012 25.6785 43.4467 25.7239C43.635 25.9123 43.8319 26.1303 44.0287 26.3517L44.058 26.3847L44.0892 26.4159L44.1074 26.434C44.1079 26.4346 44.1084 26.4352 44.109 26.4359C44.1171 26.4449 44.1267 26.4561 44.1469 26.4796L44.1494 26.4826C44.1665 26.5025 44.1926 26.533 44.2202 26.5641C44.2323 26.5776 44.246 26.5928 44.2611 26.6092L44.4352 26.8308C44.5047 26.9363 44.5741 27.0183 44.6264 27.0749L44.7901 27.2931L44.854 27.3784L44.9247 27.449C45.6907 28.4916 46.3499 29.6428 46.8812 30.9045L46.8903 30.9261L46.9 30.9474C47.1338 31.4573 47.3313 32.0225 47.5553 32.6695C47.6696 33.0361 47.7846 33.4271 47.9003 33.8428C47.9175 33.9126 47.9395 34.0055 47.9644 34.1112C48.0152 34.3264 48.0786 34.5948 48.1404 34.8292L48.222 35.1963C48.2419 35.3191 48.2661 35.4285 48.2821 35.5008L48.2864 35.5201C48.2901 35.5365 48.2933 35.5509 48.2961 35.5635L48.3162 35.6846C48.3268 35.7477 48.3377 35.8184 48.3503 35.9008L48.351 35.9051C48.3629 35.9823 48.3764 36.0705 48.3904 36.154C48.3904 36.1541 48.3904 36.1541 48.3904 36.1541L48.4151 36.3023L48.419 36.3262L48.4228 36.3448C48.4233 36.349 48.425 36.3626 48.4286 36.3944L48.4295 36.4031C48.4351 36.4534 48.446 36.5521 48.4676 36.667C48.4789 36.7347 48.4852 36.7747 48.4897 36.8102C48.4928 36.8349 48.4934 36.8465 48.4935 36.8487V36.995L48.5226 37.1406L48.5305 37.18C48.5443 37.3357 48.5615 37.4852 48.5763 37.6131L48.5775 37.624C48.581 37.6537 48.5843 37.6823 48.5874 37.71C45.6143 39.0538 39.3823 41.5 33.4361 41.5H33.3619H33.2878H33.2136H33.1642C27.3106 41.5 21.1597 39.1289 18.1519 37.7754L18.1528 37.7619L18.1545 37.7376L18.1809 37.6584V37.415V37.3839C18.1813 37.3806 18.1818 37.3762 18.1826 37.3705C18.1861 37.3443 18.1922 37.3092 18.2012 37.2643L18.2303 37.1187V36.9701V36.939C18.2385 36.8775 18.2435 36.8268 18.2465 36.7963C18.2469 36.7925 18.2473 36.7889 18.2476 36.7858C18.2518 36.7431 18.2536 36.729 18.2536 36.729C18.2535 36.729 18.2526 36.7353 18.2509 36.7436C18.2749 36.6234 18.2874 36.515 18.2929 36.4677C18.2934 36.4635 18.2938 36.4597 18.2942 36.4565C18.2943 36.4552 18.2945 36.4539 18.2946 36.4527L18.3292 36.3146V36.2257C18.3362 36.1752 18.3407 36.1337 18.3437 36.1065L18.3447 36.0978C18.3482 36.0661 18.3499 36.0525 18.3505 36.0483L18.3602 35.9996L18.367 35.9453C18.3715 35.9091 18.379 35.8687 18.3989 35.7692L18.4013 35.7571C18.4164 35.6819 18.4392 35.5677 18.4576 35.4384L18.5193 35.1299C18.5344 35.0618 18.5492 34.9948 18.5638 34.9288C18.6474 34.5497 18.7236 34.2041 18.8152 33.8729L19.1764 32.6449C19.8204 30.6738 20.7347 28.8973 21.8681 27.3558L21.8885 27.328L21.9077 27.2993L21.9339 27.26C21.9823 27.1955 22.027 27.1365 22.0781 27.0713L22.121 27.0284L22.1698 26.9683L22.458 26.6136C22.5398 26.5237 22.612 26.4322 22.6429 26.3932L22.6432 26.3928Z" stroke="#D3D3D3" stroke-width="3"/>
</svg>
