<svg width="20" height="20" viewBox="0 0 20 20" fill="none" xmlns="http://www.w3.org/2000/svg">
<path d="M18.125 5H15.625C14.5895 5 13.75 5.83945 13.75 6.875V7.5H12.5V0H5.36625L1.25 4.11625V7.5H0V17.5C0 18.8807 1.1193 20 2.5 20H18.125C19.1605 20 20 19.1605 20 18.125V6.875C20 5.83945 19.1605 5 18.125 5ZM5 2.13375V3.75H3.38375L5 2.13375ZM2.5 5H6.25V1.25H11.25V7.5H2.5V5ZM13.75 18.75H2.5C1.80965 18.75 1.25 18.1904 1.25 17.5V8.75H13.75V18.75ZM18.75 18.125C18.75 18.4702 18.4702 18.75 18.125 18.75H15V6.875C15 6.5298 15.2798 6.25 15.625 6.25H18.125C18.4702 6.25 18.75 6.5298 18.75 6.875V18.125Z" fill="#F2F2F2"/>
<path d="M11.875 10H3.125V11.25H11.875V10Z" fill="#F2F2F2"/>
<path d="M4.375 13H3.125V14.25H4.375V13Z" fill="#F2F2F2"/>
<path d="M6.875 13H5.625V14.25H6.875V13Z" fill="#F2F2F2"/>
<path d="M9.375 13H8.125V14.25H9.375V13Z" fill="#F2F2F2"/>
<path d="M11.875 13H10.625V14.25H11.875V13Z" fill="#F2F2F2"/>
<path d="M4.375 15.5H3.125V16.75H4.375V15.5Z" fill="#F2F2F2"/>
<path d="M6.875 15.5H5.625V16.75H6.875V15.5Z" fill="#F2F2F2"/>
<path d="M9.375 15.5H8.125V16.75H9.375V15.5Z" fill="#F2F2F2"/>
<path d="M11.875 15.5H10.625V16.75H11.875V15.5Z" fill="#F2F2F2"/>
</svg>
