<svg width="52" height="50" viewBox="0 0 52 50" fill="none" xmlns="http://www.w3.org/2000/svg">
<path d="M4.57683 27.6436L0.568787 31.6474C-0.206146 32.4217 -0.186861 33.6582 0.612103 34.4092C1.00366 34.7774 1.50961 34.9605 2.01526 34.9605C2.54131 34.9605 3.06695 34.7621 3.46204 34.3674L7.47009 30.3635C8.24502 29.5893 8.22574 28.3528 7.42677 27.6017C6.62781 26.8506 5.35187 26.8694 4.57683 27.6436Z" fill="#D3D3D3"/>
<path d="M13.9064 28.906C12.7934 28.906 11.8909 29.7805 11.8909 30.8591V48.0465C11.8909 49.125 12.7933 49.9996 13.9064 49.9996H13.9065C15.0195 49.9996 15.922 49.1251 15.922 48.0465L15.9218 30.859C15.9218 29.7805 15.0195 28.906 13.9064 28.906Z" fill="#D3D3D3"/>
<path d="M21.7667 24.6094C20.6537 24.6094 19.7512 25.4838 19.7512 26.5625V48.0466C19.7512 49.1252 20.6536 49.9997 21.7667 49.9997C22.8797 49.9997 23.7821 49.1253 23.7821 48.0466V26.5624C23.782 25.4838 22.8797 24.6094 21.7667 24.6094Z" fill="#D3D3D3"/>
<path d="M45.6492 0H39.6029C38.4898 0 37.5874 0.874456 37.5874 1.95312C37.5874 3.03178 38.4898 3.90624 39.6029 3.90624H44.9148L30.1159 18.2446C29.7189 18.6294 29.1993 18.8483 28.6855 18.8483C28.6747 18.8483 28.6637 18.8482 28.6529 18.848C28.158 18.839 27.6523 18.6192 27.2658 18.2445L24.8962 15.9482C23.7362 14.8241 22.1962 14.1724 20.6709 14.1603C20.6561 14.1602 20.6413 14.1602 20.6266 14.1602C19.0478 14.1602 17.4713 14.829 16.2931 15.9996L11.9741 20.204C11.1888 20.9685 11.1916 22.205 11.9805 22.9661C12.3736 23.3455 12.888 23.5351 13.4023 23.5351C13.9196 23.5351 14.4368 23.3432 14.8306 22.9598L19.1575 18.7479C19.1635 18.7423 19.1692 18.7365 19.1751 18.7307C19.5959 18.3106 20.1444 18.0615 20.6379 18.0663C21.1075 18.07 21.6339 18.3107 22.0462 18.7103L24.4157 21.0065C25.5492 22.105 27.0274 22.7255 28.5779 22.7535C30.1903 22.7828 31.791 22.146 32.9663 21.0067L47.6646 6.76571V11.6211C47.6646 12.6997 48.5669 13.5742 49.68 13.5742C50.7931 13.5742 51.6954 12.6997 51.6954 11.6211V5.85936C51.6954 2.62856 48.9831 0 45.6492 0Z" fill="#D3D3D3"/>
<path d="M5.95254 37.6954C4.8368 37.6917 3.93018 38.5673 3.93018 39.6486V48.0469C3.93018 49.1255 4.83256 50 5.94567 50H5.94577C7.05888 50 7.96126 49.1256 7.96126 48.0469V39.6486C7.96116 38.5724 7.06312 37.6991 5.95254 37.6954Z" fill="#D3D3D3"/>
<path d="M45.5481 16.6991C44.4351 16.6991 43.5327 17.5736 43.5327 18.6522V48.0467C43.5327 49.1253 44.4351 49.9998 45.5481 49.9998H45.5482C46.6612 49.9998 47.5636 49.1254 47.5636 48.0467V18.6522C47.5635 17.5735 46.6613 16.6991 45.5481 16.6991Z" fill="#D3D3D3"/>
<path d="M29.6261 27.0504C28.513 27.0504 27.6106 27.9249 27.6106 29.0035V48.0463C27.6106 49.1249 28.513 49.9994 29.6261 49.9994H29.6262C30.7392 49.9994 31.6417 49.125 31.6417 48.0463V29.0035C31.6416 27.9249 30.7393 27.0504 29.6261 27.0504Z" fill="#D3D3D3"/>
<path d="M37.5798 23.3396C36.4696 23.3435 35.5718 24.2169 35.5718 25.2927V48.0467C35.5718 49.1252 36.4741 49.9998 37.5872 49.9998H37.5873C38.7002 49.9998 39.6027 49.1253 39.6027 48.0467V25.2927C39.6025 24.2112 38.6957 23.3356 37.5798 23.3396Z" fill="#D3D3D3"/>
</svg>
