<svg width="14" height="20" viewBox="0 0 14 20" fill="none" xmlns="http://www.w3.org/2000/svg">
<path d="M6.8763 20C6.43974 20 6.0488 19.7736 5.8306 19.3943C5.82829 19.3904 5.82607 19.3863 5.82384 19.3823L0.86439 10.3047C-0.319437 8.1379 -0.285492 5.56599 0.95521 3.4249C2.169 1.33021 4.32493 0.0504882 6.72235 0.00158203C6.82478 -0.000527343 6.92774 -0.000527343 7.03009 0.00158203C9.42755 0.0504882 11.5835 1.33021 12.7973 3.4249C14.038 5.56599 14.072 8.13786 12.8881 10.3047L7.92868 19.3823C7.92645 19.3863 7.92423 19.3904 7.92192 19.3943C7.70376 19.7736 7.31286 20 6.8763 20ZM6.87626 1.25002C6.83333 1.25002 6.79052 1.25045 6.74778 1.25131C4.79079 1.29123 3.02962 2.33806 2.03669 4.05162C1.01689 5.81158 0.988687 7.92513 1.9613 9.70536L6.87626 18.7014L11.7912 9.7054C12.7638 7.92513 12.7356 5.81158 11.7157 4.05162C10.7228 2.3381 8.96165 1.29123 7.00466 1.25131C6.96204 1.25045 6.91919 1.25002 6.87626 1.25002Z" fill="#F2F2F2"/>
<path d="M6.87646 9.06249C5.32564 9.06249 4.06396 7.80082 4.06396 6.25C4.06396 4.69918 5.32564 3.4375 6.87646 3.4375C8.42728 3.4375 9.68896 4.69918 9.68896 6.25C9.68896 7.80082 8.42732 9.06249 6.87646 9.06249ZM6.87646 4.6875C6.0149 4.6875 5.31396 5.38844 5.31396 6.25C5.31396 7.11156 6.0149 7.8125 6.87646 7.8125C7.73802 7.8125 8.43896 7.11156 8.43896 6.25C8.43896 5.38844 7.73802 4.6875 6.87646 4.6875Z" fill="#F2F2F2"/>
</svg>
