<svg width="12" height="20" viewBox="0 0 12 20" fill="none" xmlns="http://www.w3.org/2000/svg">
<path d="M7.98203 5.54796V6.77476H10.2598C10.4317 6.77476 10.5958 6.81774 10.7404 6.89588C11.049 7.06779 11.2405 7.39207 11.2405 7.7437V10.8381C11.2405 11.3733 10.8068 11.807 10.2715 11.807H7.98593V19.0311C7.98593 19.5663 7.55226 20 7.017 20H3.81324C3.27798 20 2.84431 19.5663 2.84431 19.0311V11.807H0.968939C0.433678 11.807 0 11.3733 0 10.8381V7.73979C0 7.20453 0.433678 6.77085 0.968939 6.77085H2.83649V5.21977C2.83649 3.68431 3.32096 2.37546 4.2313 1.43778C5.15335 0.496191 6.43485 0 7.94296 0L10.3848 0.00390701C10.9201 0.00390701 11.3538 0.441492 11.3538 0.972846V3.84841C11.3538 4.38367 10.9201 4.81735 10.3848 4.81735H8.73999C8.23989 4.81735 8.11096 4.91893 8.08361 4.95019C8.03673 5.00098 7.98203 5.14554 7.98203 5.54796Z" fill="#255888"/>
</svg>
