<svg width="20" height="20" viewBox="0 0 20 20" fill="none" xmlns="http://www.w3.org/2000/svg">
<path d="M0.802309 19.1869C0.412533 18.7956 0.413746 18.1625 0.805017 17.7727L17.808 0.834671C18.1993 0.444895 18.8325 0.446107 19.2223 0.837379C19.612 1.22865 19.6108 1.86181 19.2195 2.25159L2.21652 19.1896C1.82525 19.5794 1.19208 19.5782 0.802309 19.1869Z" fill="white"/>
<path d="M19.058 19.1257C18.6667 19.5154 18.0336 19.5142 17.6438 19.123L0.705763 2.11993C0.315987 1.72866 0.3172 1.0955 0.708471 0.705721C1.09974 0.315945 1.73291 0.317158 2.12268 0.708429L19.0607 17.7115C19.4505 18.1027 19.4493 18.7359 19.058 19.1257Z" fill="white"/>
</svg>
