<svg width="59" height="58" viewBox="0 0 59 58" fill="none" xmlns="http://www.w3.org/2000/svg">
<path d="M56.7479 51.2821C59.9425 45.6744 58.6397 38.5713 53.6665 34.459V26.5856H54.8786C55.547 26.5856 56.0908 26.0418 56.0908 25.3734V21.7482H57.303C57.9714 21.7482 58.5151 21.2045 58.5038 20.5361C58.5038 20.1396 58.3112 19.777 57.9827 19.5505L30.1934 0.212413C29.7743 -0.0708042 29.2305 -0.0708042 28.8113 0.212413L1.0221 19.5505C0.478319 19.9356 0.342375 20.6833 0.72755 21.2384C0.954124 21.567 1.31664 21.7596 1.71315 21.7596H2.92531V25.3847C2.92531 26.0531 3.46909 26.5969 4.13748 26.5969H5.34965V45.935H4.12615C3.45776 45.935 2.91398 46.4787 2.91398 47.1471V50.9875C1.47524 51.4747 0.500977 52.8455 0.500977 54.3748V56.7878C0.500977 57.4562 1.04475 58 1.71315 58H57.303C57.9714 58 58.5151 57.4562 58.5151 56.7878V54.3748C58.5038 53.106 57.8354 51.9392 56.7479 51.2821ZM53.6665 24.1612H44.0031V21.7482H53.6665V24.1612ZM51.2534 26.5742V32.873C49.7467 32.1026 48.1041 31.6268 46.4161 31.4682V26.5742H51.2534ZM29.5024 2.68206L53.4399 19.3352H5.5649L29.5024 2.68206ZM16.2139 45.9123H15.0017V26.5742H16.2139C16.8822 26.5742 17.426 26.0305 17.426 25.3621V21.7369H22.252V25.3621C22.252 26.0305 22.7958 26.5742 23.4642 26.5742H24.6764V45.9123H23.4642C22.7958 45.9123 22.252 46.4561 22.252 47.1245V50.7496H17.4147V47.1245C17.4147 46.4561 16.8822 45.9123 16.2139 45.9123ZM24.665 48.3253H32.4365C32.6744 49.1636 32.9916 49.968 33.3881 50.7383H24.665V48.3253ZM27.0894 45.9123V26.5742H31.9267V45.9123H27.0894ZM33.1276 24.1612H24.665V21.7482H34.3284V24.1612H33.1276ZM34.3397 26.5742H35.5519C36.2203 26.5742 36.7641 26.0305 36.7641 25.3621V21.7369H41.6014V25.3621C41.6014 26.0305 42.1452 26.5742 42.8136 26.5742H44.0031V31.4682C40.1174 31.8308 36.5828 33.8812 34.3397 37.0759V26.5742ZM5.33832 21.7482H15.0017V24.1612H5.33832V21.7482ZM12.5887 26.5742V45.9123H7.75133V26.5742H12.5887ZM5.33832 48.3253H15.0017V50.7496H5.33832V48.3253ZM2.91398 55.5757V54.3748C2.91398 53.7064 3.45776 53.1627 4.12615 53.1627H34.9628C35.7218 54.0803 36.6055 54.8959 37.5797 55.5757H2.91398ZM56.0908 55.5757H52.8281C53.7684 54.9186 54.6181 54.1483 55.3658 53.2646C55.8076 53.4572 56.0908 53.8877 56.0908 54.3635V55.5757ZM45.2153 55.5757C39.2111 55.5757 34.3397 50.7043 34.3397 44.7001C34.3397 38.6959 39.2111 33.8246 45.2153 33.8246C51.2195 33.8246 56.0908 38.6959 56.0908 44.7001C56.0908 50.7043 51.2195 55.5757 45.2153 55.5757Z" fill="#D3D3D3"/>
<path d="M43.5725 14.7244L30.2726 5.06104L28.7885 7.0209L39.075 14.4978H17.4146V16.9108H42.7908C43.3346 16.9335 43.833 16.5936 44.003 16.0725C44.1616 15.5854 43.9916 15.0303 43.5725 14.7244Z" fill="#D3D3D3"/>
<path d="M43.9012 38.1409H46.7673V36.8721H49.3389V38.1409H50.8117V39.523H49.3389V49.8094H46.8919V48.6086H46.858C46.2575 49.6282 45.2493 50.0586 44.0145 50.0586C41.1823 50.0586 39.8115 47.6456 39.8115 45.04C39.8115 42.5251 41.205 40.18 43.9578 40.18C45.068 40.18 46.1556 40.6558 46.7333 41.5735H46.7673V39.5117H43.9012V38.1409ZM44.6489 42.1286C42.9609 42.1286 42.3831 43.6013 42.3831 45.1193C42.3831 46.5921 43.0515 48.1214 44.6489 48.1214C46.3368 48.1214 46.858 46.6374 46.858 45.0967C46.858 43.5786 46.3142 42.1286 44.6489 42.1286Z" fill="#D3D3D3"/>
<path d="M39.2339 52.5284V51.6221H50.4833V52.5284H39.2339Z" fill="#D3D3D3"/>
</svg>
