<svg width="20" height="20" viewBox="0 0 20 20" fill="none" xmlns="http://www.w3.org/2000/svg">
<path d="M15.4567 1.36373V4.5472H4.54688V1.36373C4.54688 0.61368 5.16055 0 5.91061 0H14.093C14.8431 0 15.4567 0.61368 15.4567 1.36373Z" fill="#255888"/>
<path d="M4.54688 11.8175V18.6362C4.54688 19.3862 5.16055 19.9999 5.91061 19.9999H14.093C14.8431 19.9999 15.4567 19.3862 15.4567 18.6362V11.8175H4.54688ZM6.81834 13.6372H8.63807C8.88951 13.6372 9.09407 13.8418 9.09407 14.0932C9.09407 14.3447 8.88951 14.5492 8.63807 14.5492H6.81834C6.56691 14.5492 6.36235 14.3447 6.36235 14.0932C6.36235 13.8418 6.56691 13.6372 6.81834 13.6372ZM12.2733 18.1844H6.81834C6.56691 18.1844 6.36235 17.9799 6.36235 17.7284C6.36235 17.477 6.56691 17.2724 6.81834 17.2724H12.2733C12.5247 17.2724 12.7293 17.477 12.7293 17.7284C12.7293 17.9799 12.5247 18.1844 12.2733 18.1844ZM12.2733 16.3647H6.81834C6.56691 16.3647 6.36235 16.1601 6.36235 15.9087C6.36235 15.6573 6.56691 15.4527 6.81834 15.4527H12.2733C12.5247 15.4527 12.7293 15.6573 12.7293 15.9087C12.7293 16.1601 12.5247 16.3647 12.2733 16.3647Z" fill="#255888"/>
<path d="M12.7292 17.7285C12.7292 17.9799 12.5247 18.1845 12.2732 18.1845H6.8183C6.56686 18.1845 6.3623 17.9799 6.3623 17.7285C6.3623 17.477 6.56686 17.2725 6.8183 17.2725H12.2732C12.5247 17.2725 12.7292 17.477 12.7292 17.7285Z" fill="white"/>
<path d="M12.7292 15.9088C12.7292 16.1602 12.5247 16.3648 12.2732 16.3648H6.8183C6.56686 16.3648 6.3623 16.1602 6.3623 15.9088C6.3623 15.6573 6.56686 15.4528 6.8183 15.4528H12.2732C12.5247 15.457 12.7292 15.6616 12.7292 15.9088Z" fill="white"/>
<path d="M9.08977 14.0933C9.08977 14.3448 8.88521 14.5493 8.63377 14.5493H6.8183C6.56686 14.5493 6.3623 14.3448 6.3623 14.0933C6.3623 13.8419 6.56686 13.6373 6.8183 13.6373H8.63803C8.88947 13.6373 9.08977 13.8419 9.08977 14.0933Z" fill="white"/>
<path d="M20 6.81869V13.1814C20 13.9314 19.3863 14.5451 18.6363 14.5451H16.3648V11.3616C16.3648 11.1102 16.1602 10.9056 15.9088 10.9056H4.0912C3.83976 10.9056 3.6352 11.1102 3.6352 11.3616V14.5451H1.36373C0.61368 14.5451 0 13.9314 0 13.1814V6.81869C0 6.06864 0.61368 5.45496 1.36373 5.45496H18.6363C19.3906 5.45496 20 6.06864 20 6.81869Z" fill="#255888"/>
</svg>
