<svg width="45" height="45" viewBox="0 0 45 45" fill="none" xmlns="http://www.w3.org/2000/svg">
<path d="M15.8715 29.0067C14.576 29.7546 12.9135 29.3092 12.1656 28.0137C11.4176 26.7181 11.863 25.0557 13.1586 24.3077C14.4542 23.5597 16.1166 24.0052 16.8645 25.3007C17.6125 26.5963 17.1671 28.2587 15.8715 29.0067ZM13.7571 25.3443C13.0331 25.7623 12.7841 26.6913 13.2021 27.4153C13.6201 28.1393 14.5492 28.3882 15.2731 27.9702C15.9971 27.5522 16.246 26.6232 15.828 25.8992C15.4101 25.1752 14.481 24.9263 13.7571 25.3443Z" fill="url(#paint0_linear)"/>
<path d="M31.3503 20.07C30.0548 20.818 28.3923 20.3726 27.6443 19.077C26.8963 17.7815 27.3418 16.119 28.6373 15.3711C29.9328 14.6231 31.5953 15.0685 32.3433 16.3641C33.0913 17.6596 32.6458 19.3221 31.3503 20.07ZM29.2358 16.4077C28.5119 16.8256 28.2629 17.7546 28.6809 18.4786C29.0989 19.2026 30.0279 19.4516 30.7519 19.0336C31.4759 18.6156 31.7248 17.6865 31.3068 16.9626C30.8887 16.2386 29.9598 15.9897 29.2358 16.4077Z" fill="url(#paint1_linear)"/>
<path d="M32.4487 16.5677C32.5324 16.746 32.5942 16.9297 32.6371 17.1158L31.5073 17.7682C31.5163 17.4949 31.4531 17.2162 31.3067 16.9626C30.9795 16.396 30.3396 16.1205 29.7297 16.2276C29.5598 16.2574 29.3933 16.3167 29.2357 16.4077C29.0098 16.5382 28.8307 16.718 28.7031 16.9262L27.6181 16.4129C27.8137 16.0559 28.0918 15.7396 28.4442 15.4947L32.4487 16.5677Z" fill="url(#paint2_linear)"/>
<path d="M15.828 25.8991C15.9745 26.1529 16.0375 26.4316 16.0284 26.7048L17.1597 26.0517C17.1009 25.7942 17.0033 25.5411 16.8645 25.3007C16.373 24.4494 15.4874 23.9656 14.57 23.9452L14.4724 25.1422C15.0102 25.1275 15.5404 25.4009 15.828 25.8991Z" fill="url(#paint3_linear)"/>
<path d="M42.2891 29.7861L18.8167 43.3379C17.4748 44.1126 15.759 43.6528 14.9843 42.3111L9.45159 32.7281C8.67685 31.3862 9.13665 29.6704 10.4785 28.8957L33.9509 15.3439C35.2928 14.5692 37.0085 15.029 37.7832 16.3708L43.3159 25.9538C44.0906 27.2956 43.6309 29.0114 42.2891 29.7861Z" fill="#FFBB00"/>
<path d="M29.4951 17.015C29.3307 17.1099 29.1239 17.1252 28.9394 17.0379L15.6495 10.7485L14.4512 25.4026C14.4243 25.732 14.1354 25.9773 13.806 25.9503C13.4766 25.9233 13.2313 25.6345 13.2583 25.3051L14.5976 8.92658L29.4514 15.9561C29.7501 16.0975 29.8777 16.4543 29.7363 16.753C29.6822 16.8671 29.5967 16.9563 29.4951 17.015Z" fill="url(#paint4_linear)"/>
<path d="M20.0888 11.5245L19.7737 12.7005L15.6495 10.7485L15.648 10.765L14.492 10.2181L14.5975 8.92628L20.0888 11.5245Z" fill="url(#paint5_linear)"/>
<path d="M16.2427 11.7763C17.2361 11.2027 17.5765 9.93243 17.0029 8.93902C16.4294 7.94561 15.1591 7.60524 14.1657 8.17879C13.1723 8.75233 12.8319 10.0226 13.4054 11.016C13.979 12.0094 15.2493 12.3498 16.2427 11.7763Z" fill="url(#paint6_linear)"/>
<path d="M15.969 9.13822L15.3299 9.50799L14.9602 8.86894C14.8651 8.70462 14.6549 8.64852 14.4906 8.74358C14.3263 8.83865 14.2701 9.04885 14.3652 9.21318L14.735 9.85222L14.0959 10.222C13.9316 10.3171 13.8755 10.5273 13.9706 10.6916C14.0657 10.8559 14.2759 10.912 14.4402 10.8169L15.0792 10.4472L15.449 11.0862C15.5441 11.2506 15.7543 11.3067 15.9186 11.2116C16.0829 11.1165 16.139 10.9063 16.0439 10.742L15.6742 10.1029L16.3132 9.73317C16.4776 9.63808 16.5337 9.42785 16.4386 9.26358C16.3435 9.09925 16.1333 9.04316 15.969 9.13822Z" fill="url(#paint7_linear)"/>
<path d="M17.3332 29.4088L23.2834 33.9726L22.1306 26.5628L23.3854 25.8184L27.7381 33.1558L26.7706 33.7297L25.0755 30.8724L23.3367 27.7345L24.4525 35.1049L23.7117 35.5444L17.7923 31.044L19.7086 34.0562L21.4036 36.9135L20.4361 37.4875L16.0834 30.1502L17.3332 29.4088ZM27.4062 29.5988C27.0893 29.0646 26.9078 28.5251 26.8616 27.9802C26.8168 27.43 26.9138 26.9274 27.1525 26.4723C27.3926 26.012 27.7529 25.6393 28.2333 25.3543C28.9288 24.9417 29.6424 24.8317 30.3744 25.0243C30.597 24.8559 30.7122 24.6559 30.72 24.4241C30.7279 24.1924 30.6043 23.8615 30.3492 23.4314L31.1051 22.983C31.685 23.9607 31.6781 24.7414 31.0843 25.3253C31.6046 25.6434 32.0332 26.0864 32.37 26.6542L32.4357 26.765C32.7506 27.2958 32.9305 27.8364 32.9753 28.3866C33.0201 28.9368 32.9232 29.4395 32.6844 29.8945C32.4436 30.3462 32.0814 30.7155 31.5976 31.0025C30.8518 31.4449 30.0979 31.5447 29.3361 31.3017C28.5757 31.0534 27.9453 30.5076 27.4451 29.6643L27.4062 29.5988ZM28.4043 29.1566C28.763 29.7613 29.1904 30.1641 29.6865 30.3649C30.1859 30.5637 30.6725 30.5225 31.1462 30.2415C31.6132 29.9645 31.8775 29.5602 31.9391 29.0286C32.0021 28.4916 31.8492 27.9124 31.4805 27.2908L31.4327 27.2102C31.0719 26.6021 30.6402 26.1997 30.1374 26.0029C29.6379 25.8041 29.1547 25.8432 28.6877 26.1203C28.2241 26.3953 27.9598 26.7996 27.8948 27.3332C27.8299 27.8668 27.9997 28.4746 28.4043 29.1566ZM27.3945 22.8951L28.5233 22.2255L28.0516 24.5083L27.3008 24.9537L27.3945 22.8951ZM36.2093 28.1304L35.277 28.6835L32.0424 23.2309L32.9747 22.6778L36.2093 28.1304ZM31.1088 21.8294C31.0191 21.6783 30.9888 21.5237 31.0177 21.3657C31.05 21.2058 31.1568 21.072 31.3382 20.9644C31.5197 20.8567 31.6883 20.8271 31.8442 20.8755C32 20.9238 32.1228 21.0236 32.2125 21.1747C32.3021 21.3259 32.3298 21.4798 32.2956 21.6364C32.2613 21.793 32.1534 21.9251 31.972 22.0327C31.7906 22.1403 31.623 22.1717 31.4691 22.1267C31.3186 22.0797 31.1985 21.9806 31.1088 21.8294Z" fill="white"/>
<defs>
<linearGradient id="paint0_linear" x1="12.1657" y1="28.014" x2="16.8645" y2="25.3012" gradientUnits="userSpaceOnUse">
<stop stop-color="#FFE7A5"/>
<stop offset="0.966" stop-color="#FFBF5C"/>
</linearGradient>
<linearGradient id="paint1_linear" x1="27.6441" y1="19.0776" x2="32.3429" y2="16.3647" gradientUnits="userSpaceOnUse">
<stop stop-color="#FFE7A5"/>
<stop offset="0.966" stop-color="#FFBF5C"/>
</linearGradient>
<linearGradient id="paint2_linear" x1="32.7092" y1="17.3645" x2="28.0243" y2="16.1092" gradientUnits="userSpaceOnUse">
<stop stop-color="#FF5D00" stop-opacity="0"/>
<stop offset="1" stop-color="#D54003"/>
</linearGradient>
<linearGradient id="paint3_linear" x1="17.1644" y1="25.7848" x2="13.9866" y2="24.9333" gradientUnits="userSpaceOnUse">
<stop stop-color="#FF5D00" stop-opacity="0"/>
<stop offset="1" stop-color="#D54003"/>
</linearGradient>
<linearGradient id="paint4_linear" x1="10.0225" y1="19.9134" x2="26.3993" y2="10.4582" gradientUnits="userSpaceOnUse">
<stop stop-color="#FF7BAC"/>
<stop offset="1" stop-color="#E24786"/>
</linearGradient>
<linearGradient id="paint5_linear" x1="19.2142" y1="11.7482" x2="17.4303" y2="10.9268" gradientUnits="userSpaceOnUse">
<stop stop-color="#FF7BAC" stop-opacity="0"/>
<stop offset="1" stop-color="#E24786"/>
</linearGradient>
<linearGradient id="paint6_linear" x1="14.2023" y1="8.24671" x2="16.5848" y2="12.3645" gradientUnits="userSpaceOnUse">
<stop stop-color="#E2EDF2"/>
<stop offset="1" stop-color="#BDCCD4"/>
</linearGradient>
<linearGradient id="paint7_linear" x1="15.4914" y1="10.4738" x2="14.3667" y2="8.53084" gradientUnits="userSpaceOnUse">
<stop stop-color="#E2EDF2"/>
<stop offset="1" stop-color="#BDCCD4"/>
</linearGradient>
</defs>
</svg>
