<svg width="13" height="16" viewBox="0 0 13 16" fill="none" xmlns="http://www.w3.org/2000/svg">
<path d="M1.09437 8.65719L0.136003 9.911C-0.0492918 10.1535 -0.0446805 10.5407 0.14636 10.7759C0.239985 10.8912 0.360964 10.9485 0.481871 10.9485C0.607654 10.9485 0.733341 10.8863 0.827811 10.7627L1.78618 9.50894C1.97147 9.26648 1.96686 8.87928 1.77582 8.64408C1.58478 8.40885 1.27969 8.41474 1.09437 8.65719Z" fill="white"/>
<path d="M3.32519 9.05225C3.05906 9.05225 2.84326 9.32609 2.84326 9.66388V15.0463C2.84326 15.3841 3.05903 15.658 3.32519 15.658H3.32521C3.59134 15.658 3.80714 15.3841 3.80714 15.0463L3.80709 9.66385C3.80709 9.32609 3.59134 9.05225 3.32519 9.05225Z" fill="white"/>
<path d="M5.20454 7.70654C4.93843 7.70654 4.72266 7.98038 4.72266 8.31817V15.0461C4.72266 15.3838 4.93841 15.6577 5.20454 15.6577C5.47068 15.6577 5.68643 15.3839 5.68643 15.0461V8.31814C5.68641 7.98038 5.47068 7.70654 5.20454 7.70654Z" fill="white"/>
<path d="M10.9153 0H9.46952C9.20337 0 8.98761 0.27384 8.98761 0.611628C8.98761 0.949416 9.20337 1.22326 9.46952 1.22326H10.7397L7.20107 5.71338C7.10614 5.83389 6.98191 5.90244 6.85904 5.90244C6.85646 5.90244 6.85383 5.90241 6.85125 5.90234C6.73292 5.89953 6.61199 5.83067 6.51958 5.71335L5.953 4.99426C5.67562 4.64223 5.3074 4.43816 4.94267 4.43436C4.93913 4.43433 4.9356 4.43433 4.93208 4.43433C4.55458 4.43433 4.17762 4.64376 3.8959 5.01035L2.86317 6.32697C2.67539 6.56637 2.67607 6.95361 2.86469 7.19194C2.9587 7.31073 3.08169 7.37012 3.20467 7.37012C3.32835 7.37012 3.45204 7.31003 3.54619 7.18998L4.5808 5.871C4.58222 5.86922 4.5836 5.86741 4.585 5.86561C4.68563 5.73406 4.81677 5.65605 4.93478 5.65755C5.04707 5.65872 5.17295 5.73409 5.27152 5.8592L5.8381 6.57829C6.10913 6.9223 6.46257 7.11659 6.83333 7.12536C7.21887 7.13455 7.6016 6.9351 7.88264 6.57835L11.3972 2.11871V3.63919C11.3972 3.97698 11.6129 4.25082 11.8791 4.25082C12.1452 4.25082 12.361 3.97698 12.361 3.63919V1.83488C12.361 0.823144 11.7124 0 10.9153 0Z" fill="white"/>
<path d="M1.42363 11.8047C1.15685 11.8035 0.940063 12.0777 0.940063 12.4163V15.0463C0.940063 15.3841 1.15583 15.658 1.42199 15.658H1.42201C1.68817 15.658 1.90394 15.3841 1.90394 15.0463V12.4163C1.90391 12.0793 1.68918 11.8058 1.42363 11.8047Z" fill="white"/>
<path d="M10.8911 5.22949C10.6249 5.22949 10.4092 5.50334 10.4092 5.84113V15.0463C10.4092 15.3841 10.6249 15.658 10.8911 15.658H10.8911C11.1573 15.658 11.3731 15.3841 11.3731 15.0463V5.84113C11.373 5.50331 11.1573 5.22949 10.8911 5.22949Z" fill="white"/>
<path d="M7.08395 8.47144C6.81781 8.47144 6.60205 8.74526 6.60205 9.08303V15.0461C6.60205 15.3839 6.81781 15.6577 7.08395 15.6577H7.08398C7.35009 15.6577 7.56588 15.3839 7.56588 15.0461V9.08303C7.56585 8.74526 7.35012 8.47144 7.08395 8.47144Z" fill="white"/>
<path d="M8.98612 7.30933C8.72065 7.31056 8.50598 7.58406 8.50598 7.92095V15.0463C8.50598 15.3841 8.72174 15.658 8.98788 15.658H8.98791C9.25402 15.658 9.46981 15.3841 9.46981 15.0463V7.92095C9.46976 7.58228 9.25294 7.30807 8.98612 7.30933Z" fill="white"/>
</svg>
