<svg width="22" height="22" viewBox="0 0 22 22" fill="none" xmlns="http://www.w3.org/2000/svg">
<circle cx="11" cy="11" r="10.5" stroke="#255888"/>
<path d="M16.4528 16.4527C16.1505 16.755 15.6604 16.755 15.3582 16.4527L12.3305 13.4245C10.3639 14.8225 7.65404 14.4805 6.09648 12.6378C4.53893 10.795 4.65329 8.06625 6.35958 6.36027C8.06542 4.65354 10.7946 4.53868 12.6379 6.09606C14.4811 7.65343 14.8233 10.3634 13.425 12.33L16.4528 15.3582C16.755 15.6605 16.755 16.1505 16.4528 16.4527ZM9.6409 6.54744C8.17406 6.54711 6.90855 7.5767 6.61057 9.01287C6.3126 10.449 7.06405 11.8971 8.40997 12.4802C9.75589 13.0634 11.3264 12.6215 12.1705 11.422C13.5868 9.4096 12.0663 6.54091 9.6409 6.54744Z" fill="#255888"/>
</svg>
