<svg width="20" height="20" viewBox="0 0 20 20" fill="none" xmlns="http://www.w3.org/2000/svg">
<path d="M18.9352 8.78182L10.0359 0.189532C9.77666 -0.0631773 9.36316 -0.0631773 9.10391 0.189532L0.204986 8.78148C0.073976 8.90792 0 9.08217 0 9.26426C0 9.63485 0.300433 9.93524 0.670984 9.93524H1.85359V19.329C1.85359 19.6996 2.15398 20 2.52458 20H7.22147C7.59206 20 7.89245 19.6996 7.89245 19.329V13.9611H11.2474V19.329C11.2474 19.6996 11.5478 20 11.9184 20H16.6152C16.9858 20 17.2862 19.6996 17.2862 19.329V9.93524H18.4688C18.6508 9.93524 18.8248 9.86139 18.9513 9.73059C19.2088 9.46412 19.2016 9.03935 18.9352 8.78182ZM17.2862 9.26426C16.9156 9.26426 16.6152 9.56465 16.6152 9.93524V19.329H11.9184V13.9611C11.9184 13.5906 11.618 13.2902 11.2474 13.2902H7.89245C7.52186 13.2902 7.22147 13.5906 7.22147 13.9611V19.329H2.52458V9.93524C2.52458 9.56465 2.22419 9.26426 1.85359 9.26426H0.670984L9.56991 0.672305L18.4722 9.26426H17.2862Z" fill="white"/>
</svg>
