<svg width="60" height="51" viewBox="0 0 60 51" fill="none" xmlns="http://www.w3.org/2000/svg">
<path d="M22.8751 41.0118C20.9418 43.5794 18.2418 46.6043 14.4752 50.1216L0.708546 27.7867C-0.258117 26.1336 -0.224784 24.0584 0.74188 22.4404L5.0752 15.0892C3.30854 18.4307 0.175215 26.415 7.87519 30.8468C17.8085 36.5448 21.2418 38.5145 21.2418 38.5145L22.8751 41.0118Z" fill="#C2C2C2"/>
<path d="M59.2752 27.7515L48.3752 46.147C46.9086 48.6092 44.3419 50.1216 41.5753 50.1216H32.1753L46.1419 27.2943C46.9752 25.9225 46.9752 24.1991 46.1419 22.8273L37.1086 9.10982C38.9419 6.68288 41.4419 3.86904 44.9086 0.562769C45.1086 0.386904 45.3086 0.175865 45.5086 0L59.2752 22.3701C60.2419 24.0584 60.2419 26.1336 59.2752 27.7515Z" fill="#C2C2C2"/>
<path d="M34.5418 41.7856C34.8085 41.3283 39.0084 34.2234 30.3418 25.0784C21.3418 15.5817 24.1085 9.60224 24.7085 8.58222C24.7085 8.54705 24.7418 8.54705 24.7418 8.51187C24.7752 8.4767 24.7752 8.44153 24.8085 8.44153C24.7752 8.72291 23.9085 14.3506 32.4418 22.0183C42.9084 31.4095 34.9418 41.2932 34.5418 41.7856Z" fill="#C2C2C2"/>
<path d="M34.5415 41.7855C34.5415 41.8207 36.3415 36.5799 27.8416 29.2991C23.3416 25.4652 17.7083 18.8175 24.7416 8.547C24.1416 9.60219 21.3416 15.5464 30.3416 25.0432C39.0082 34.1881 34.8082 41.3283 34.5415 41.7855Z" fill="white"/>
<path d="M45.5083 0.0351562C45.3083 0.211021 45.1083 0.42206 44.9083 0.597925C41.4417 3.86902 38.9084 6.71803 37.1084 9.14497C31.0751 17.1293 32.7084 20.6466 32.7751 20.7873C32.6084 20.7169 28.7417 18.8176 30.0751 13.9637C31.7084 8.05461 40.4084 0.0351562 40.4084 0.0351562H45.5083Z" fill="white"/>
<path d="M37.8417 0.0351562H34.7751C34.7751 0.0351562 28.6084 5.62767 27.8418 11.783C27.8418 11.783 27.4418 15.054 29.3418 17.1996C29.3418 17.1996 26.7418 10.165 37.8417 0.0351562Z" fill="white"/>
<path d="M33.2417 0.0351562H30.3417C30.3417 0.0351562 26.2417 4.95938 26.2417 9.6374C26.2417 12.0292 27.2417 12.9437 27.2417 12.9437C27.2417 12.9437 26.3084 6.61252 33.2417 0.0351562Z" fill="white"/>
<path d="M29.8417 36.2282C28.2084 42.1373 19.5084 50.1568 19.5084 50.1568H14.5084L14.4751 50.1216C18.2751 46.6043 20.9751 43.5794 22.8751 41.0118C28.8417 33.0275 27.2417 29.5805 27.1751 29.4047C27.3417 29.475 31.175 31.3744 29.8417 36.2282Z" fill="white"/>
<path d="M14.5086 50.1536H14.4419L14.4752 50.1216L14.5086 50.1536Z" fill="white"/>
<path d="M22.1084 50.1567H25.1751C25.1751 50.1567 31.3417 44.5642 32.1084 38.409C32.1084 38.409 32.5084 35.1379 30.6084 32.9923C30.6084 32.9923 33.2084 40.0269 22.1084 50.1567Z" fill="white"/>
<path d="M26.7085 50.1568H29.6085C29.6085 50.1568 33.7085 45.2326 33.7085 40.5546C33.7085 38.1628 32.7085 37.2483 32.7085 37.2483C32.7085 37.2483 33.6418 43.5794 26.7085 50.1568Z" fill="white"/>
<path d="M13.8754 27.3294L21.2754 38.5145C21.2754 38.5145 17.8754 36.5448 7.90874 30.8467C0.175436 26.4149 3.30876 18.4307 5.07542 15.0892L5.87542 13.7526C5.90875 13.7175 5.90875 13.6823 5.94208 13.6471C5.97542 13.5768 6.00875 13.5416 6.00875 13.5416L11.6421 4.00971C13.1087 1.5476 15.6754 0.0351562 18.442 0.0351562H27.842L13.8754 22.8625C13.4087 23.6363 13.2087 24.5508 13.2754 25.4301C13.3087 26.0984 13.5087 26.7667 13.8754 27.3294Z" fill="#C2C2C2"/>
<path d="M5.8752 13.7527L5.0752 15.0893C5.40853 14.4561 5.70853 13.9989 5.8752 13.7527Z" fill="white"/>
<path d="M13.8754 27.3294L21.2754 38.5145C21.2754 38.5145 17.8754 36.5448 7.90874 30.8467C0.175436 26.4149 3.30876 18.4307 5.07542 15.0892L5.87542 13.7526C5.90875 13.7175 5.90875 13.6823 5.94208 13.6471C5.97542 13.5768 6.00875 13.5416 6.00875 13.5416L11.6421 4.00971C13.1087 1.5476 15.6754 0.0351562 18.442 0.0351562H27.842L13.8754 22.8625C13.4087 23.6363 13.2087 24.5508 13.2754 25.4301C13.3087 26.0984 13.5087 26.7667 13.8754 27.3294Z" fill="white"/>
<path d="M46.1419 22.8625L38.7753 11.6423C38.7753 11.6423 42.1753 13.612 52.1419 19.3101C59.8752 23.7419 56.7419 31.7261 54.9419 35.1028L54.1419 36.4393C54.1086 36.4745 54.1086 36.5097 54.0752 36.5449C54.0419 36.6152 54.0086 36.6504 54.0086 36.6504L48.3752 46.1823C46.9086 48.6444 44.3419 50.1568 41.5753 50.1568H32.1753L46.1419 27.3295C46.6086 26.5557 46.8086 25.6412 46.7419 24.7619C46.7086 24.0936 46.5086 23.4253 46.1419 22.8625Z" fill="white"/>
</svg>
