<svg width="222" height="40" viewBox="0 0 222 40" fill="none" xmlns="http://www.w3.org/2000/svg">
<path d="M15.8531 31.4222C14.5132 33.2016 12.6421 35.2979 10.0317 37.7355L0.491042 22.2568C-0.178882 21.1112 -0.155781 19.673 0.514143 18.5517L3.51725 13.4572C2.29291 15.7729 0.121429 21.3062 5.45772 24.3775C12.3418 28.3264 14.7212 29.6915 14.7212 29.6915L15.8531 31.4222Z" fill="#D3D3D3"/>
<path d="M41.0793 22.2326L33.5253 34.9812C32.5089 36.6875 30.7301 37.7356 28.8128 37.7356H22.2983L31.9776 21.9157C32.5551 20.965 32.5551 19.7706 31.9776 18.8199L25.7173 9.31335C26.9878 7.63142 28.7204 5.68135 31.1229 3.39001C31.2615 3.26813 31.4001 3.12188 31.5387 3L41.0793 18.5031C41.7492 19.6731 41.7492 21.1113 41.0793 22.2326Z" fill="#D3D3D3"/>
<path d="M23.9381 31.9587C24.1229 31.6418 27.0336 26.7179 21.0274 20.3801C14.7902 13.7986 16.7076 9.65475 17.1234 8.94785C17.1234 8.92347 17.1465 8.92347 17.1465 8.89909C17.1696 8.87472 17.1696 8.85034 17.1927 8.85034C17.1696 9.04535 16.5689 12.9455 22.4828 18.2594C29.7364 24.7678 24.2153 31.6174 23.9381 31.9587Z" fill="#D3D3D3"/>
<path d="M23.9383 31.9585C23.9383 31.9829 25.1857 28.3509 19.295 23.3051C16.1764 20.6481 12.2723 16.0411 17.1466 8.92334C16.7308 9.65462 14.7903 13.7741 21.0275 20.3556C27.0338 26.6934 24.1231 31.6417 23.9383 31.9585Z" fill="white"/>
<path d="M31.5386 3.02429C31.4 3.14617 31.2614 3.29243 31.1228 3.41431C28.7203 5.68126 26.9646 7.65571 25.7172 9.33764C21.5359 14.871 22.6679 17.3086 22.7141 17.4061C22.5986 17.3573 19.9189 16.041 20.8429 12.6771C21.9748 8.58199 28.0041 3.02429 28.0041 3.02429H31.5386Z" fill="white"/>
<path d="M26.2251 3.02429H24.0998C24.0998 3.02429 19.8262 6.90006 19.2948 11.1658C19.2948 11.1658 19.0176 13.4328 20.3344 14.9197C20.3344 14.9197 18.5325 10.0445 26.2251 3.02429Z" fill="white"/>
<path d="M23.0372 3.02429H21.0274C21.0274 3.02429 18.186 6.43692 18.186 9.67891C18.186 11.3365 18.8791 11.9702 18.8791 11.9702C18.8791 11.9702 18.2322 7.58258 23.0372 3.02429Z" fill="white"/>
<path d="M20.6812 28.1071C19.5493 32.2022 13.52 37.7599 13.52 37.7599H10.0548L10.0317 37.7356C12.6652 35.298 14.5364 33.2016 15.8531 31.4222C19.9882 25.8889 18.8794 23.5001 18.8332 23.3782C18.9487 23.4269 21.6053 24.7432 20.6812 28.1071Z" fill="white"/>
<path d="M10.0562 37.7588H10.0083L10.0323 37.7357L10.0562 37.7588Z" fill="white"/>
<path d="M15.3218 37.7599H17.4471C17.4471 37.7599 21.7207 33.8842 22.252 29.6184C22.252 29.6184 22.5292 27.3514 21.2125 25.8645C21.2125 25.8645 23.0143 30.7397 15.3218 37.7599Z" fill="white"/>
<path d="M18.5098 37.76H20.5195C20.5195 37.76 23.3609 34.3474 23.3609 31.1054C23.3609 29.4479 22.6679 28.8141 22.6679 28.8141C22.6679 28.8141 23.3147 33.2017 18.5098 37.76Z" fill="white"/>
<path d="M9.61613 21.94L14.7445 29.6915C14.7445 29.6915 12.3882 28.3265 5.48108 24.3776C0.12169 21.3062 2.29317 15.7729 3.51751 13.4572L4.07193 12.5309C4.09503 12.5065 4.09503 12.4821 4.11813 12.4578C4.14123 12.409 4.16434 12.3846 4.16434 12.3846L8.06838 5.77877C9.08481 4.07245 10.8636 3.02429 12.7809 3.02429H19.2954L9.61613 18.8442C9.29272 19.3805 9.15412 20.0143 9.20032 20.6237C9.22342 21.0868 9.36202 21.55 9.61613 21.94Z" fill="#D3D3D3"/>
<path d="M4.07151 12.5309L3.51709 13.4572C3.7481 13.0184 3.95601 12.7015 4.07151 12.5309Z" fill="white"/>
<path d="M9.61613 21.94L14.7445 29.6915C14.7445 29.6915 12.3882 28.3265 5.48108 24.3776C0.12169 21.3062 2.29317 15.7729 3.51751 13.4572L4.07193 12.5309C4.09503 12.5065 4.09503 12.4821 4.11813 12.4578C4.14123 12.409 4.16434 12.3846 4.16434 12.3846L8.06838 5.77877C9.08481 4.07245 10.8636 3.02429 12.7809 3.02429H19.2954L9.61613 18.8442C9.29272 19.3805 9.15412 20.0143 9.20032 20.6237C9.22342 21.0868 9.36202 21.55 9.61613 21.94Z" fill="white"/>
<path d="M31.9776 18.8444L26.8723 11.0685C26.8723 11.0685 29.2286 12.4335 36.1357 16.3824C41.4951 19.4538 39.3237 24.9871 38.0762 27.3272L37.5218 28.2535C37.4987 28.2779 37.4987 28.3022 37.4756 28.3266C37.4525 28.3754 37.4294 28.3997 37.4294 28.3997L33.5253 35.0056C32.5089 36.7119 30.7301 37.7601 28.8128 37.7601H22.2983L31.9776 21.9401C32.301 21.4039 32.4396 20.7701 32.3934 20.1607C32.3703 19.6975 32.2317 19.2344 31.9776 18.8444Z" fill="white"/>
<path d="M56.1332 5.11287V14.878H53.9549V5.11287H51.583V3.20837H58.4866V5.11287H56.1332Z" fill="white"/>
<path d="M65.9023 14.878L64.4919 11.2985C64.3664 10.9784 64.1709 10.6904 63.9196 10.4557C63.6573 10.2359 63.3212 10.1239 62.9794 10.1425H62.1535V14.878H59.999V3.6481C60.4963 3.429 61.0184 3.27146 61.5539 3.179C62.1525 3.07115 62.7596 3.0175 63.3679 3.01869C64.5011 2.93452 65.6261 3.26649 66.532 3.95238C66.8892 4.27616 67.17 4.67531 67.3539 5.12094C67.5379 5.56656 67.6205 6.04751 67.5957 6.52898C67.6019 6.90716 67.5417 7.28349 67.4177 7.64082C67.2072 8.24458 66.7842 8.7511 66.2276 9.06582C65.9659 9.22075 65.6867 9.34416 65.396 9.4335V9.46143C65.7004 9.63629 65.962 9.87698 66.1614 10.1659C66.3802 10.4788 66.5613 10.8164 66.7008 11.1718L68.2015 14.878H65.9023ZM65.4441 6.66444C65.4616 6.40705 65.4276 6.14877 65.3443 5.90462C65.261 5.66046 65.1299 5.43533 64.9588 5.2423C64.7476 5.05895 64.5016 4.92015 64.2355 4.83424C63.9694 4.74832 63.6887 4.71706 63.4102 4.74232C63.1791 4.74204 62.9483 4.76022 62.7201 4.79669C62.5282 4.82638 62.3387 4.87063 62.1535 4.92906V8.52624H63.3198C63.8827 8.56415 64.4412 8.40436 64.8988 8.07446C65.0907 7.89619 65.2396 7.6766 65.334 7.43231C65.4285 7.18802 65.4662 6.92543 65.4441 6.66444Z" fill="white"/>
<path d="M76.9519 12.9677C76.7681 13.3981 76.4936 13.7839 76.1471 14.0985C75.7912 14.4093 75.3775 14.6467 74.9297 14.7972C73.9407 15.1187 72.8752 15.1187 71.8862 14.7972C71.4434 14.6457 71.0348 14.4083 70.6839 14.0985C70.3359 13.784 70.0595 13.3984 69.8737 12.9677C69.6755 12.4804 69.5782 11.9581 69.5875 11.4323V3.20837H71.7781V11.45C71.7667 11.6731 71.8033 11.8962 71.8855 12.104C71.9676 12.3118 72.0933 12.4996 72.2542 12.6547C72.5731 12.938 72.9848 13.0944 73.4114 13.0944C73.8379 13.0944 74.2497 12.938 74.5686 12.6547C74.731 12.5006 74.858 12.3131 74.9407 12.105C75.0234 11.897 75.0599 11.6735 75.0477 11.45V3.20837H77.2444V11.4323C77.253 11.9587 77.1534 12.4813 76.9519 12.9677Z" fill="white"/>
<path d="M85.8228 14.878L81.8334 7.96009C81.7311 7.80631 81.6405 7.64507 81.5623 7.47773C81.4811 7.31592 81.4086 7.1733 81.3605 7.04974C81.2943 6.89681 81.2307 6.74238 81.1737 6.59239H81.1314C81.1314 6.74238 81.1373 6.90562 81.1524 7.08061C81.1524 7.22767 81.1557 7.38798 81.1616 7.56892C81.1674 7.74986 81.1737 7.93034 81.1737 8.11158V14.878H79.2993V3.20837H81.1737L85.0849 9.94251C85.1752 10.1058 85.2595 10.269 85.332 10.4307C85.4103 10.5881 85.4857 10.7352 85.5548 10.8646C85.6272 11.019 85.6996 11.1658 85.757 11.3176H85.793C85.7809 11.1661 85.778 11.0013 85.778 10.8175C85.7687 10.666 85.757 10.4969 85.757 10.3102V3.20837H87.631V14.878H85.8228Z" fill="white"/>
<path d="M96.2761 14.8883C95.6788 15.0215 95.0681 15.0852 94.4561 15.078C93.7283 15.0864 93.0068 14.9427 92.3377 14.656C91.7159 14.3802 91.1663 13.9644 90.7318 13.4412C90.2747 12.8792 89.93 12.2347 89.7162 11.5426C89.4713 10.7342 89.3524 9.89292 89.3637 9.04833C89.3507 8.19847 89.4779 7.35227 89.7402 6.5438C89.971 5.84722 90.3354 5.20232 90.813 4.64517C91.2694 4.12046 91.8392 3.70656 92.4793 3.43484C93.1678 3.15034 93.9069 3.00875 94.6518 3.01868C95.1961 3.0159 95.739 3.0746 96.2702 3.19367C96.6826 3.2782 97.0778 3.43183 97.439 3.64809L96.7614 5.42021C96.4982 5.26768 96.2141 5.15471 95.918 5.08491C95.5246 4.9888 95.1207 4.94235 94.7158 4.94666C94.292 4.94157 93.872 5.02578 93.483 5.19379C93.0963 5.3606 92.7546 5.61659 92.4859 5.94081C92.1811 6.318 91.9511 6.7499 91.8082 7.21334C91.6326 7.80384 91.5502 8.41812 91.564 9.03403C91.5491 9.64612 91.6241 10.2571 91.7868 10.8473C91.911 11.3086 92.1139 11.7449 92.3865 12.1371C92.6139 12.459 92.9144 12.7222 93.2634 12.9051C93.5846 13.0682 93.9396 13.1539 94.2998 13.1551C94.5458 13.1576 94.7916 13.1418 95.0352 13.1081C95.1934 13.0943 95.3472 13.0488 95.4874 12.9743V9.72616H93.7818V8.00268H97.5335V14.4441C97.1369 14.6496 96.7137 14.7991 96.2761 14.8883Z" fill="white"/>
<path d="M106.648 5.11287V14.878H104.472V5.11287H102.097V3.20837H108.997V5.11287H106.648Z" fill="white"/>
<path d="M117.378 14.8781L116.559 12.1544H112.684L111.866 14.8781H109.591L113.331 3.20842H115.898L119.65 14.8781H117.378ZM116.465 2.81432L114.654 1.41281L112.834 2.82312L112.126 2.16284L113.876 0.405404C113.969 0.296946 114.085 0.210276 114.215 0.151557C114.345 0.0928376 114.486 0.063511 114.629 0.0656621C114.77 0.0647593 114.909 0.0947211 115.036 0.153428C115.164 0.212136 115.277 0.298155 115.368 0.405404L117.115 2.16284L116.465 2.81432ZM114.944 6.49538C114.892 6.33356 114.847 6.17032 114.808 6.00707C114.77 5.85434 114.74 5.69972 114.718 5.54384C114.688 5.3806 114.657 5.22759 114.636 5.07911H114.606C114.585 5.22767 114.555 5.3803 114.528 5.54384C114.504 5.68796 114.477 5.83946 114.438 6.00707C114.4 6.1721 114.354 6.33508 114.299 6.49538L113.127 10.4794H116.116L114.944 6.49538Z" fill="white"/>
<path d="M130.609 14.878L129.811 7.45123C129.79 7.26745 129.775 7.08069 129.766 6.89094C129.754 6.70119 129.741 6.53207 129.736 6.38795C129.723 6.20415 129.711 6.03202 129.699 5.86878H129.672C129.648 6.03202 129.618 6.20415 129.579 6.38795C129.537 6.53207 129.494 6.70119 129.449 6.89094C129.401 7.08061 129.353 7.26743 129.298 7.45123L127.18 14.878H125.785L123.658 7.45123C123.604 7.26743 123.553 7.08061 123.501 6.89094C123.453 6.70119 123.414 6.53207 123.381 6.38795C123.345 6.20415 123.308 6.03202 123.284 5.86878H123.257C123.248 6.03202 123.236 6.20415 123.224 6.38795C123.218 6.53207 123.203 6.70119 123.185 6.89094C123.176 7.08061 123.164 7.26743 123.14 7.45123L122.357 14.878H120.323L121.721 3.20837H124.195L126.138 10.0308C126.192 10.1954 126.241 10.3705 126.28 10.5396C126.316 10.7146 126.352 10.8779 126.383 11.0337C126.422 11.197 126.452 11.365 126.476 11.5279H126.509C126.521 11.3611 126.549 11.1957 126.59 11.0337C126.618 10.8779 126.651 10.7146 126.69 10.5396C126.732 10.3705 126.774 10.1954 126.829 10.0308L128.766 3.20837H131.231L132.638 14.878H130.609Z" fill="white"/>
<path d="M137.353 14.878V3.20837H139.546V12.9735H143.027V14.878H137.353Z" fill="white"/>
<path d="M152.181 4.30261V11.4323C152.193 11.9589 152.093 12.4822 151.889 12.9677C151.706 13.3986 151.432 13.7846 151.084 14.0986C150.728 14.4093 150.315 14.6467 149.867 14.7972C149.374 14.9617 148.858 15.0431 148.339 15.0381C147.826 15.0434 147.316 14.9619 146.829 14.7972C146.384 14.648 145.973 14.4104 145.621 14.0986C145.274 13.7847 144.999 13.3987 144.817 12.9677C144.611 12.4824 144.51 11.9592 144.521 11.4323V3.20839H146.718V11.45C146.705 11.673 146.741 11.8962 146.823 12.1041C146.905 12.3121 147.03 12.4999 147.191 12.6547C147.501 12.9464 147.914 13.1043 148.339 13.0944C148.772 13.1049 149.192 12.9474 149.511 12.6547C149.672 12.4999 149.798 12.3121 149.88 12.1041C149.961 11.8962 149.997 11.673 149.984 11.45V3.20839H151.259L151.72 2.38012C151.887 2.26865 152.073 2.18712 152.268 2.13917C152.525 2.07212 152.791 2.05071 153.055 2.07592C153.291 2.08658 153.521 2.15152 153.727 2.26566C153.896 2.36717 153.986 2.46144 154.001 2.54803L152.181 4.30261Z" fill="white"/>
<path d="M161.604 12.9677C161.42 13.3989 161.145 13.7849 160.796 14.0985C160.441 14.4106 160.027 14.6482 159.579 14.7972C159.089 14.9615 158.574 15.0429 158.057 15.0381C157.542 15.0434 157.03 14.9619 156.542 14.7972C156.097 14.648 155.687 14.4104 155.336 14.0985C154.987 13.785 154.711 13.3991 154.526 12.9677C154.324 12.4813 154.225 11.9587 154.233 11.4323V3.20837H156.433V11.45C156.421 11.6727 156.456 11.8956 156.537 12.1034C156.619 12.3113 156.743 12.4993 156.903 12.6547C157.215 12.9474 157.63 13.1054 158.057 13.0944C158.487 13.1055 158.905 12.9477 159.22 12.6547C159.383 12.5007 159.51 12.3131 159.593 12.1051C159.675 11.897 159.712 11.6735 159.699 11.45V3.20837H161.893V11.4323C161.903 11.9585 161.804 12.481 161.604 12.9677Z" fill="white"/>
<path d="M172.831 14.878L169.275 9.08074H169.245V14.878H167.049V3.20837H169.245V8.49688H169.275L172.79 3.20837H175.237L171.482 8.78655L175.324 14.8781L172.831 14.878Z" fill="white"/>
<path d="M181.073 10.2984V14.878H178.897V10.2984L175.573 3.20837H177.924L179.955 8.01452H179.988L182.049 3.20837H184.402L181.073 10.2984ZM179.509 2.6084L180.446 0.493598C180.565 0.325691 180.725 0.192095 180.912 0.106344C181.099 0.0205923 181.305 -0.0142678 181.51 0.00529449C182.004 0.00529449 182.308 0.168539 182.414 0.493598L180.534 2.61698L179.509 2.6084Z" fill="white"/>
<path d="M57.4347 37.4996C56.9774 37.625 56.5048 37.6858 56.0306 37.6803C55.4338 37.6818 54.8437 37.5543 54.3008 37.3067C53.7468 37.0483 53.2608 36.6642 52.8816 36.1848C52.4481 35.6248 52.1241 34.9882 51.9263 34.3082C51.6829 33.4439 51.5672 32.5486 51.583 31.6508C51.5671 30.7539 51.6828 29.8595 51.9263 28.9962C52.1212 28.312 52.4455 27.6715 52.8816 27.1094C53.2585 26.6288 53.7452 26.2455 54.3008 25.9917C54.844 25.7451 55.434 25.6188 56.0306 25.6214C56.4962 25.619 56.9601 25.6779 57.4104 25.7964C57.7794 25.8876 58.1301 26.0413 58.4472 26.2508L57.7663 28.0686C57.5813 27.9253 57.3719 27.8167 57.1483 27.748C56.8717 27.6501 56.5802 27.6013 56.2869 27.6038C55.9289 27.606 55.5777 27.701 55.2675 27.8796C54.9573 28.0583 54.6988 28.3144 54.5174 28.623C53.9945 29.5372 53.7535 30.5856 53.8247 31.6364C53.7531 32.6848 53.9943 33.7308 54.5176 34.642C54.7016 34.9475 54.9609 35.2005 55.2707 35.3769C55.5806 35.5533 55.9306 35.6471 56.2871 35.6494C56.58 35.6511 56.8712 35.6039 57.1485 35.5097C57.3723 35.442 57.5818 35.3338 57.7666 35.1906L58.4475 37.0465C58.1388 37.2553 57.7961 37.4086 57.4347 37.4996Z" fill="white"/>
<path d="M65.637 37.4807V32.5008H62.2078V37.4807H60.0107V25.8108H62.2078V30.6346H65.6373V25.8108H67.8095V37.4807H65.637Z" fill="white"/>
<path d="M77.5318 26.9051V34.0348C77.5417 34.561 77.443 35.0837 77.2421 35.5701C77.0564 36.0002 76.7811 36.3857 76.4348 36.701C76.0786 37.0112 75.6652 37.2485 75.2178 37.3996C74.7243 37.5642 74.2069 37.6456 73.6868 37.6406C73.1746 37.6457 72.6652 37.5642 72.1802 37.3996C71.7344 37.2493 71.323 37.0118 70.9698 36.701C70.6209 36.3879 70.3453 36.0018 70.1624 35.5701C69.962 35.0835 69.8636 34.5609 69.8732 34.0348V25.8109H72.0667V34.0525C72.0551 34.2755 72.0916 34.4985 72.1735 34.7064C72.2554 34.9142 72.381 35.102 72.5417 35.2572C72.851 35.5478 73.2619 35.7056 73.6862 35.6969C74.1204 35.7101 74.5424 35.5522 74.8613 35.2572C75.0223 35.1025 75.1477 34.9146 75.2289 34.7066C75.31 34.4985 75.3449 34.2753 75.3311 34.0525V25.8109H76.6091L77.0731 24.9826C77.2403 24.8705 77.426 24.7889 77.6217 24.7416C77.8769 24.6744 78.142 24.653 78.4048 24.6784C78.6394 24.6895 78.8683 24.7544 79.0739 24.8681C79.2488 24.9696 79.3394 25.0639 79.3511 25.1505L77.5318 26.9051ZM72.8971 25.2109L73.825 23.0961C73.9445 22.9284 74.106 22.795 74.2932 22.7093C74.4805 22.6236 74.687 22.5886 74.892 22.6078C75.392 22.6078 75.6877 22.771 75.7898 23.0961L73.9096 25.2195L72.8971 25.2109Z" fill="white"/>
<path d="M86.1139 37.4807L82.1181 30.5628C82.0181 30.4077 81.9275 30.2466 81.8471 30.0804C81.7684 29.9186 81.6965 29.776 81.6485 29.6525C81.5816 29.4995 81.5213 29.3451 81.461 29.1951H81.4132C81.4132 29.3451 81.4308 29.5083 81.4433 29.6833V30.1716C81.461 30.3523 81.461 30.5331 81.461 30.7143V37.4807H79.5874V25.8108H81.461L85.3663 32.5449C85.4567 32.7082 85.547 32.8714 85.6259 33.0332C85.7038 33.1905 85.7765 33.3376 85.8428 33.467C85.9149 33.6215 85.9869 33.7682 86.0414 33.92H86.0773C86.0656 33.7685 86.0656 33.6038 86.0656 33.42C86.0539 33.2685 86.0414 33.0993 86.0414 32.9126V25.8108H87.9215V37.4807H86.1139Z" fill="white"/>
<path d="M96.5637 37.4908C95.9664 37.624 95.3557 37.6877 94.7438 37.6805C94.0151 37.6882 93.2927 37.5445 92.6224 37.2585C92.0019 36.9848 91.4547 36.5686 91.0252 36.0437C90.5632 35.4846 90.2171 34.8392 90.0068 34.1451C89.761 33.3369 89.6412 32.4956 89.6517 31.6508C89.6396 30.8008 89.7678 29.9546 90.0311 29.1463C90.2571 28.4476 90.622 27.8018 91.1039 27.2477C91.5597 26.7237 92.1284 26.3099 92.7672 26.0374C93.4564 25.752 94.1965 25.6103 94.9424 25.6212C95.4857 25.6187 96.0276 25.6774 96.5579 25.7962C96.9704 25.8807 97.3657 26.0344 97.727 26.2506L97.052 28.0227C96.7862 27.8707 96.4999 27.7578 96.2019 27.6874C95.8096 27.5909 95.4066 27.5444 95.0026 27.5492C94.5799 27.5436 94.1608 27.6278 93.7731 27.7963C93.3856 27.963 93.0429 28.219 92.7731 28.5433C92.4682 28.92 92.239 29.3521 92.0981 29.8158C91.9202 30.4059 91.8368 31.0204 91.851 31.6365C91.839 32.2485 91.914 32.859 92.0738 33.4498C92.1984 33.9105 92.4003 34.3466 92.6709 34.7396C92.9005 35.0604 93.2016 35.3233 93.5503 35.5076C93.8718 35.6705 94.2268 35.7561 94.5872 35.7576C94.8311 35.7603 95.075 35.7446 95.3166 35.7106C95.4763 35.696 95.6316 35.6506 95.774 35.5768V32.3288H94.0687V30.6052H97.8233V37.0466C97.4257 37.2516 97.0019 37.4011 96.5637 37.4908Z" fill="white"/>
<path d="M108.725 37.4807L105.17 31.6829H105.133V37.4807H102.939V25.8108H105.133V31.0993H105.17L108.677 25.8108H111.124L107.369 31.3892L111.208 37.4807H108.725Z" fill="white"/>
<path d="M118.006 37.4807V32.5008H114.577V37.4807H112.383V25.8108H114.577V30.6346H118.006V25.8108H120.187V37.4807H118.006Z" fill="white"/>
<path d="M130.595 31.6508C130.599 32.4495 130.51 33.2461 130.33 34.0244C130.174 34.7033 129.898 35.3491 129.516 35.9318C129.174 36.4589 128.712 36.897 128.167 37.2098C127.583 37.5335 126.923 37.6959 126.256 37.6804C125.591 37.6967 124.933 37.5342 124.352 37.2098C123.805 36.8974 123.34 36.4593 122.996 35.9318C122.616 35.3488 122.342 34.703 122.188 34.0244C121.835 32.4582 121.835 30.8331 122.188 29.2669C122.343 28.5874 122.616 27.9407 122.996 27.3565C123.341 26.8305 123.805 26.3943 124.352 26.084C124.934 25.7636 125.591 25.604 126.256 25.6214C126.922 25.6049 127.582 25.7647 128.167 26.0846C128.711 26.3954 129.174 26.8317 129.516 27.3572C129.898 27.941 130.173 28.5878 130.33 29.2675C130.51 30.049 130.599 30.8488 130.595 31.6508ZM128.402 31.6508C128.407 31.0998 128.358 30.5497 128.257 30.0081C128.188 29.5683 128.054 29.1411 127.86 28.7404C127.708 28.4162 127.478 28.1351 127.19 27.9226C126.915 27.7349 126.59 27.6344 126.256 27.6344C125.923 27.6344 125.597 27.7349 125.322 27.9226C125.036 28.1355 124.808 28.4166 124.659 28.7404C124.458 29.1392 124.319 29.5668 124.249 30.0081C124.073 31.0946 124.073 32.2025 124.249 33.2891C124.319 33.7308 124.458 34.1589 124.659 34.5582C124.809 34.8802 125.037 35.1597 125.322 35.3714C125.596 35.562 125.922 35.6641 126.256 35.6641C126.59 35.6641 126.916 35.562 127.19 35.3714C127.477 35.16 127.707 34.8806 127.86 34.5582C128.054 34.157 128.188 33.7294 128.257 33.2891C128.358 32.7489 128.406 32.2002 128.402 31.6508H128.402Z" fill="white"/>
<path d="M139.201 37.4808L138.376 34.7571H134.506L133.687 37.4808H131.415L135.151 25.8111H137.719L141.473 37.4808H139.201ZM136.767 29.0981C136.718 28.9362 136.67 28.773 136.628 28.6098C136.589 28.4573 136.558 28.3026 136.537 28.1465C136.508 27.9833 136.477 27.8303 136.46 27.6818H136.429C136.405 27.8304 136.381 27.983 136.345 28.1465C136.325 28.3027 136.294 28.4574 136.254 28.6098C136.219 28.7748 136.175 28.9378 136.122 29.0981L134.947 33.082H137.942L136.767 29.0981ZM135.556 25.2111L136.484 23.0963C136.603 22.9286 136.764 22.7952 136.951 22.7095C137.139 22.6238 137.345 22.5888 137.55 22.608C138.051 22.608 138.352 22.7708 138.454 23.0963L136.567 25.2197L135.556 25.2111Z" fill="white"/>
<path d="M149.121 37.4807L145.132 30.5628C145.032 30.4077 144.941 30.2466 144.861 30.0804C144.782 29.9186 144.715 29.7759 144.661 29.6525C144.601 29.4995 144.535 29.3451 144.475 29.1951H144.433C144.432 29.3582 144.44 29.5211 144.457 29.6833C144.457 29.8304 144.457 29.9907 144.463 30.1716C144.469 30.3526 144.474 30.5331 144.474 30.7143V37.4807H142.6V25.8108H144.474L148.386 32.5449C148.47 32.7082 148.555 32.8714 148.639 33.0332C148.711 33.1905 148.789 33.3376 148.856 33.467C148.928 33.6215 148.994 33.7682 149.061 33.92H149.091C149.079 33.7685 149.073 33.6038 149.073 33.42C149.066 33.2685 149.061 33.0993 149.061 32.9126V25.8108H150.935V37.4807H149.121Z" fill="white"/>
<path d="M161 37.4808H158.691L155.244 25.8112H157.601L159.505 33.4041C159.547 33.588 159.589 33.7777 159.625 33.9777C159.662 34.1735 159.692 34.3542 159.728 34.516C159.77 34.7086 159.8 34.9028 159.824 35.0836H159.86C159.869 34.8924 159.896 34.7024 159.939 34.516C159.963 34.3542 159.993 34.1733 160.03 33.9777C160.077 33.7777 160.126 33.588 160.18 33.4041L162.06 25.8112H164.428L161 37.4808Z" fill="white"/>
<path d="M165.646 37.4807V25.8108H167.839V37.4807H165.646Z" fill="white"/>
<path d="M169.895 37.4807V25.8107H175.861V27.7152H172.034V30.6345H175.487V32.5008H172.034V35.5757H175.861V37.4807H169.895ZM174.722 25.4169L172.908 24.0154L171.088 25.4256L170.383 24.7653L172.13 23.0079C172.224 22.9 172.34 22.8137 172.47 22.7551C172.6 22.6964 172.741 22.6667 172.883 22.6681C173.025 22.6693 173.164 22.7001 173.293 22.7587C173.422 22.8172 173.537 22.9021 173.631 23.0079L175.372 24.7653L174.722 25.4169ZM173.914 38.9881C173.915 39.1212 173.889 39.2531 173.837 39.3758C173.785 39.4984 173.709 39.6092 173.613 39.7014C173.416 39.8928 173.152 39.9999 172.878 39.9999C172.603 39.9999 172.339 39.8928 172.142 39.7014C172.044 39.6105 171.966 39.5001 171.913 39.3773C171.86 39.2544 171.834 39.1218 171.835 38.9881C171.833 38.8544 171.859 38.7217 171.912 38.599C171.965 38.4762 172.043 38.3662 172.142 38.2763C172.342 38.091 172.605 37.988 172.878 37.988C173.15 37.988 173.413 38.091 173.613 38.2763C173.71 38.3675 173.787 38.4778 173.838 38.6003C173.89 38.7228 173.916 38.8548 173.914 38.9878V38.9881Z" fill="white"/>
<path d="M181.574 27.7153V37.4807H179.399V27.7153H177.024V25.8108H183.931V27.7153H181.574Z" fill="white"/>
<path d="M195.061 37.4807L191.072 30.5625C190.974 30.4071 190.885 30.2461 190.807 30.0801C190.722 29.9183 190.656 29.7757 190.602 29.6522C190.535 29.4992 190.475 29.3448 190.415 29.1948H190.373C190.373 29.3448 190.385 29.508 190.397 29.683C190.397 29.8301 190.397 29.9904 190.409 30.1713C190.409 30.352 190.415 30.5328 190.415 30.714V37.4807H188.541V25.8108H190.415L194.327 32.5449C194.416 32.7082 194.495 32.8714 194.58 33.0332C194.657 33.1905 194.73 33.3376 194.796 33.467C194.868 33.6215 194.941 33.7682 195.002 33.92H195.031C195.025 33.7685 195.019 33.6038 195.019 33.42C195.007 33.2685 195.002 33.0993 195.002 32.9126V25.8108H196.882V37.4807H195.061Z" fill="white"/>
<path d="M205.789 37.4808L204.975 34.7572H201.106L200.281 37.4808H198.009L201.745 25.8112H204.313L208.073 37.4808H205.789ZM203.366 29.0981C203.312 28.9363 203.264 28.7731 203.221 28.6098C203.185 28.4422 203.155 28.2907 203.137 28.1466C203.101 27.9833 203.077 27.8303 203.059 27.6818H203.023C202.998 27.8304 202.974 27.983 202.945 28.1466C202.926 28.2907 202.89 28.4422 202.854 28.6098C202.816 28.7749 202.77 28.9378 202.715 29.0981L201.541 33.0821H204.53L203.366 29.0981Z" fill="white"/>
<path d="M219.029 37.4808L218.227 30.054C218.209 29.8702 218.191 29.6834 218.179 29.4937C218.173 29.304 218.161 29.1349 218.149 28.9907C218.137 28.8069 218.131 28.6348 218.118 28.4712H218.088C218.065 28.6344 218.035 28.8066 217.992 28.9907C217.956 29.1349 217.914 29.304 217.871 29.4937C217.818 29.6834 217.769 29.8702 217.721 30.054L215.6 37.4808H214.195L212.074 30.054C212.019 29.8702 211.965 29.6834 211.917 29.4937C211.869 29.304 211.827 29.1349 211.802 28.9907C211.758 28.8201 211.726 28.6464 211.706 28.4712H211.67C211.664 28.6344 211.652 28.8066 211.646 28.9907C211.628 29.1349 211.621 29.304 211.604 29.4937C211.591 29.6834 211.574 29.8702 211.549 30.054L210.766 37.4808H208.735L210.133 25.8112H212.61L214.55 32.6335C214.61 32.7996 214.659 32.9696 214.695 33.1424C214.731 33.3174 214.768 33.4806 214.797 33.6365C214.84 33.7988 214.87 33.964 214.888 34.1307H214.925C214.935 33.9635 214.963 33.7978 215.008 33.6365C215.028 33.4696 215.06 33.3045 215.105 33.1424C215.147 32.9733 215.195 32.7982 215.244 32.6335L217.184 25.8112H219.643L221.053 37.4808H219.029Z" fill="white"/>
</svg>
