<svg width="222" height="40" viewBox="0 0 222 40" fill="none" xmlns="http://www.w3.org/2000/svg">
<path d="M27.7205 24.4079C27.4611 22.9285 26.8187 21.5429 25.8572 20.389C25.0539 19.4393 24.1866 18.5455 23.2616 17.7138C22.7642 17.2568 22.2634 16.8059 21.7712 16.3362C20.1304 14.759 18.768 12.973 18.3695 10.6776C18.2653 10.2024 18.261 9.71077 18.357 9.23389L17.3467 10.6176C17.1532 10.9074 16.972 11.1996 16.8059 11.5044C16.0022 12.9713 15.6704 14.6503 15.8557 16.3126C16.041 17.9749 16.7343 19.5396 17.8412 20.7935C18.6445 21.7424 19.5115 22.6354 20.4364 23.4661C20.9323 23.9245 21.4379 24.3766 21.9236 24.8449C23.57 26.421 24.9305 28.2094 25.3328 30.5048C25.4319 30.9802 25.4362 31.4704 25.3452 31.9473L26.3519 30.5635C26.5442 30.275 26.7289 29.9803 26.894 29.6731C27.7637 28.0643 28.0555 26.2058 27.7205 24.4079Z" fill="url(#paint0_linear)"/>
<path style="mix-blend-mode:overlay" opacity="0.8" d="M25.3402 24.9922C24.0607 22.7967 21.995 21.5803 20.3028 19.7869C18.4469 17.8187 17.2181 15.5333 17.4528 12.7707C17.608 11.6621 17.846 10.5667 18.1647 9.49365C17.875 9.89461 17.3467 10.6176 17.3467 10.6176C17.1532 10.9074 16.972 11.1996 16.8059 11.5044C16.0022 12.9713 15.6704 14.6503 15.8557 16.3126C16.041 17.9749 16.7343 19.5396 17.8412 20.7935C18.6445 21.7424 19.5115 22.6354 20.4364 23.4661C20.9323 23.9245 21.4379 24.3766 21.9236 24.8449C23.57 26.421 24.9305 28.2094 25.3328 30.5048C25.432 30.9801 25.4362 31.4704 25.3453 31.9473C26.0041 30.9069 26.3535 29.7005 26.3526 28.469C26.3517 27.2375 26.0005 26.0317 25.3402 24.9922Z" fill="url(#paint1_linear)"/>
<path d="M18.3417 11.5394C18.7238 13.9797 20.5597 15.5432 22.2207 17.2268C22.8528 17.8688 24.0191 18.9165 24.6378 19.5734C26.3689 21.4118 27.448 23.1726 27.4605 25.7941C27.4796 26.7438 27.3669 27.6915 27.1256 28.6102C26.7803 29.6367 26.2908 30.609 25.6718 31.4977C25.9668 31.0944 26.3515 30.5634 26.3515 30.5634C26.5438 30.275 26.7285 29.9803 26.8936 29.673C27.7634 28.0642 28.0552 26.2058 27.7204 24.4078C27.4608 22.9284 26.8183 21.5428 25.8568 20.389C25.0535 19.4393 24.1862 18.5455 23.2612 17.7138C22.7638 17.2568 22.263 16.8059 21.7708 16.3362C20.13 14.759 18.7676 12.973 18.3691 10.6776C18.2649 10.2024 18.2606 9.71077 18.3566 9.23389C18.0244 9.84583 18.2405 10.9049 18.3417 11.5394Z" fill="url(#paint2_linear)"/>
<path d="M25.3928 31.7001C25.5557 30.7351 25.4751 29.7448 25.1581 28.8189C23.7936 24.9399 19.9521 23.1942 17.7204 19.9955C16.9581 18.9342 16.4606 17.7061 16.2694 16.4134C16.0782 15.1208 16.1987 13.8012 16.621 12.5647C16.8297 11.9389 16.9483 11.6143 18.357 9.23389C18.0611 9.64102 17.3467 10.6176 17.3467 10.6176C17.1532 10.9074 16.972 11.1996 16.8059 11.5044C16.0022 12.9713 15.6704 14.6503 15.8557 16.3126C16.041 17.9749 16.7343 19.5396 17.8412 20.7935C18.6445 21.7424 19.5115 22.6354 20.4364 23.4661C20.9323 23.9245 21.4379 24.3766 21.9236 24.8449C23.57 26.421 24.9305 28.2094 25.3328 30.5048C25.4045 30.899 25.4246 31.3008 25.3928 31.7001Z" fill="url(#paint3_linear)"/>
<path d="M21.497 11.819C22.0918 9.67588 23.3554 8.18967 24.736 6.48381C25.4729 5.57211 26.2872 4.72938 27.0665 3.85729C27.2786 3.62002 27.4786 3.40896 27.6608 3.21289H25.6152C25.5577 3.2592 25.5004 3.30664 25.4303 3.36409C24.0535 4.61662 22.8489 6.04611 21.8478 7.61522C21.5048 8.15075 21.1909 8.70439 20.9076 9.27372C20.8201 9.48614 20.7164 9.6984 20.639 9.91571C20.5554 10.1284 20.4826 10.3452 20.4207 10.5651C20.3881 10.6726 20.3544 10.7812 20.3294 10.8899C20.3032 10.9985 20.2821 11.1072 20.2583 11.2146C20.1751 11.6291 20.1324 12.0507 20.1309 12.4734C20.1384 12.6758 20.1384 12.7831 20.1571 12.9729C20.1758 13.0967 20.197 13.2139 20.2208 13.3301C20.5426 13.9287 20.922 14.4946 21.3535 15.0197C21.3085 14.8427 21.2755 14.6629 21.2547 14.4814C21.1832 13.5866 21.2651 12.6862 21.497 11.819Z" fill="url(#paint4_linear)"/>
<path d="M19.859 12.4849C19.8246 12.0425 19.8342 11.5978 19.8877 11.1573C19.9027 11.0399 19.9178 10.925 19.9329 10.81C19.9516 10.6927 19.9829 10.5766 20.0028 10.4604C20.048 10.2243 20.1177 9.99353 20.1814 9.76108C20.2439 9.52623 20.335 9.30177 20.4138 9.06421C20.5099 8.84193 20.591 8.60828 20.6958 8.386C20.8929 7.93838 21.1143 7.50186 21.359 7.07839C21.5977 6.65627 21.8537 6.2566 22.1084 5.87198C22.6219 5.11019 23.1538 4.43583 23.6219 3.86907C23.8279 3.6294 24.019 3.40975 24.1976 3.21338H22.3205C21.7461 4.04667 21.1715 4.88051 20.5968 5.71491C20.102 6.39347 19.6919 7.12993 19.3756 7.90794C19.0325 8.79096 18.9706 9.75842 19.1983 10.678C19.3632 11.3814 19.5966 12.0669 19.8951 12.7249C19.8814 12.6434 19.8701 12.5685 19.859 12.4849Z" fill="url(#paint5_linear)"/>
<path d="M22.551 11.372C23.4537 9.62485 24.6288 8.03258 26.0323 6.65503C26.6891 5.9568 27.4333 5.25375 27.9929 4.73307C28.5525 4.21239 29.032 3.79373 29.3692 3.50655C29.5167 3.38171 29.6289 3.28435 29.7163 3.21289H33.2982C33.2982 3.21289 21.9238 13.3264 24.1983 17.8959C22.1012 16.2186 21.8592 15.528 21.8592 15.528C21.7902 15.3279 21.756 15.1176 21.7581 14.906C21.7539 14.4155 21.801 13.9259 21.8988 13.4452C22.0217 12.7279 22.2411 12.0305 22.551 11.372Z" fill="url(#paint6_linear)"/>
<path d="M33.2983 3.21338C33.2983 3.21338 41.4111 15.7545 42.9971 18.0938C43.477 18.7942 43.7369 19.6219 43.7436 20.4709C43.7503 21.3199 43.5035 22.1516 43.0348 22.8595C43.0348 22.8595 35.5315 34.2746 34.6671 35.7353C34.2767 36.3322 33.761 36.8368 33.1559 37.2143C32.5507 37.5917 31.8707 37.8328 31.1629 37.9209H23.2441C23.2441 37.9209 31.6898 24.7091 33.3157 22.3699C33.6858 21.9202 33.9073 21.3669 33.9498 20.786C33.9924 20.2052 33.8537 19.6254 33.5531 19.1266L27.0488 9.8985C28.9363 7.4949 31.0271 5.25827 33.2983 3.21338Z" fill="url(#paint7_linear)"/>
<path d="M33.2979 22.4172C31.672 24.7577 23.2275 37.9706 23.2275 37.9706C23.2275 37.9706 34.1699 22.6099 34.4617 21.6704C34.7592 20.7351 35.1064 20.2868 32.8334 17.3019C30.5653 14.3183 27.0484 9.89844 27.0484 9.89844L33.5325 19.1751C33.8339 19.6733 33.9732 20.2527 33.9311 20.8335C33.8891 21.4142 33.6678 21.9676 33.2979 22.4172Z" fill="url(#paint8_linear)"/>
<path style="mix-blend-mode:overlay" d="M33.2984 3.21312C33.7031 3.87385 34.6122 5.25013 35.0343 5.9071C36.8202 8.71321 38.0441 10.8501 39.9224 13.6001C41.0415 15.2461 42.088 16.7776 43.1471 18.4133C43.6213 19.3138 43.7527 20.3558 43.5168 21.3458C43.2939 22.0428 42.927 22.6853 42.4401 23.2315C42.0956 23.741 41.7357 24.2806 41.3934 24.7902C40.7666 25.7281 40.1573 26.6361 39.5328 27.5762C38.2013 29.5715 36.8802 31.5738 35.4764 33.5197C36.1907 32.2856 36.8927 31.0494 37.5369 29.7767C38.6536 27.5824 39.9223 25.4019 40.8866 23.139C41.873 20.8134 41.1237 18.8018 39.183 17.2942C36.93 15.5428 34.5506 13.9603 32.0643 12.5595C31.6523 12.3172 29.629 11.2193 27.0488 9.89816C28.9242 7.48415 31.0161 5.24643 33.2985 3.21289" fill="url(#paint9_linear)"/>
<path d="M34.0997 4.72437C35.4361 6.89873 36.7524 9.088 38.0985 11.2612C38.8629 12.4987 39.682 13.7052 40.4739 14.9265C41.3846 16.1716 42.1702 17.5036 42.8193 18.9031C43.6263 20.9587 42.6746 22.3225 41.5731 23.9972C39.2475 27.5279 37.0946 31.1846 34.7016 34.6702C34.1958 35.4473 33.5645 36.1351 32.8334 36.7056C32.0691 37.2034 31.1802 37.4765 30.2682 37.4938C29.6282 37.554 29.0193 37.6048 28.3799 37.6685C26.9959 37.8034 25.5523 37.8034 24.1617 37.9046C23.8509 37.9257 23.5384 37.9471 23.2275 37.9707H31.1448C31.8526 37.8819 32.5328 37.6405 33.1383 37.2633C33.7438 36.886 34.2602 36.3818 34.6518 35.7855C35.5161 34.3216 43.0194 22.9069 43.0194 22.9069C43.4869 22.1984 43.7327 21.3668 43.7256 20.518C43.7185 19.6692 43.4587 18.8417 42.9795 18.1411C41.5481 16.0305 34.8141 5.5674 33.5128 3.54928L33.2979 3.21338L34.0997 4.72437Z" fill="url(#paint10_linear)"/>
<path d="M10.4459 37.9707C10.4459 37.9707 2.33302 25.4296 0.747029 23.0903C0.26714 22.3899 0.00720644 21.5622 0.000498217 20.7132C-0.0062081 19.8642 0.240618 19.0325 0.709381 18.3246C0.709381 18.3246 8.21268 6.90951 9.07702 5.44874C9.46745 4.85191 9.98314 4.34725 10.5883 3.96982C11.1934 3.59239 11.8735 3.35125 12.5812 3.26316L20.5 3.26316C20.5 3.26316 12.0544 16.475 10.4285 18.8142C10.0584 19.2639 9.83682 19.8172 9.7943 20.3981C9.75178 20.9789 9.89039 21.5587 10.191 22.0574L16.6953 31.2856C14.8079 33.6892 12.717 35.9258 10.4459 37.9707Z" fill="url(#paint11_linear)"/>
<path d="M10.4453 18.7664C12.0712 16.4259 20.5156 3.21304 20.5156 3.21304C20.5156 3.21304 9.57327 18.5737 9.28141 19.5132C8.98391 20.4485 8.6368 20.8968 10.9097 23.8817C13.1778 26.8653 16.6947 31.2852 16.6947 31.2852L10.2107 22.0085C9.90929 21.5103 9.77 20.9309 9.81203 20.3501C9.85405 19.7694 10.0753 19.216 10.4453 18.7664Z" fill="url(#paint12_linear)"/>
<path style="mix-blend-mode:overlay" d="M10.4458 37.9707C10.0411 37.31 9.13192 35.9337 8.70981 35.2767C6.92398 32.4706 5.70002 30.3337 3.82173 27.5837C2.70266 25.9377 1.6561 24.4062 0.597046 22.7705C0.122843 21.87 -0.00852353 20.8281 0.227335 19.8381C0.450259 19.141 0.817095 18.4986 1.30409 17.9523C1.6485 17.4428 2.00842 16.9032 2.35072 16.3937C2.97757 15.4558 3.58688 14.5477 4.21132 13.6077C5.5428 11.6123 6.86397 9.60997 8.26773 7.66414C7.55339 8.89819 6.85146 10.1344 6.20722 11.4072C5.09056 13.6014 3.8218 15.7819 2.85755 18.0449C1.87115 20.3704 2.62043 22.382 4.56115 23.8897C6.81418 25.641 9.19356 27.2236 11.6798 28.6243C12.0919 28.8666 14.1152 29.9646 16.6953 31.2857C14.8199 33.6997 12.7282 35.9372 10.4458 37.9707Z" fill="url(#paint13_linear)"/>
<path d="M9.64344 36.4597C8.30707 34.2854 6.9908 32.0961 5.64463 29.9229C4.88029 28.6853 4.06113 27.4789 3.2693 26.2576C2.3586 25.0124 1.57299 23.6805 0.923865 22.281C0.116827 20.2254 1.06858 18.8616 2.17003 17.1869C4.49567 13.6562 6.64857 9.99948 9.04152 6.51389C9.54741 5.73677 10.1787 5.04895 10.9097 4.47846C11.6741 3.98068 12.5629 3.7076 13.4749 3.69032C14.115 3.63008 14.7238 3.57926 15.3633 3.51556C16.7472 3.3807 18.1908 3.3807 19.5815 3.2795C19.8923 3.25834 20.2047 3.23703 20.5156 3.21339L12.5984 3.21339C11.8905 3.30217 11.2104 3.54354 10.6049 3.92082C9.9994 4.29809 9.483 4.80229 9.09136 5.39859C8.22702 6.86244 0.723797 18.2771 0.723797 18.2771C0.256308 18.9856 0.0104392 19.8173 0.0175461 20.6661C0.0246549 21.5149 0.284417 22.3424 0.763707 23.0429C2.19503 25.1536 8.9291 35.6167 10.2304 37.6348L10.4453 37.9707L9.64344 36.4597Z" fill="url(#paint14_linear)"/>
<path d="M22.2553 29.361C21.6634 31.5042 20.3984 32.9904 19.016 34.6974C18.279 35.6103 17.4673 36.4519 16.6866 37.3239C16.4731 37.5599 16.277 37.7722 16.0918 37.9708H18.1388C18.1974 37.9233 18.2537 37.8746 18.3211 37.816C19.6992 36.5647 20.904 35.135 21.9035 33.5648C22.2491 33.0316 22.5633 32.4787 22.8448 31.909C22.9335 31.6929 23.0359 31.4819 23.1145 31.2646C23.1943 31.0499 23.2754 30.835 23.3342 30.6151C23.3643 30.5065 23.3979 30.4004 23.4254 30.2918C23.4504 30.1831 23.4717 30.0734 23.4942 29.968C23.579 29.5537 23.6217 29.1318 23.6218 28.7089C23.6154 28.5066 23.6154 28.3979 23.5956 28.208C23.5767 28.0857 23.5566 27.9695 23.5368 27.8496C23.2122 27.2516 22.8308 26.6861 22.3979 26.1611C22.4441 26.3376 22.478 26.517 22.4991 26.6982C22.5709 27.5932 22.4884 28.494 22.2553 29.361Z" fill="url(#paint15_linear)"/>
<path d="M23.893 28.6966C23.9289 29.1394 23.9188 29.5847 23.8629 30.0254C23.8507 30.1403 23.8354 30.2552 23.8193 30.3727C23.7994 30.4876 23.7745 30.605 23.7495 30.7198C23.7056 30.9546 23.6382 31.1866 23.5709 31.4217C23.5096 31.6539 23.4173 31.881 23.3399 32.1186C23.2473 32.3421 23.1637 32.5731 23.0577 32.7954C22.8599 33.2425 22.6381 33.6786 22.3933 34.1018C22.1558 34.5239 21.8983 34.926 21.6436 35.3082C21.1746 36.0019 20.6694 36.6705 20.1301 37.3111C19.9241 37.5534 19.7367 37.7719 19.5557 37.9705H21.4315C22.0074 37.1365 22.5815 36.302 23.1537 35.4668C23.6499 34.7889 24.0603 34.0523 24.3758 33.2737C24.7204 32.3908 24.7832 31.4228 24.5556 30.5028C24.39 29.7999 24.1564 29.1147 23.8581 28.457C23.8705 28.5368 23.8841 28.6116 23.893 28.6966Z" fill="url(#paint16_linear)"/>
<path d="M21.2017 29.8095C20.2998 31.5577 19.1243 33.1505 17.7198 34.5278C17.0628 35.2234 16.321 35.9278 15.7615 36.4498C15.1995 36.9693 14.7238 37.3889 14.3853 37.6762C14.2392 37.8011 14.1229 37.896 14.0368 37.9709H10.4551C10.4551 37.9709 21.8313 27.8524 19.5557 23.2866C21.6539 24.9625 21.8947 25.6545 21.8947 25.6545C21.9637 25.8545 21.9983 26.0647 21.9971 26.2763C21.9999 26.7662 21.9518 27.2551 21.8536 27.7351C21.7313 28.4529 21.512 29.1508 21.2017 29.8095Z" fill="url(#paint17_linear)"/>
<path d="M56.1313 5.11299V14.8781H53.9529V5.11299H51.5811V3.2085H58.4846V5.11299H56.1313Z" fill="#004282"/>
<path d="M65.9013 14.878L64.4909 11.2985C64.3654 10.9784 64.1699 10.6904 63.9186 10.4557C63.6563 10.2359 63.3202 10.1239 62.9785 10.1425H62.1525V14.878H59.998V3.6481C60.4953 3.429 61.0175 3.27146 61.5529 3.179C62.1516 3.07115 62.7587 3.0175 63.3669 3.01869C64.5001 2.93452 65.6251 3.26649 66.5311 3.95238C66.8883 4.27616 67.169 4.67531 67.353 5.12094C67.5369 5.56656 67.6195 6.04751 67.5947 6.52898C67.601 6.90716 67.5407 7.28349 67.4167 7.64082C67.2062 8.24458 66.7832 8.7511 66.2266 9.06582C65.9649 9.22075 65.6857 9.34416 65.395 9.4335V9.46143C65.6994 9.63629 65.961 9.87698 66.1605 10.1659C66.3792 10.4788 66.5603 10.8164 66.6998 11.1718L68.2006 14.878H65.9013ZM65.4432 6.66444C65.4606 6.40705 65.4267 6.14877 65.3433 5.90462C65.26 5.66046 65.129 5.43533 64.9578 5.2423C64.7467 5.05895 64.5007 4.92015 64.2346 4.83424C63.9685 4.74832 63.6877 4.71706 63.4092 4.74232C63.1781 4.74204 62.9474 4.76022 62.7191 4.79669C62.5272 4.82638 62.3378 4.87063 62.1525 4.92906V8.52624H63.3188C63.8817 8.56415 64.4402 8.40436 64.8979 8.07446C65.0898 7.89619 65.2386 7.6766 65.3331 7.43231C65.4275 7.18802 65.4652 6.92543 65.4432 6.66444Z" fill="#004282"/>
<path d="M76.9509 12.9678C76.7671 13.3983 76.4926 13.784 76.1461 14.0987C75.7903 14.4094 75.3766 14.6469 74.9287 14.7973C73.9397 15.1189 72.8743 15.1189 71.8852 14.7973C71.4424 14.6458 71.0338 14.4084 70.683 14.0987C70.3349 13.7842 70.0586 13.3985 69.8727 12.9678C69.6746 12.4806 69.5772 11.9583 69.5865 11.4324V3.2085H71.7771V11.4501C71.7657 11.6733 71.8024 11.8963 71.8845 12.1041C71.9666 12.3119 72.0923 12.4997 72.2532 12.6548C72.5721 12.9381 72.9839 13.0945 73.4104 13.0945C73.837 13.0945 74.2487 12.9381 74.5676 12.6548C74.73 12.5008 74.857 12.3132 74.9397 12.1052C75.0224 11.8971 75.059 11.6736 75.0467 11.4501V3.2085H77.2435V11.4324C77.252 11.9588 77.1524 12.4814 76.9509 12.9678Z" fill="#004282"/>
<path d="M85.8214 14.8781L81.8319 7.96021C81.7296 7.80643 81.639 7.64519 81.5608 7.47785C81.4796 7.31604 81.4072 7.17343 81.359 7.04986C81.2929 6.89694 81.2292 6.7425 81.1722 6.59251H81.13C81.13 6.7425 81.1359 6.90574 81.1509 7.08074C81.1509 7.22779 81.1542 7.3881 81.1601 7.56904C81.166 7.74998 81.1722 7.93047 81.1722 8.11171V14.8781H79.2979V3.2085H81.1722L85.0834 9.94264C85.1738 10.1059 85.2581 10.2691 85.3305 10.4309C85.4088 10.5882 85.4842 10.7353 85.5533 10.8647C85.6258 11.0192 85.6981 11.1659 85.7555 11.3177H85.7916C85.7794 11.1662 85.7765 11.0015 85.7765 10.8177C85.7672 10.6662 85.7555 10.497 85.7555 10.3103V3.2085H87.6295V14.8781H85.8214Z" fill="#004282"/>
<path d="M96.2746 14.8882C95.6773 15.0214 95.0666 15.085 94.4547 15.0779C93.7268 15.0863 93.0053 14.9425 92.3363 14.6558C91.7145 14.3801 91.1649 13.9643 90.7303 13.4411C90.2733 12.8791 89.9285 12.2345 89.7148 11.5424C89.4698 10.7341 89.3509 9.89279 89.3622 9.04821C89.3492 8.19835 89.4764 7.35215 89.7387 6.54367C89.9696 5.8471 90.334 5.2022 90.8116 4.64505C91.2679 4.12034 91.8377 3.70643 92.4778 3.43472C93.1663 3.15022 93.9054 3.00863 94.6503 3.01855C95.1946 3.01578 95.7376 3.07448 96.2687 3.19355C96.6812 3.27807 97.0764 3.43171 97.4376 3.64796L96.7599 5.42009C96.4968 5.26756 96.2126 5.15458 95.9166 5.08479C95.5232 4.98867 95.1193 4.94223 94.7143 4.94654C94.2906 4.94145 93.8705 5.02566 93.4815 5.19367C93.0949 5.36048 92.7532 5.61647 92.4844 5.94069C92.1796 6.31787 91.9496 6.74978 91.8068 7.21322C91.6311 7.80371 91.5488 8.418 91.5626 9.03391C91.5476 9.646 91.6227 10.257 91.7854 10.8472C91.9095 11.3084 92.1124 11.7448 92.3851 12.137C92.6124 12.4588 92.913 12.7221 93.262 12.905C93.5832 13.0681 93.9381 13.1537 94.2984 13.155C94.5443 13.1574 94.7901 13.1417 95.0337 13.1079C95.1919 13.0942 95.3457 13.0487 95.4859 12.9741V9.72604H93.7804V8.00256H97.532V14.444C97.1354 14.6495 96.7123 14.799 96.2746 14.8882Z" fill="#004282"/>
<path d="M106.646 5.11299V14.8781H104.47V5.11299H102.096V3.2085H108.996V5.11299H106.646Z" fill="#004282"/>
<path d="M117.377 14.878L116.557 12.1543H112.682L111.865 14.878H109.59L113.329 3.2083H115.897L119.648 14.878H117.377ZM116.463 2.81419L114.652 1.41268L112.833 2.823L112.124 2.16272L113.875 0.405282C113.968 0.296824 114.083 0.210154 114.213 0.151435C114.344 0.0927156 114.485 0.0633889 114.628 0.06554C114.768 0.0646373 114.907 0.094599 115.035 0.153306C115.162 0.212014 115.275 0.298033 115.366 0.405282L117.114 2.16272L116.463 2.81419ZM114.942 6.49525C114.891 6.33344 114.845 6.17019 114.807 6.00695C114.768 5.85422 114.738 5.6996 114.716 5.54372C114.686 5.38048 114.656 5.22747 114.635 5.07899H114.605C114.584 5.22755 114.553 5.38018 114.527 5.54372C114.502 5.68784 114.475 5.83934 114.436 6.00695C114.398 6.17198 114.352 6.33496 114.298 6.49525L113.126 10.4792H116.115L114.942 6.49525Z" fill="#004282"/>
<path d="M130.608 14.8781L129.809 7.45135C129.788 7.26757 129.773 7.08081 129.764 6.89106C129.752 6.70131 129.74 6.53219 129.734 6.38808C129.722 6.20427 129.71 6.03215 129.698 5.8689H129.67C129.646 6.03215 129.616 6.20427 129.577 6.38808C129.535 6.53219 129.493 6.70131 129.448 6.89106C129.399 7.08074 129.351 7.26755 129.297 7.45135L127.179 14.8781H125.784L123.657 7.45135C123.602 7.26755 123.551 7.08074 123.5 6.89106C123.451 6.70131 123.412 6.53219 123.379 6.38808C123.343 6.20427 123.307 6.03215 123.283 5.8689H123.256C123.247 6.03215 123.235 6.20427 123.223 6.38808C123.217 6.53219 123.201 6.70131 123.183 6.89106C123.174 7.08074 123.162 7.26755 123.138 7.45135L122.355 14.8781H120.321L121.719 3.2085H124.194L126.137 10.0309C126.191 10.1956 126.24 10.3706 126.279 10.5397C126.315 10.7147 126.351 10.878 126.381 11.0338C126.42 11.1971 126.45 11.3652 126.475 11.528H126.508C126.52 11.3612 126.547 11.1958 126.589 11.0338C126.616 10.878 126.649 10.7147 126.689 10.5397C126.73 10.3706 126.773 10.1956 126.827 10.0309L128.765 3.2085H131.229L132.637 14.8781H130.608Z" fill="#004282"/>
<path d="M137.352 14.8781V3.2085H139.545V12.9737H143.026V14.8781H137.352Z" fill="#004282"/>
<path d="M152.18 4.30236V11.432C152.192 11.9587 152.092 12.4819 151.888 12.9674C151.705 13.3984 151.431 13.7843 151.083 14.0983C150.728 14.4091 150.314 14.6465 149.866 14.7969C149.373 14.9615 148.857 15.0429 148.338 15.0379C147.825 15.0432 147.315 14.9617 146.828 14.7969C146.383 14.6478 145.972 14.4101 145.62 14.0983C145.273 13.7844 144.998 13.3985 144.816 12.9674C144.61 12.4821 144.51 11.9589 144.52 11.432V3.20814H146.717V11.4497C146.705 11.6728 146.74 11.8959 146.822 12.1039C146.904 12.3118 147.029 12.4996 147.19 12.6545C147.5 12.9461 147.913 13.1041 148.338 13.0942C148.771 13.1047 149.191 12.9471 149.51 12.6545C149.671 12.4996 149.797 12.3118 149.879 12.1039C149.96 11.8959 149.996 11.6728 149.983 11.4497V3.20814H151.258L151.719 2.37987C151.886 2.2684 152.072 2.18687 152.267 2.13892C152.524 2.07187 152.79 2.05047 153.054 2.07567C153.29 2.08634 153.52 2.15128 153.726 2.26542C153.895 2.36692 153.985 2.46119 154 2.54779L152.18 4.30236Z" fill="#004282"/>
<path d="M161.603 12.9678C161.419 13.399 161.143 13.785 160.795 14.0987C160.44 14.4107 160.026 14.6483 159.577 14.7973C159.087 14.9616 158.573 15.043 158.056 15.0382C157.541 15.0435 157.028 14.962 156.54 14.7973C156.095 14.6481 155.685 14.4105 155.335 14.0987C154.986 13.7851 154.709 13.3992 154.524 12.9678C154.323 12.4814 154.223 11.9588 154.232 11.4324V3.2085H156.432V11.4501C156.419 11.6729 156.455 11.8957 156.536 12.1035C156.617 12.3114 156.742 12.4994 156.902 12.6548C157.214 12.9475 157.628 13.1055 158.056 13.0945C158.486 13.1056 158.904 12.9478 159.219 12.6548C159.381 12.5008 159.508 12.3132 159.591 12.1052C159.674 11.8972 159.71 11.6736 159.698 11.4501V3.2085H161.892V11.4324C161.901 11.9586 161.803 12.4812 161.603 12.9678Z" fill="#004282"/>
<path d="M172.83 14.8781L169.274 9.08086H169.244V14.8781H167.048V3.2085H169.244V8.497H169.274L172.789 3.2085H175.236L171.481 8.78667L175.323 14.8782L172.83 14.8781Z" fill="#004282"/>
<path d="M181.071 10.2984V14.878H178.895V10.2984L175.571 3.20837H177.922L179.953 8.01452H179.986L182.047 3.20837H184.4L181.071 10.2984ZM179.507 2.6084L180.444 0.493598C180.563 0.325691 180.724 0.192095 180.91 0.106344C181.097 0.0205923 181.303 -0.0142678 181.508 0.00529449C182.002 0.00529449 182.306 0.168539 182.412 0.493598L180.532 2.61698L179.507 2.6084Z" fill="#004282"/>
<path d="M57.4332 37.4993C56.9759 37.6248 56.5033 37.6856 56.0291 37.68C55.4323 37.6815 54.8423 37.5541 54.2993 37.3065C53.7453 37.0481 53.2594 36.6639 52.8801 36.1845C52.4467 35.6246 52.1226 34.9879 51.9249 34.308C51.6814 33.4437 51.5657 32.5483 51.5815 31.6505C51.5656 30.7537 51.6813 29.8593 51.9249 28.996C52.1198 28.3118 52.444 27.6713 52.8801 27.1092C53.257 26.6285 53.7437 26.2452 54.2993 25.9915C54.8425 25.7449 55.4326 25.6186 56.0291 25.6212C56.4947 25.6188 56.9586 25.6776 57.4089 25.7962C57.7779 25.8874 58.1286 26.0411 58.4458 26.2506L57.7649 28.0683C57.5798 27.9251 57.3705 27.8165 57.1468 27.7477C56.8703 27.6499 56.5788 27.6011 56.2854 27.6036C55.9275 27.6057 55.5762 27.7007 55.266 27.8794C54.9559 28.058 54.6974 28.3142 54.5159 28.6227C53.993 29.537 53.752 30.5853 53.8232 31.6361C53.7516 32.6845 53.9928 33.7306 54.5162 34.6418C54.7001 34.9472 54.9594 35.2003 55.2693 35.3767C55.5791 35.5531 55.9291 35.6469 56.2856 35.6491C56.5786 35.6509 56.8697 35.6037 57.147 35.5094C57.3708 35.4417 57.5803 35.3336 57.7651 35.1903L58.446 37.0462C58.1374 37.255 57.7946 37.4084 57.4332 37.4993Z" fill="#004282"/>
<path d="M65.6361 37.4805V32.5006H62.2068V37.4805H60.0098V25.8105H62.2068V30.6343H65.6364V25.8105H67.8085V37.4805H65.6361Z" fill="#004282"/>
<path d="M77.5304 26.905V34.0346C77.5402 34.5609 77.4416 35.0835 77.2406 35.57C77.0549 36.0001 76.7797 36.3856 76.4333 36.7009C76.0772 37.011 75.6637 37.2484 75.2163 37.3995C74.7229 37.5641 74.2055 37.6455 73.6853 37.6405C73.1731 37.6455 72.6638 37.5641 72.1787 37.3995C71.7329 37.2492 71.3215 37.0117 70.9684 36.7009C70.6195 36.3878 70.3438 36.0017 70.161 35.57C69.9605 35.0834 69.8621 34.5608 69.8717 34.0346V25.8107H72.0652V34.0523C72.0537 34.2754 72.0901 34.4984 72.172 34.7062C72.254 34.9141 72.3795 35.1019 72.5402 35.2571C72.8495 35.5477 73.2604 35.7055 73.6847 35.6967C74.1189 35.71 74.541 35.5521 74.8598 35.2571C75.0208 35.1024 75.1463 34.9145 75.2274 34.7064C75.3085 34.4984 75.3434 34.2752 75.3297 34.0523V25.8107H76.6077L77.0717 24.9825C77.2388 24.8704 77.4246 24.7888 77.6202 24.7415C77.8754 24.6743 78.1406 24.6529 78.4033 24.6783C78.6379 24.6894 78.8669 24.7543 79.0724 24.868C79.2474 24.9695 79.3379 25.0638 79.3496 25.1504L77.5304 26.905ZM72.8956 25.2108L73.8236 23.096C73.943 22.9282 74.1045 22.7948 74.2918 22.7092C74.479 22.6235 74.6855 22.5885 74.8905 22.6077C75.3906 22.6077 75.6862 22.7709 75.7884 23.096L73.9081 25.2194L72.8956 25.2108Z" fill="#004282"/>
<path d="M86.1125 37.4805L82.1167 30.5626C82.0166 30.4074 81.9261 30.2464 81.8456 30.0802C81.7669 29.9184 81.695 29.7758 81.647 29.6522C81.5801 29.4993 81.5198 29.3449 81.4596 29.1949H81.4117C81.4117 29.3449 81.4294 29.5081 81.4419 29.6831V30.1714C81.4596 30.3521 81.4596 30.5328 81.4596 30.7141V37.4805H79.5859V25.8105H81.4596L85.3649 32.5447C85.4552 32.7079 85.5456 32.8712 85.6244 33.0329C85.7023 33.1903 85.775 33.3373 85.8413 33.4668C85.9134 33.6212 85.9855 33.768 86.0399 33.9198H86.0759C86.0641 33.7683 86.0641 33.6035 86.0641 33.4197C86.0524 33.2682 86.0399 33.0991 86.0399 32.9124V25.8105H87.9201V37.4805H86.1125Z" fill="#004282"/>
<path d="M96.5623 37.4908C95.965 37.624 95.3543 37.6877 94.7423 37.6805C94.0136 37.6882 93.2912 37.5445 92.6209 37.2585C92.0004 36.9848 91.4532 36.5686 91.0238 36.0437C90.5618 35.4846 90.2156 34.8392 90.0054 34.1451C89.7595 33.3369 89.6397 32.4956 89.6502 31.6508C89.6381 30.8008 89.7663 29.9546 90.0296 29.1463C90.2556 28.4476 90.6205 27.8018 91.1025 27.2477C91.5583 26.7237 92.127 26.3099 92.7658 26.0374C93.4549 25.752 94.1951 25.6103 94.9409 25.6212C95.4842 25.6187 96.0262 25.6774 96.5564 25.7962C96.9689 25.8807 97.3642 26.0344 97.7255 26.2506L97.0505 28.0227C96.7847 27.8707 96.4984 27.7578 96.2005 27.6874C95.8081 27.5909 95.4051 27.5444 95.0011 27.5492C94.5784 27.5436 94.1594 27.6278 93.7717 27.7963C93.3841 27.963 93.0415 28.219 92.7716 28.5433C92.4667 28.92 92.2375 29.3521 92.0966 29.8158C91.9187 30.4059 91.8353 31.0204 91.8496 31.6365C91.8375 32.2485 91.9125 32.859 92.0724 33.4498C92.1969 33.9105 92.3988 34.3466 92.6695 34.7396C92.8991 35.0604 93.2001 35.3233 93.5489 35.5076C93.8703 35.6705 94.2254 35.7561 94.5857 35.7576C94.8297 35.7603 95.0735 35.7446 95.3151 35.7106C95.4748 35.696 95.6302 35.6506 95.7725 35.5768V32.3288H94.0673V30.6052H97.8218V37.0466C97.4243 37.2516 97.0005 37.4011 96.5623 37.4908Z" fill="#004282"/>
<path d="M108.724 37.4805L105.169 31.6826H105.132V37.4805H102.938V25.8105H105.132V31.0991H105.169L108.676 25.8105H111.123L107.368 31.3889L111.207 37.4805H108.724Z" fill="#004282"/>
<path d="M118.004 37.4805V32.5006H114.575V37.4805H112.382V25.8105H114.575V30.6343H118.004V25.8105H120.186V37.4805H118.004Z" fill="#004282"/>
<path d="M130.594 31.6508C130.598 32.4495 130.509 33.2461 130.329 34.0244C130.172 34.7033 129.897 35.3491 129.515 35.9318C129.173 36.4589 128.71 36.897 128.166 37.2098C127.582 37.5335 126.922 37.6959 126.254 37.6804C125.589 37.6967 124.932 37.5342 124.351 37.2098C123.804 36.8974 123.339 36.4593 122.995 35.9318C122.615 35.3488 122.341 34.703 122.187 34.0244C121.834 32.4582 121.834 30.8331 122.187 29.2669C122.341 28.5874 122.615 27.9407 122.995 27.3565C123.339 26.8305 123.804 26.3943 124.351 26.084C124.933 25.7636 125.59 25.604 126.254 25.6214C126.921 25.6049 127.58 25.7647 128.165 26.0846C128.71 26.3954 129.173 26.8317 129.515 27.3572C129.896 27.941 130.172 28.5878 130.329 29.2675C130.509 30.049 130.598 30.8488 130.594 31.6508ZM128.4 31.6508C128.405 31.0998 128.357 30.5497 128.256 30.0081C128.186 29.5683 128.052 29.1411 127.858 28.7404C127.707 28.4162 127.477 28.1351 127.189 27.9226C126.914 27.7349 126.588 27.6344 126.255 27.6344C125.921 27.6344 125.596 27.7349 125.32 27.9226C125.035 28.1355 124.807 28.4166 124.658 28.7404C124.456 29.1392 124.318 29.5668 124.248 30.0081C124.071 31.0946 124.071 32.2025 124.248 33.2891C124.318 33.7308 124.456 34.1589 124.658 34.5582C124.808 34.8802 125.035 35.1597 125.32 35.3714C125.595 35.562 125.921 35.6641 126.255 35.6641C126.589 35.6641 126.915 35.562 127.189 35.3714C127.476 35.16 127.706 34.8806 127.858 34.5582C128.052 34.157 128.186 33.7294 128.256 33.2891C128.357 32.7489 128.405 32.2002 128.4 31.6508H128.4Z" fill="#004282"/>
<path d="M139.2 37.4809L138.375 34.7572H134.505L133.686 37.4809H131.414L135.15 25.8112H137.718L141.473 37.4809H139.2ZM136.766 29.0982C136.717 28.9364 136.669 28.7731 136.627 28.6099C136.588 28.4574 136.557 28.3027 136.536 28.1467C136.507 27.9834 136.476 27.8304 136.459 27.6819H136.428C136.404 27.8305 136.38 27.9831 136.344 28.1467C136.324 28.3028 136.293 28.4575 136.254 28.6099C136.218 28.7749 136.174 28.9379 136.121 29.0982L134.946 33.0822H137.941L136.766 29.0982ZM135.555 25.2113L136.483 23.0965C136.602 22.9287 136.763 22.7953 136.95 22.7096C137.138 22.6239 137.344 22.5889 137.549 22.6082C138.05 22.6082 138.351 22.7709 138.453 23.0965L136.567 25.2198L135.555 25.2113Z" fill="#004282"/>
<path d="M149.119 37.4805L145.13 30.5626C145.03 30.4074 144.94 30.2464 144.859 30.0802C144.78 29.9184 144.714 29.7757 144.66 29.6522C144.6 29.4993 144.533 29.3449 144.473 29.1949H144.431C144.431 29.3579 144.439 29.5209 144.455 29.6831C144.455 29.8301 144.455 29.9905 144.461 30.1714C144.467 30.3523 144.473 30.5328 144.473 30.7141V37.4805H142.599V25.8105H144.473L148.384 32.5447C148.469 32.7079 148.553 32.8712 148.638 33.0329C148.71 33.1903 148.788 33.3373 148.855 33.4668C148.927 33.6212 148.993 33.768 149.059 33.9198H149.089C149.078 33.7683 149.072 33.6035 149.072 33.4197C149.065 33.2682 149.059 33.0991 149.059 32.9124V25.8105H150.934V37.4805H149.119Z" fill="#004282"/>
<path d="M160.998 37.4807H158.689L155.242 25.811H157.599L159.503 33.404C159.545 33.5879 159.587 33.7776 159.623 33.9776C159.66 34.1733 159.69 34.354 159.726 34.5159C159.768 34.7085 159.798 34.9027 159.822 35.0835H159.859C159.867 34.8923 159.894 34.7023 159.937 34.5159C159.961 34.354 159.991 34.1732 160.028 33.9776C160.075 33.7776 160.124 33.5879 160.178 33.404L162.058 25.811H164.426L160.998 37.4807Z" fill="#004282"/>
<path d="M165.645 37.4805V25.8105H167.838V37.4805H165.645Z" fill="#004282"/>
<path d="M169.894 37.4806V25.8106H175.86V27.7151H172.033V30.6344H175.486V32.5006H172.033V35.5756H175.86V37.4806H169.894ZM174.721 25.4168L172.907 24.0153L171.087 25.4255L170.382 24.7652L172.13 23.0078C172.223 22.8999 172.339 22.8136 172.469 22.755C172.599 22.6963 172.74 22.6666 172.882 22.668C173.024 22.6692 173.163 22.7 173.292 22.7585C173.421 22.8171 173.536 22.902 173.63 23.0078L175.372 24.7652L174.721 25.4168ZM173.913 38.988C173.914 39.1211 173.888 39.253 173.836 39.3757C173.784 39.4983 173.708 39.6091 173.612 39.7012C173.415 39.8927 173.151 39.9998 172.877 39.9998C172.602 39.9998 172.338 39.8927 172.141 39.7012C172.043 39.6104 171.965 39.5 171.912 39.3771C171.859 39.2543 171.833 39.1217 171.834 38.988C171.832 38.8543 171.858 38.7216 171.911 38.5989C171.964 38.4761 172.042 38.3661 172.141 38.2762C172.341 38.0909 172.604 37.9879 172.877 37.9879C173.149 37.9879 173.412 38.0909 173.612 38.2762C173.709 38.3674 173.786 38.4777 173.837 38.6002C173.889 38.7227 173.915 38.8547 173.913 38.9877V38.988Z" fill="#004282"/>
<path d="M181.573 27.715V37.4805H179.398V27.715H177.023V25.8105H183.93V27.715H181.573Z" fill="#004282"/>
<path d="M195.059 37.4805L191.07 30.5623C190.972 30.4069 190.883 30.2458 190.805 30.0799C190.72 29.9181 190.654 29.7755 190.6 29.6519C190.533 29.499 190.473 29.3446 190.413 29.1946H190.371C190.371 29.3446 190.383 29.5078 190.395 29.6828C190.395 29.8298 190.395 29.9901 190.407 30.1711C190.407 30.3518 190.413 30.5325 190.413 30.7138V37.4805H188.539V25.8105H190.413L194.325 32.5447C194.414 32.7079 194.493 32.8712 194.578 33.0329C194.656 33.1903 194.728 33.3373 194.794 33.4668C194.867 33.6212 194.939 33.768 195 33.9198H195.029C195.023 33.7683 195.017 33.6035 195.017 33.4197C195.006 33.2682 195 33.0991 195 32.9124V25.8105H196.88V37.4805H195.059Z" fill="#004282"/>
<path d="M205.787 37.4807L204.973 34.757H201.104L200.279 37.4807H198.007L201.743 25.811H204.311L208.071 37.4807H205.787ZM203.364 29.098C203.31 28.9362 203.262 28.7729 203.219 28.6097C203.183 28.4421 203.153 28.2906 203.135 28.1465C203.099 27.9832 203.075 27.8302 203.057 27.6817H203.021C202.996 27.8303 202.972 27.9829 202.943 28.1465C202.924 28.2906 202.888 28.4421 202.852 28.6097C202.815 28.7747 202.768 28.9377 202.713 29.098L201.539 33.082H204.528L203.364 29.098Z" fill="#004282"/>
<path d="M219.028 37.4807L218.226 30.0539C218.208 29.8701 218.19 29.6833 218.178 29.4936C218.172 29.3039 218.16 29.1347 218.148 28.9906C218.136 28.8068 218.13 28.6347 218.117 28.4711H218.087C218.064 28.6343 218.034 28.8064 217.991 28.9906C217.955 29.1347 217.913 29.3039 217.87 29.4936C217.817 29.6833 217.768 29.8701 217.72 30.0539L215.599 37.4807H214.194L212.073 30.0539C212.018 29.8701 211.964 29.6833 211.916 29.4936C211.868 29.3039 211.826 29.1347 211.801 28.9906C211.757 28.82 211.725 28.6463 211.705 28.4711H211.669C211.663 28.6343 211.651 28.8064 211.645 28.9906C211.627 29.1347 211.621 29.3039 211.603 29.4936C211.59 29.6833 211.573 29.8701 211.548 30.0539L210.765 37.4807H208.734L210.132 25.811H212.609L214.549 32.6334C214.609 32.7995 214.658 32.9695 214.694 33.1423C214.73 33.3173 214.767 33.4805 214.796 33.6364C214.839 33.7987 214.869 33.9638 214.887 34.1306H214.924C214.934 33.9633 214.962 33.7977 215.007 33.6364C215.027 33.4695 215.059 33.3043 215.104 33.1423C215.146 32.9732 215.194 32.7981 215.243 32.6334L217.183 25.811H219.642L221.052 37.4807H219.028Z" fill="#004282"/>
<defs>
<linearGradient id="paint0_linear" x1="14.9589" y1="9.5527" x2="33.445" y2="39.1915" gradientUnits="userSpaceOnUse">
<stop offset="0.0381" stop-color="#FFDD00"/>
<stop offset="0.1837" stop-color="#FCC208"/>
<stop offset="0.4959" stop-color="#F47C1D"/>
<stop offset="0.545" stop-color="#F37021"/>
<stop offset="1" stop-color="#FFDD00"/>
</linearGradient>
<linearGradient id="paint1_linear" x1="30.2603" y1="36.0156" x2="11.4505" y2="4.17209" gradientUnits="userSpaceOnUse">
<stop offset="0.1298" stop-color="#231F20"/>
<stop offset="0.735" stop-color="#BFBEBE"/>
<stop offset="1" stop-color="white"/>
</linearGradient>
<linearGradient id="paint2_linear" x1="18.5733" y1="42.9767" x2="26.3731" y2="-0.465083" gradientUnits="userSpaceOnUse">
<stop offset="0.0381" stop-color="#FFDD00"/>
<stop offset="0.3634" stop-color="#FCC20A"/>
<stop offset="1" stop-color="#F58220"/>
</linearGradient>
<linearGradient id="paint3_linear" x1="369.127" y1="1022.19" x2="-168.159" y2="563.603" gradientUnits="userSpaceOnUse">
<stop offset="0.0381" stop-color="#FFDD00"/>
<stop offset="0.3634" stop-color="#FCC20A"/>
<stop offset="1" stop-color="#F58220"/>
</linearGradient>
<linearGradient id="paint4_linear" x1="26.1397" y1="-4.93706" x2="21.3224" y2="21.8936" gradientUnits="userSpaceOnUse">
<stop offset="0.0381" stop-color="#FFDD00"/>
<stop offset="0.3145" stop-color="#FCC208"/>
<stop offset="0.9069" stop-color="#F47C1D"/>
<stop offset="1" stop-color="#F37021"/>
</linearGradient>
<linearGradient id="paint5_linear" x1="178.059" y1="-37.3445" x2="94.7855" y2="213.007" gradientUnits="userSpaceOnUse">
<stop offset="0.0381" stop-color="#FFDD00"/>
<stop offset="0.3145" stop-color="#FCC208"/>
<stop offset="0.9069" stop-color="#F47C1D"/>
<stop offset="1" stop-color="#F37021"/>
</linearGradient>
<linearGradient id="paint6_linear" x1="487.579" y1="-138.102" x2="339.721" y2="509.157" gradientUnits="userSpaceOnUse">
<stop offset="0.0381" stop-color="#FFDD00"/>
<stop offset="0.3145" stop-color="#FCC208"/>
<stop offset="0.9069" stop-color="#F47C1D"/>
<stop offset="1" stop-color="#F37021"/>
</linearGradient>
<linearGradient id="paint7_linear" x1="33.0029" y1="42.4395" x2="34.6787" y2="-2.12113" gradientUnits="userSpaceOnUse">
<stop stop-color="#004282"/>
<stop offset="0.3214" stop-color="#004A8F"/>
<stop offset="0.6454" stop-color="#2188C1"/>
<stop offset="1" stop-color="#44C8F5"/>
</linearGradient>
<linearGradient id="paint8_linear" x1="32.1567" y1="7.67792" x2="23.3639" y2="60.0306" gradientUnits="userSpaceOnUse">
<stop offset="0.1604" stop-color="#004282"/>
<stop offset="0.3376" stop-color="#006AA6"/>
<stop offset="0.5329" stop-color="#008FC7"/>
<stop offset="0.7147" stop-color="#00AADF"/>
<stop offset="0.8759" stop-color="#00BAEE"/>
<stop offset="1" stop-color="#00C0F3"/>
</linearGradient>
<linearGradient id="paint9_linear" x1="101.596" y1="236.227" x2="95.9685" y2="217.42" gradientUnits="userSpaceOnUse">
<stop stop-color="#231F20"/>
<stop offset="0.645833" stop-color="#BFBEBE"/>
<stop offset="0.864583" stop-color="white" stop-opacity="0.5"/>
<stop offset="1" stop-color="white" stop-opacity="0.2"/>
</linearGradient>
<linearGradient id="paint10_linear" x1="39.0771" y1="4.40496" x2="31.4256" y2="38.687" gradientUnits="userSpaceOnUse">
<stop offset="0.1604" stop-color="#0072BC"/>
<stop offset="1" stop-color="#14B1E7"/>
</linearGradient>
<linearGradient id="paint11_linear" x1="10.7412" y1="-1.25543" x2="9.06543" y2="43.3052" gradientUnits="userSpaceOnUse">
<stop stop-color="#004282"/>
<stop offset="0.3214" stop-color="#004A8F"/>
<stop offset="0.6454" stop-color="#2188C1"/>
<stop offset="1" stop-color="#44C8F5"/>
</linearGradient>
<linearGradient id="paint12_linear" x1="11.5864" y1="33.5057" x2="20.3793" y2="-18.847" gradientUnits="userSpaceOnUse">
<stop offset="0.1604" stop-color="#004282"/>
<stop offset="0.3376" stop-color="#006AA6"/>
<stop offset="0.5329" stop-color="#008FC7"/>
<stop offset="0.7147" stop-color="#00AADF"/>
<stop offset="0.8759" stop-color="#00BAEE"/>
<stop offset="1" stop-color="#00C0F3"/>
</linearGradient>
<linearGradient id="paint13_linear" x1="-57.8519" y1="-195.044" x2="-52.2244" y2="-176.236" gradientUnits="userSpaceOnUse">
<stop stop-color="#231F20"/>
<stop offset="0.645833" stop-color="#BFBEBE"/>
<stop offset="0.864583" stop-color="white" stop-opacity="0.5"/>
<stop offset="1" stop-color="white" stop-opacity="0.2"/>
</linearGradient>
<linearGradient id="paint14_linear" x1="4.66607" y1="36.7791" x2="12.3176" y2="2.49708" gradientUnits="userSpaceOnUse">
<stop offset="0.1604" stop-color="#0072BC"/>
<stop offset="1" stop-color="#14B1E7"/>
</linearGradient>
<linearGradient id="paint15_linear" x1="-45377.7" y1="43743.6" x2="-45264.4" y2="43341.1" gradientUnits="userSpaceOnUse">
<stop offset="0.0381" stop-color="#FFDD00"/>
<stop offset="0.3145" stop-color="#FCC208"/>
<stop offset="0.9069" stop-color="#F47C1D"/>
<stop offset="1" stop-color="#F37021"/>
</linearGradient>
<linearGradient id="paint16_linear" x1="-29319.9" y1="34639.1" x2="-29236.6" y2="34388.7" gradientUnits="userSpaceOnUse">
<stop offset="0.0381" stop-color="#FFDD00"/>
<stop offset="0.3145" stop-color="#FCC208"/>
<stop offset="0.9069" stop-color="#F47C1D"/>
<stop offset="1" stop-color="#F37021"/>
</linearGradient>
<linearGradient id="paint17_linear" x1="-72302.4" y1="55159.1" x2="-72154.5" y2="54511.8" gradientUnits="userSpaceOnUse">
<stop offset="0.0381" stop-color="#FFDD00"/>
<stop offset="0.3145" stop-color="#FCC208"/>
<stop offset="0.9069" stop-color="#F47C1D"/>
<stop offset="1" stop-color="#F37021"/>
</linearGradient>
</defs>
</svg>
