<svg width="198" height="77" viewBox="0 0 198 77" fill="none" xmlns="http://www.w3.org/2000/svg">
<path d="M0 59.0467H8.3L15.4 45.22H30.7V39.2133H18.5L30.7 15.4133V0L0 59.0467Z" fill="#71746E"/>
<path d="M197 59.0467H188.7L181.6 45.22H166.3V39.2133H178.5L166.3 15.4133V0L197 59.0467Z" fill="#71746E"/>
<path d="M37.2002 59.0467V0H45.0002L87.5002 48.0533V0H94.9002V59.0467H87.4002L44.8002 10.88V59.0467H37.2002Z" fill="#0C497D"/>
<path d="M102.9 59.0467V0H110.6L153.2 48.0533V0H160.6V59.0467H153L110.5 10.88V59.0467H102.9Z" fill="#0C497D"/>
<path d="M0.899902 66.8667H1.7999V76.16H0.899902V66.8667Z" fill="black"/>
<path d="M5.1001 74.9134L5.7001 74.1201C6.4001 74.9134 7.2001 75.4801 8.4001 75.4801C9.7001 75.4801 10.3001 74.6867 10.3001 73.8934C10.3001 72.8734 9.5001 72.5334 8.1001 72.0801C6.4001 71.6267 5.4001 71.0601 5.4001 69.4734C5.4001 68.0001 6.6001 66.7534 8.2001 66.7534C9.4001 66.7534 10.3001 67.3201 11.1001 68.1134L10.5001 68.9067C9.8001 68.1134 9.0001 67.6601 8.1001 67.6601C7.1001 67.6601 6.3001 68.4534 6.3001 69.2467C6.3001 70.2667 7.1001 70.6067 8.5001 70.9467C10.1001 71.4001 11.2001 71.9667 11.2001 73.6667C11.2001 75.1401 10.2001 76.3867 8.3001 76.3867C7.0001 76.3867 5.9001 75.8201 5.1001 74.9134Z" fill="black"/>
<path d="M14.6001 66.8667H15.5001V76.16H14.6001V66.8667Z" fill="black"/>
<path d="M19.2998 66.8667H20.1998L25.2998 74.46V66.8667H26.1998V76.16H25.2998L20.1998 68.5667V76.16H19.2998V66.8667Z" fill="black"/>
<path d="M35.5 66.8667H36.4L41.5 74.46V66.8667H42.4V76.16H41.5L36.4 68.5667V76.16H35.5V66.8667Z" fill="black"/>
<path d="M46.3999 72.42V66.8667H47.2999V72.3067C47.2999 74.12 48.2999 75.3667 49.7999 75.3667C51.2999 75.3667 52.2999 74.12 52.2999 72.3067V66.8667H53.1999V72.3067C53.1999 74.6867 51.7999 76.3867 49.7999 76.3867C47.7999 76.3867 46.3999 74.6867 46.3999 72.42Z" fill="black"/>
<path d="M57.1997 66.8667H58.0997L61.1997 73.3267L64.2997 66.8667H65.1997V76.16H64.2997V69.1334L61.1997 75.5934L58.0997 69.1334V76.16H57.1997V66.8667Z" fill="black"/>
<path d="M69.1001 66.8667H72.9001C74.2001 66.8667 75.2001 67.8867 75.2001 69.2467C75.2001 70.2667 74.8001 70.8334 74.0001 71.2867C74.9001 71.8534 75.5001 72.6467 75.5001 73.6667C75.5001 75.14 74.5001 76.2734 73.1001 76.2734H69.2001V66.8667H69.1001ZM72.7001 70.8334C73.6001 70.8334 74.3001 70.1534 74.3001 69.36C74.3001 68.5667 73.7001 67.8867 72.7001 67.8867H70.1001V70.8334H72.7001ZM72.8001 75.2534C73.8001 75.2534 74.5001 74.5734 74.5001 73.5534C74.5001 72.5334 73.8001 71.8534 72.8001 71.8534H70.1001V75.2534H72.8001Z" fill="black"/>
<path d="M79.7999 67.8867V70.9467H84.2999V71.9667H79.7999V75.2534H84.7999V76.2734H78.8999V66.8667H84.7999V67.8867H79.7999Z" fill="black"/>
<path d="M92.3001 72.76L94.4001 76.16H93.3001L91.2001 72.76H89.0001V76.16H88.1001V66.8667H91.4001C93.1001 66.8667 94.4001 68.1134 94.4001 69.8134C94.5001 71.4 93.6001 72.5334 92.3001 72.76ZM89.0001 71.8534H91.2001C92.5001 71.8534 93.5001 71.1734 93.5001 69.8134C93.5001 68.5667 92.6001 67.7734 91.2001 67.7734H89.0001V71.8534Z" fill="black"/>
<path d="M97.1997 74.9134L97.7997 74.1201C98.4997 74.9134 99.2997 75.4801 100.5 75.4801C101.8 75.4801 102.4 74.6867 102.4 73.8934C102.4 72.8734 101.6 72.5334 100.2 72.0801C98.4997 71.6267 97.4997 71.0601 97.4997 69.4734C97.4997 68.0001 98.6997 66.7534 100.3 66.7534C101.5 66.7534 102.4 67.3201 103.2 68.1134L102.6 68.9067C101.9 68.1134 101.1 67.6601 100.2 67.6601C99.1997 67.6601 98.3997 68.4534 98.3997 69.2467C98.3997 70.2667 99.1997 70.6067 100.6 70.9467C102.2 71.4001 103.3 71.9667 103.3 73.6667C103.3 75.1401 102.3 76.3867 100.4 76.3867C99.0997 76.3867 98.0997 75.8201 97.1997 74.9134Z" fill="black"/>
<path d="M114.3 67.8867H111.5V66.8667H118V67.8867H115.2V76.2734H114.3V67.8867Z" fill="black"/>
<path d="M128 66.8667V76.16H127V71.8534H122.1V76.16H121.2V66.8667H122.1V70.9467H127V66.8667H128Z" fill="black"/>
<path d="M132.5 67.8867V70.9467H137V71.9667H132.5V75.2534H137.5V76.2734H131.6V66.8667H137.5V67.8867H132.5Z" fill="black"/>
<path d="M145.5 66.8667H146.6L148.9 74.46L151.1 66.8667H152.1L154.3 74.46L156.6 66.8667H157.7L154.9 76.16H154L151.7 68.2267L149.4 76.16H148.5L145.5 66.8667Z" fill="black"/>
<path d="M160.4 71.5135C160.4 68.9068 162.3 66.6401 164.6 66.6401C166.9 66.6401 168.8 68.7935 168.8 71.5135C168.8 74.1201 166.9 76.3868 164.6 76.3868C162.4 76.3868 160.4 74.2335 160.4 71.5135ZM167.9 71.5135C167.9 69.4735 166.4 67.6601 164.6 67.6601C162.8 67.6601 161.3 69.4735 161.3 71.5135C161.3 73.5535 162.8 75.3668 164.6 75.3668C166.4 75.4801 167.9 73.6668 167.9 71.5135Z" fill="black"/>
<path d="M176.3 72.76L178.4 76.16H177.3L175.2 72.76H173V76.16H172.1V66.8667H175.4C177.1 66.8667 178.4 68.1134 178.4 69.8134C178.5 71.4 177.6 72.5334 176.3 72.76ZM173.1 71.8534H175.3C176.6 71.8534 177.6 71.1734 177.6 69.8134C177.6 68.5667 176.7 67.7734 175.3 67.7734H173.1V71.8534Z" fill="black"/>
<path d="M187 75.2534V76.2734H181.6V66.8667H182.5V75.2534H187Z" fill="black"/>
<path d="M190.2 66.8667H193C195.6 66.8667 197.5 68.7934 197.5 71.5134C197.5 74.2334 195.7 76.16 193 76.16H190.2V66.8667ZM193 75.2534C195.1 75.2534 196.5 73.6667 196.5 71.5134C196.5 69.36 195 67.7734 193 67.7734H191.2V75.14H193V75.2534Z" fill="black"/>
</svg>
