<svg width="86" height="86" viewBox="0 0 86 86" fill="none" xmlns="http://www.w3.org/2000/svg">
<path d="M38.4797 1C24.4555 1 12.7493 11.8062 9.27219 26.5659C3.70884 32.7597 0.347656 41.4574 0.347656 51.0775C0.347656 69.9225 13.9083 85.3411 30.4824 85.3411C32.1051 85.3411 33.6118 85.2093 35.2345 84.9457C36.8571 84.6822 38.3638 84.2868 39.8706 83.6279V77.9612C38.3638 78.6202 36.8571 79.1473 35.2345 79.4109C33.7277 79.8062 32.1051 79.938 30.4824 79.938C16.4582 79.938 4.98378 66.8915 4.98378 50.9457C4.98378 45.6744 6.25871 40.6667 8.46087 36.4496C9.04038 53.5814 20.5148 67.4186 35.2345 69.2636C36.3935 69.3953 37.4366 69.5271 38.5956 69.5271C39.0593 69.5271 39.5229 69.5271 39.8706 69.5271V24.062C49.3746 28.2791 56.097 38.8217 56.097 51.0775C56.097 53.0543 55.8652 55.031 55.5175 57.0077C55.4016 57.9302 55.1698 58.8527 54.938 59.7752H59.8059C65.3692 53.5814 68.8463 44.8837 68.8463 35.3953C68.7304 16.2868 55.1698 1 38.4797 1ZM39.7547 18.3953C38.2479 17.8682 36.7412 17.3411 35.1186 17.0775V63.9922C22.601 62.1473 12.8652 49.8915 12.8652 35.2636C12.8652 33.2868 13.097 31.3101 13.4447 29.3333C14.0242 26.3023 15.0673 23.2713 16.3423 20.6357C20.7466 11.938 28.9757 6.13953 38.3638 6.13953C52.504 6.13953 63.8625 19.186 63.8625 35.1318C63.8625 40.4031 62.5876 45.4109 60.3854 49.6279C60.1536 35.1318 51.5768 22.7442 39.7547 18.3953Z" fill="#3090CA" stroke="white" stroke-width="0.5" stroke-miterlimit="10"/>
<path d="M75.3369 81.5195C73.8302 81.5195 72.4393 81.1241 71.3962 80.2016C70.3531 79.4109 69.6576 78.0931 69.194 76.6435C68.8463 75.0621 68.8463 73.4807 69.194 71.6357C69.5417 69.7908 70.3531 68.2094 71.3962 66.628C71.3962 66.4962 71.5121 66.4962 71.5121 66.3644H69.7736L66.4124 81.1241H62.124L65.601 66.4962H63.9784V66.2326C63.8625 65.5737 63.6307 65.0466 63.283 64.5194C62.4717 63.4652 61.1967 62.9381 59.3423 62.9381L59.5741 61.8838H79.973C81.132 61.8838 82.1752 62.1474 83.1024 62.8063C84.0296 63.3334 84.8409 64.1241 85.4205 65.1784L85.6523 65.5737L82.2911 69.3954L82.0593 68.8683C81.7116 68.2094 81.2479 67.6822 80.7843 67.2869C80.2048 66.8915 79.6253 66.7598 79.0458 66.7598C78.2345 66.7598 77.5391 67.0233 76.8436 67.4187C76.1482 67.814 75.4528 68.4729 74.9892 69.2636C74.4097 70.0543 74.062 70.845 73.8302 71.8993C73.5984 72.8218 73.5984 73.7443 73.8302 74.535C74.062 75.3257 74.4097 75.9846 74.8733 76.3799C75.3369 76.7753 76.0323 77.0388 76.7277 77.0388C77.3072 77.0388 78.0027 76.9071 78.6981 76.5117C79.3935 76.1164 80.0889 75.721 80.7843 75.0621L81.2479 74.6667L83.1024 78.0931L82.7547 78.4884C81.7116 79.5427 80.5525 80.3334 79.2776 80.9923C77.7709 81.2559 76.4959 81.5195 75.3369 81.5195Z" fill="white" stroke="white" stroke-width="0.5" stroke-miterlimit="10"/>
<path d="M82.175 77.8295C81.1319 78.8838 80.0888 79.6745 78.8139 80.2016C77.6548 80.7287 76.4958 81.1241 75.3368 81.1241C73.83 81.1241 72.671 80.7287 71.6279 79.938C70.5847 79.1473 69.8893 77.9613 69.5416 76.5117C69.1939 75.062 69.1939 73.4807 69.5416 71.7675C69.8893 70.0543 70.7006 68.4729 71.6279 67.0233C71.8597 66.6279 72.2074 66.3644 72.4392 65.969H69.3098L65.9486 80.7287H62.4715L65.8327 65.969H63.9783C63.8624 65.3101 63.6306 64.6512 63.2829 64.1241C62.4715 63.0698 61.0807 62.4109 59.1104 62.4109L79.5093 62.5427C80.5524 62.5427 81.5955 62.8062 82.5227 63.3334C83.45 63.8605 84.1454 64.6512 84.7249 65.5737L82.175 68.4729C81.8273 67.6822 81.3637 67.1551 80.7842 66.7597C80.2047 66.3644 79.5093 66.1008 78.8139 66.1008C78.0025 66.1008 77.1912 66.3644 76.3799 66.8915C75.5686 67.4186 74.8732 68.0776 74.2936 68.8682C73.7141 69.6589 73.2505 70.7132 73.0187 71.7675C72.7869 72.8217 72.7869 73.7442 73.0187 74.6667C73.2505 75.4574 73.5982 76.2481 74.1777 76.7752C74.7573 77.3024 75.4527 77.5659 76.264 77.5659C76.9594 77.5659 77.6548 77.4341 78.4661 77.0388C79.2775 76.6434 79.9729 76.1163 80.6683 75.4574L82.175 77.8295Z" fill="#D6AE00"/>
<path d="M56.9084 81.2559L55.7494 75.9846H54.8221L54.9381 75.4574C55.1699 74.4032 55.1699 73.4807 54.9381 72.9536C54.8221 72.8218 54.8221 72.5582 54.7062 72.4264L54.1267 71.5039H56.6766C57.4879 71.5039 58.1833 71.2404 58.7628 70.845C59.2265 70.4497 59.5742 69.7908 59.806 68.8683C60.0378 68.0776 59.9219 67.4187 59.5742 67.0233C59.2265 66.628 58.6469 66.3644 57.8356 66.3644H56.0971L57.1402 64.6512C56.5607 64.1241 55.9812 63.8605 55.1699 63.4652C54.3585 63.0698 53.4313 62.9381 52.3882 62.9381L52.62 61.8838H58.7628C60.8491 61.8838 62.3558 62.5427 63.2831 63.7288C63.7467 64.2559 63.9785 64.9148 64.0944 65.8373C64.2103 66.7598 64.2103 67.814 63.8626 68.8683C63.5149 70.3179 62.9354 71.6357 62.124 72.8218C61.4286 73.7443 60.7332 74.535 59.806 75.0621L61.7763 81.5195L56.9084 81.2559Z" fill="white" stroke="white" stroke-width="0.5" stroke-miterlimit="10"/>
<path d="M61.1969 80.7287H57.3721L56.2131 75.4574H55.5176C55.7494 74.2713 55.7494 73.3489 55.5176 72.5582C55.4017 72.4264 55.2858 72.1628 55.2858 72.031H56.7926C57.7198 72.031 58.5311 71.7675 59.2265 71.2403C59.806 70.7132 60.2697 69.9225 60.5015 68.8682C60.7333 67.814 60.6174 67.0233 60.2697 66.6279C59.922 66.1008 59.2265 65.8372 58.2993 65.8372H57.2562L58.1834 64.3876C57.6039 63.7287 56.7926 63.3334 55.8653 62.938C54.9381 62.5427 54.0109 62.4109 52.9678 62.4109H59.1106C61.081 62.4109 62.4718 62.938 63.2831 64.1241C63.6308 64.6512 63.8627 65.3101 63.9786 65.969C64.0945 66.7597 64.0945 67.6822 63.7467 68.8682C63.399 70.3179 62.9354 71.5039 62.24 72.4264C61.5446 73.4807 60.6174 74.1396 59.5742 74.6667L61.1969 80.7287Z" fill="#D6AE00"/>
<path d="M47.8678 81.3876C46.5929 81.3876 45.4339 81.124 44.3907 80.5969C43.3476 80.0698 42.4204 79.2791 41.725 78.3566L41.4932 78.093L44.2748 73.7442L44.6225 74.2713C45.2021 75.062 45.8975 75.7209 46.7088 76.1163C47.4042 76.5116 48.0996 76.7752 48.6791 76.7752C48.7951 76.7752 48.911 76.7752 49.0269 76.7752C49.6064 76.7752 50.07 76.6434 50.4177 76.3799C50.7654 76.1163 50.8813 75.8527 50.9972 75.4574C51.1131 75.1938 50.9972 74.9302 50.8813 74.7985C50.7654 74.5349 50.5336 74.2713 50.1859 74.1395C49.8382 74.0078 49.4905 73.876 49.1428 73.6124H48.6791C47.7519 73.2171 46.9406 72.9535 46.3611 72.5582C45.7816 72.1628 45.2021 71.6357 44.8544 70.845C44.5066 70.0543 44.5066 69 44.7384 67.6822C44.9703 66.4961 45.5498 65.4419 46.2452 64.5194C47.0565 63.5969 47.8678 62.938 48.911 62.4109C49.8382 62.0155 50.7654 61.752 51.8085 61.752C51.9244 61.752 52.1562 61.752 52.2721 61.752C53.3153 61.752 54.3584 62.0155 55.2856 62.2791C56.2128 62.6744 57.0242 63.2016 57.7196 63.8605L57.9514 64.124L55.2856 68.4729L54.9379 68.2093C54.5902 67.9457 54.2425 67.5504 53.7789 67.4186C53.4312 67.1551 53.1994 67.0233 52.8517 66.8915C52.0403 66.6279 51.4608 66.3644 50.8813 66.3644C50.3018 66.3644 49.9541 66.4961 49.7223 66.6279C49.4905 66.7597 49.3746 67.0233 49.2587 67.2868C49.1428 67.6822 49.2587 68.0775 49.4905 68.2093C49.7223 68.3411 49.9541 68.6047 50.3018 68.7364C50.6495 68.8682 50.9972 69 51.4608 69.2636C52.2721 69.6589 52.9676 69.9225 53.4312 70.1861C53.5471 70.1861 53.5471 70.3178 53.663 70.3178C54.2425 70.5814 54.5902 70.9768 54.9379 71.5039C55.0538 71.7675 55.1697 71.8992 55.2856 72.1628C55.6333 72.9535 55.6333 74.0078 55.4015 75.3256C55.1697 76.6434 54.5902 77.6977 53.7789 78.6202C52.9676 79.5427 52.1562 80.2016 51.1131 80.5969H50.9972H50.8813C50.6495 80.7287 50.1859 80.8605 49.7223 80.9923C49.2587 81.3876 48.5632 81.3876 47.8678 81.3876Z" fill="white" stroke="white" stroke-width="0.5" stroke-miterlimit="10"/>
<path d="M55.0539 75.4573C54.8221 76.6434 54.3585 77.5659 53.663 78.3566C52.9676 79.1473 52.1563 79.8062 51.2291 80.2015C51.2291 80.2015 51.2291 80.2015 51.1132 80.2015C50.6496 80.3333 50.3019 80.4651 49.8383 80.5969C49.2587 80.7287 48.5633 80.8604 47.9838 80.8604C46.8248 80.8604 45.6657 80.5969 44.6226 80.0697C43.5795 79.5426 42.7682 78.8837 42.0728 77.9612L44.159 74.6666C44.7385 75.4573 45.4339 76.1163 46.3612 76.6434C47.0566 77.0387 47.752 77.3023 48.4474 77.4341C48.5633 77.4341 48.6792 77.4341 48.911 77.4341C49.6064 77.4341 50.186 77.3023 50.6496 76.907C51.1132 76.6434 51.4609 76.1163 51.5768 75.5891C51.6927 75.1938 51.6927 74.7984 51.4609 74.4031C51.2291 74.1395 50.9973 73.876 50.6496 73.6124C50.3019 73.4806 49.9542 73.3488 49.4905 73.0853C49.3746 73.0853 49.2587 72.9535 49.1428 72.9535C48.2156 72.5581 47.4043 72.2946 46.9407 71.8992C46.3612 71.5039 45.8976 70.9767 45.6657 70.3178C45.318 69.6589 45.318 68.7364 45.5498 67.5504C45.7816 66.4961 46.2453 65.5736 46.9407 64.7829C47.6361 63.9922 48.4474 63.3333 49.3746 62.938C50.186 62.5426 51.1132 62.4108 52.0404 62.2791C52.1563 62.2791 52.3881 62.2791 52.504 62.2791C53.5471 62.2791 54.4744 62.4108 55.4016 62.8062C56.3288 63.2015 57.1401 63.5969 57.7197 64.2558L56.7924 65.7054L55.6334 67.6822C55.2857 67.4186 54.8221 67.0232 54.4744 66.7597C54.1267 66.6279 53.8949 66.3643 53.5471 66.2325C52.7358 65.8372 52.0404 65.7054 51.4609 65.7054H51.2291C50.7655 65.7054 50.3019 65.8372 49.9542 66.1008C49.6064 66.3643 49.2587 66.7597 49.1428 67.2868C49.0269 67.9457 49.1428 68.3411 49.6064 68.7364C49.8383 68.8682 50.0701 69.1318 50.4178 69.2635C50.7655 69.3953 51.1132 69.6589 51.5768 69.7907C52.3881 70.0542 52.9676 70.4496 53.5471 70.7132C53.6631 70.8449 53.779 70.8449 53.8949 70.9767C54.3585 71.2403 54.7062 71.6356 54.938 72.031C55.0539 72.1628 55.1698 72.4263 55.1698 72.5581C55.2857 73.217 55.2857 74.1395 55.0539 75.4573Z" fill="#D6AE00"/>
</svg>
