<svg width="143" height="75" viewBox="0 0 143 75" fill="none" xmlns="http://www.w3.org/2000/svg">
<path d="M137.88 12.6058L134.107 15.4172C129.706 8.97823 122.43 4.80653 114.076 4.80653C106.711 4.80653 100.154 8.07134 95.7523 13.3313C94.854 11.971 93.866 10.7013 92.7881 9.52237C98.0877 3.62757 105.633 0 114.076 0C123.957 0 132.67 4.98791 137.88 12.6058Z" fill="#1D2088"/>
<path d="M143 29.2019C143 29.8367 143 30.4716 142.91 31.0157C142.82 32.1946 142.73 33.2829 142.551 34.3712C140.125 48.0653 128.269 58.4038 114.076 58.4038C105.633 58.4038 98.0877 54.7763 92.7881 48.9722C93.866 47.7932 94.854 46.5236 95.7523 45.1632C100.154 50.3325 106.801 53.688 114.076 53.688C125.664 53.688 135.455 45.4353 137.79 34.3712H109.046V29.2019H143Z" fill="#1D2088"/>
<path d="M57.8467 29.2019C57.8467 35.0967 56.1401 40.5381 53.1759 45.1632C52.2776 46.5236 51.2896 47.7932 50.2117 48.9722C48.3254 51.058 46.2594 52.7811 43.8342 54.2322L42.2173 50.2418C44.2833 48.9722 46.0798 47.5212 47.6966 45.7074C48.8643 44.4377 49.8524 43.0774 50.6608 41.6264C52.8166 37.9988 53.9843 33.7364 53.9843 29.2019C53.9843 24.6675 52.7268 20.4051 50.6608 16.7775C49.8524 15.3265 48.8643 13.9661 47.6966 12.6965C43.2952 7.79927 36.9177 4.71584 29.7318 4.71584C16.4378 4.71584 5.74874 15.4172 5.47927 28.7485H31.4384V34.8247H6.10804C7.63505 41.2636 11.6771 46.7956 17.1564 50.1511L14.1922 54.4135C5.74874 49.2443 0 39.9033 0 29.2019C0 13.0593 12.9347 0 28.9234 0C37.3668 0 44.9121 3.62757 50.2117 9.43168C51.2896 10.6106 52.2776 11.8803 53.1759 13.2406C56.1401 17.8658 57.8467 23.3071 57.8467 29.2019Z" fill="#1D2088"/>
<path d="M89.8242 29.2019C89.8242 33.4643 90.902 37.4546 92.7884 40.9915C91.9799 42.5332 90.9919 43.8936 89.8242 45.2539C86.86 40.6288 85.0635 35.1874 85.0635 29.2926C85.0635 23.3978 86.7701 17.8658 89.8242 13.3313C90.9919 14.6009 91.8901 16.052 92.7884 17.5937C90.902 20.9492 89.8242 24.9395 89.8242 29.2019Z" fill="#1D2088"/>
<path d="M48.1458 35.5503C48.6847 37.7269 49.583 39.722 50.6609 41.5358C49.8524 42.9869 48.8644 44.3472 47.6967 45.6168C44.5528 40.901 42.6665 35.2783 42.6665 29.1114C42.6665 23.0352 44.5528 17.3218 47.6967 12.606C48.8644 13.8756 49.8524 15.2359 50.6609 16.687C48.5051 20.3145 47.3374 24.5769 47.3374 29.1114C47.3374 29.8369 47.3374 30.5624 47.4272 31.2879V31.6507C47.517 32.8297 47.6967 34.0993 48.056 35.2783C48.056 35.369 48.056 35.4596 48.1458 35.5503Z" fill="#1D2088"/>
<path d="M100.424 29.2019C100.424 35.0967 98.7169 40.6288 95.6629 45.2539C94.7647 46.6143 93.7766 47.8839 92.6987 49.0629C87.4889 54.7763 79.9437 58.4039 71.5002 58.4039C63.0568 58.4039 55.5115 54.7763 50.2119 48.9722C51.2898 47.7932 52.2779 46.5236 53.1761 45.1632C57.5775 50.4232 64.2245 53.688 71.5901 53.688C78.9556 53.688 85.5128 50.4232 89.9142 45.1632C91.0819 43.8936 91.9801 42.4426 92.8784 40.9008C94.7647 37.364 95.8426 33.3736 95.8426 29.1112C95.8426 24.8489 94.7647 20.8585 92.8784 17.3216C92.07 15.7799 91.0819 14.4196 89.9142 13.0593C85.5128 7.88996 78.8658 4.53446 71.5901 4.53446C64.2245 4.53446 57.6673 7.79927 53.1761 13.0593C52.2779 11.6989 51.2898 10.4293 50.2119 9.2503C55.5115 3.62757 63.1466 0 71.5002 0C79.9437 0 87.4889 3.62757 92.7885 9.43168C93.8664 10.6106 94.8545 11.8803 95.7527 13.2406C98.7169 17.7751 100.424 23.3071 100.424 29.2019Z" fill="#1D2088"/>
<path d="M135.724 64.7522H5.38965V75.0001H135.724V64.7522Z" fill="#1D2088"/>
<path d="M19.7616 72.5514L19.2226 70.919H16.4381L15.9889 72.5514H14.5518L16.977 65.2056H18.7735L21.1987 72.5514H19.7616ZM16.8872 69.74H18.9531L18.8633 69.468C18.5938 68.6518 18.4142 68.0169 18.2345 67.4728C18.0549 66.9287 17.9651 66.5659 17.9651 66.4752V66.2938C17.8752 66.6566 17.6058 67.7449 17.0668 69.468L16.8872 69.74Z" fill="white"/>
<path d="M25.5105 67.2008V68.3797C25.1512 68.1984 24.702 68.017 24.1631 68.017C23.9835 68.017 23.8038 68.1077 23.6242 68.1984C23.5343 68.289 23.4445 68.3797 23.4445 68.5611C23.4445 68.6518 23.4445 68.6518 23.4445 68.7425C23.4445 68.8332 23.5343 68.8332 23.5343 68.9239C23.6242 69.0146 23.6242 69.0146 23.714 69.0146C23.714 69.0146 23.8038 69.1052 23.8936 69.1052C23.9835 69.1052 24.0733 69.1959 24.0733 69.1959C24.1631 69.1959 24.2529 69.2866 24.3428 69.2866C24.4326 69.2866 24.5224 69.3773 24.6122 69.3773C24.9715 69.5587 25.3308 69.7401 25.5105 70.0121C25.6901 70.2842 25.8698 70.5563 25.8698 70.919C25.8698 71.4632 25.6901 71.8259 25.3308 72.098C24.9715 72.3701 24.4326 72.5514 23.8936 72.5514C23.175 72.5514 22.6361 72.4608 22.2768 72.1887V71.0097C22.7259 71.3725 23.2649 71.4632 23.8038 71.4632C24.0733 71.4632 24.2529 71.3725 24.3428 71.2818C24.4326 71.1911 24.5224 71.1004 24.5224 70.919C24.5224 70.8283 24.5224 70.7377 24.4326 70.647C24.4326 70.5563 24.3428 70.4656 24.1631 70.4656C24.0733 70.3749 23.9835 70.3749 23.8936 70.2842C23.8038 70.1935 23.714 70.1935 23.4445 70.1028C23.4445 70.1028 23.4445 70.1028 23.3547 70.1028C23.3547 70.1028 23.3547 70.1028 23.2649 70.1028C23.2649 70.1028 23.2649 70.1028 23.175 70.1028C22.3666 69.7401 22.0073 69.1959 22.0073 68.5611C22.0073 68.017 22.187 67.6542 22.5463 67.3822C22.9056 67.1101 23.4445 66.9287 23.9835 66.9287C24.702 67.0194 25.1512 67.0194 25.5105 67.2008Z" fill="white"/>
<path d="M26.7676 65.387C26.7676 65.2056 26.8574 65.0242 27.0371 64.8429C27.2167 64.6615 27.3963 64.5708 27.576 64.5708C27.7556 64.5708 27.9353 64.6615 28.1149 64.8429C28.2946 65.0242 28.3844 65.2056 28.3844 65.387C28.3844 65.5684 28.2946 65.8405 28.1149 65.9311C27.9353 66.0218 27.7556 66.2032 27.576 66.2032C27.3963 66.2032 27.2167 66.1125 27.0371 65.9311C26.8574 65.8405 26.7676 65.5684 26.7676 65.387ZM26.9472 72.5515V67.0194H28.2048V72.5515H26.9472Z" fill="white"/>
<path d="M29.8217 68.561V67.382C30.2708 67.11 30.8098 67.0193 31.6182 67.0193C33.0554 67.0193 33.8638 67.7448 33.8638 69.1051V72.5513H32.6062V71.9165C32.3368 72.37 31.8877 72.642 31.1691 72.642C30.6301 72.642 30.2708 72.4606 29.9115 72.1886C29.5522 71.9165 29.4624 71.4631 29.4624 71.0096C29.4624 70.4655 29.6421 70.1027 30.0013 69.74C30.3606 69.4679 30.9894 69.2865 31.708 69.2865H32.5164V68.9238C32.5164 68.6517 32.4266 68.3796 32.247 68.1982C32.0673 68.1076 31.7978 68.0169 31.4385 68.0169C30.8098 68.0169 30.2708 68.1982 29.8217 68.561ZM32.4266 70.1934H31.7978C31.4385 70.1934 31.1691 70.2841 30.9894 70.3748C30.8098 70.5562 30.7199 70.7375 30.7199 70.9189C30.7199 71.3724 30.9894 71.6444 31.5284 71.6444C31.7978 71.6444 32.0673 71.5537 32.247 71.3724C32.4266 71.191 32.5164 71.0096 32.5164 70.7375V70.1934H32.4266Z" fill="white"/>
<path d="M34.9419 70.1935V69.1052H37.6366V70.1935H34.9419Z" fill="white"/>
<path d="M40.2414 67.0194V67.8356C40.6007 67.2008 41.2295 66.9287 41.9481 66.9287C42.6667 66.9287 43.2056 67.2008 43.6548 67.7449C44.1039 68.289 44.2835 68.9239 44.2835 69.7401C44.2835 70.5563 44.1039 71.2818 43.6548 71.8259C43.2056 72.3701 42.6667 72.6421 41.9481 72.6421C41.2295 72.6421 40.6906 72.3701 40.3313 71.7352V74.6373H39.0737V67.0194H40.2414ZM41.5888 71.5539C41.9481 71.5539 42.3074 71.3725 42.5769 71.1004C42.8463 70.8283 42.9362 70.3749 42.9362 69.8308C42.9362 69.2866 42.8463 68.8332 42.5769 68.5611C42.3074 68.289 42.0379 68.1077 41.6786 68.1077C41.3193 68.1077 40.96 68.289 40.6906 68.5611C40.4211 68.8332 40.2414 69.2866 40.2414 69.8308C40.2414 70.3749 40.3313 70.8283 40.6007 71.1004C40.8702 71.3725 41.2295 71.5539 41.5888 71.5539Z" fill="white"/>
<path d="M45.4511 68.561V67.382C45.9002 67.11 46.4392 67.0193 47.2476 67.0193C48.6848 67.0193 49.4932 67.7448 49.4932 69.1051V72.5513H48.2356V71.9165C47.9662 72.37 47.517 72.642 46.7985 72.642C46.2595 72.642 45.9002 72.4606 45.5409 72.1886C45.2714 71.9165 45.0918 71.4631 45.0918 71.0096C45.0918 70.4655 45.2714 70.1027 45.6307 69.74C45.99 69.4679 46.6188 69.2865 47.3374 69.2865H48.1458V68.9238C48.1458 68.6517 48.056 68.3796 47.8763 68.1982C47.6967 68.0169 47.4272 67.9262 47.0679 67.9262C46.529 68.0169 45.99 68.1982 45.4511 68.561ZM48.1458 70.1934H47.5171C47.1578 70.1934 46.8883 70.2841 46.7086 70.3748C46.529 70.5562 46.4392 70.7375 46.4392 70.9189C46.4392 71.3724 46.7086 71.6444 47.2476 71.6444C47.517 71.6444 47.7865 71.5537 47.9662 71.3724C48.1458 71.191 48.2356 71.0096 48.2356 70.7375V70.1934H48.1458Z" fill="white"/>
<path d="M51.8288 69.8307C51.8288 70.3748 52.0084 70.7375 52.2779 71.1003C52.5474 71.4631 52.9965 71.5537 53.4456 71.5537C53.8947 71.5537 54.3439 71.4631 54.7032 71.191V72.2793C54.3439 72.4606 53.8049 72.642 53.266 72.642C52.4576 72.642 51.739 72.3699 51.2 71.8258C50.6611 71.2817 50.3916 70.6469 50.3916 69.8307C50.3916 69.0144 50.6611 68.3796 51.2 67.8355C51.739 67.2914 52.4576 67.0193 53.266 67.0193C53.8049 67.0193 54.254 67.11 54.6133 67.2914V68.4703C54.254 68.1982 53.8049 68.1076 53.3558 68.1076C52.8169 68.1076 52.4576 68.2889 52.0983 68.561C52.0084 68.8331 51.8288 69.2865 51.8288 69.8307Z" fill="white"/>
<path d="M55.7812 65.387C55.7812 65.2056 55.8711 65.0242 56.0507 64.8429C56.2304 64.6615 56.41 64.5708 56.5897 64.5708C56.7693 64.5708 56.949 64.6615 57.1286 64.8429C57.3083 65.0242 57.3981 65.2056 57.3981 65.387C57.3981 65.5684 57.3083 65.8405 57.1286 65.9311C56.949 66.0218 56.7693 66.2032 56.5897 66.2032C56.41 66.2032 56.2304 66.1125 56.0507 65.9311C55.8711 65.8405 55.7812 65.5684 55.7812 65.387ZM55.9609 72.5515V67.0194H57.2184V72.5515H55.9609Z" fill="white"/>
<path d="M66.2902 67.0193V72.5513H65.0327V68.0169H63.326V72.5513H62.0685V68.0169H60.3618V72.5513H59.1043V68.0169H58.2959V67.0193H59.1043V66.6565C59.1043 66.0217 59.284 65.5683 59.6433 65.2055C60.0026 64.8428 60.4517 64.6614 61.0804 64.6614C61.7092 64.6614 62.2482 64.7521 62.7871 65.0241C63.1464 64.7521 63.5057 64.6614 64.0446 64.6614C64.6734 64.6614 65.3022 64.8428 65.8411 65.1148V66.2031C65.2124 65.931 64.6734 65.7496 64.2243 65.7496C63.9548 65.7496 63.7752 65.8403 63.5955 65.931C63.4159 66.0217 63.4159 66.2938 63.4159 66.6565V66.9286H66.2902V67.0193ZM62.0685 67.0193V66.6565C62.0685 66.3845 62.0685 66.2031 62.1583 65.931C61.799 65.8403 61.5296 65.7496 61.2601 65.7496C60.9906 65.7496 60.811 65.8403 60.6313 65.931C60.4517 66.0217 60.4517 66.2938 60.4517 66.6565V66.9286H62.0685V67.0193Z" fill="white"/>
<path d="M69.4343 69.8307C69.4343 70.3748 69.6139 70.7375 69.8834 71.1003C70.1529 71.4631 70.602 71.5537 71.0511 71.5537C71.5002 71.5537 71.9493 71.4631 72.3086 71.191V72.2793C71.9493 72.4606 71.4104 72.642 70.8714 72.642C70.063 72.642 69.3444 72.3699 68.8055 71.8258C68.2665 71.2817 67.9971 70.6469 67.9971 69.8307C67.9971 69.0144 68.2665 68.3796 68.8055 67.8355C69.3444 67.2914 70.063 67.0193 70.8714 67.0193C71.4104 67.0193 71.8595 67.11 72.2188 67.2914V68.4703C71.8595 68.1982 71.4104 68.1076 70.9613 68.1076C70.4223 68.1076 70.063 68.2889 69.7037 68.561C69.5241 68.8331 69.4343 69.2865 69.4343 69.8307Z" fill="white"/>
<path d="M81.4704 65.5682V66.9286C80.9315 66.5658 80.3027 66.4751 79.674 66.4751C79.0452 66.4751 78.5062 66.7472 78.0571 67.2006C77.608 67.6541 77.4284 68.2889 77.4284 69.0144C77.4284 69.7399 77.608 70.3748 78.0571 70.8282C78.5062 71.2816 79.0452 71.463 79.7638 71.463C80.4824 71.463 81.0213 71.2816 81.4704 70.9189V72.2792C81.0213 72.5513 80.3926 72.7327 79.5841 72.7327C78.5062 72.7327 77.608 72.3699 76.8894 71.7351C76.1708 71.0096 75.8115 70.1027 75.8115 69.0144C75.8115 67.9261 76.1708 67.0193 76.8894 66.2937C77.608 65.5682 78.5062 65.2055 79.5841 65.2055C80.3926 65.1148 81.0213 65.2962 81.4704 65.5682Z" fill="white"/>
<path d="M85.9621 67.2008V68.3797C85.6028 68.1984 85.1537 68.017 84.6148 68.017C84.4351 68.017 84.2555 68.1077 84.0758 68.1984C83.986 68.289 83.8962 68.3797 83.8962 68.5611C83.8962 68.6518 83.8962 68.6518 83.8962 68.7425C83.8962 68.8332 83.986 68.8332 83.986 68.9239C84.0758 69.0146 84.0758 69.0146 84.1656 69.0146C84.1656 69.0146 84.2555 69.1052 84.3453 69.1052C84.4351 69.1052 84.5249 69.1959 84.5249 69.1959C84.6148 69.1959 84.7046 69.2866 84.7944 69.2866C84.8842 69.2866 84.9741 69.3773 85.0639 69.3773C85.4232 69.5587 85.7825 69.7401 85.9621 70.0121C86.1418 70.2842 86.3214 70.5563 86.3214 70.919C86.3214 71.4632 86.1418 71.8259 85.7825 72.098C85.4232 72.3701 84.8842 72.5514 84.3453 72.5514C83.6267 72.5514 83.0878 72.4608 82.7285 72.1887V71.0097C83.1776 71.3725 83.7165 71.4632 84.2555 71.4632C84.5249 71.4632 84.7046 71.3725 84.7944 71.2818C84.8842 71.1911 84.9741 71.1004 84.9741 70.919C84.9741 70.8283 84.9741 70.7377 84.8842 70.647C84.8842 70.5563 84.7944 70.4656 84.6148 70.4656C84.5249 70.3749 84.4351 70.3749 84.3453 70.2842C84.2555 70.1935 84.1656 70.1935 83.8962 70.1028C83.8962 70.1028 83.8962 70.1028 83.8063 70.1028C83.8063 70.1028 83.8063 70.1028 83.7165 70.1028C83.7165 70.1028 83.7165 70.1028 83.6267 70.1028C82.8183 69.7401 82.459 69.1959 82.459 68.5611C82.459 68.017 82.6386 67.6542 82.9979 67.3822C83.3572 67.1101 83.8962 66.9287 84.4351 66.9287C85.1537 67.0194 85.6028 67.0194 85.9621 67.2008Z" fill="white"/>
<path d="M90.9923 64.8428H92.2498V72.5514H90.9923V71.7352C90.633 72.37 90.0941 72.642 89.3755 72.642C88.6569 72.642 88.1179 72.37 87.6688 71.8258C87.2197 71.2817 87.04 70.6469 87.04 69.8307C87.04 68.9238 87.2197 68.289 87.6688 67.7448C88.1179 67.2007 88.6569 67.0193 89.3755 67.0193C90.0941 67.0193 90.633 67.2914 90.9923 67.9262V64.8428ZM89.6449 71.5538C90.0042 71.5538 90.3635 71.3724 90.633 71.1003C90.9025 70.8283 90.9923 70.3748 90.9923 69.8307C90.9923 69.2865 90.8127 68.8331 90.5432 68.561C90.2737 68.289 89.9144 68.1076 89.6449 68.1076C89.2856 68.1076 88.9263 68.289 88.6569 68.561C88.3874 68.8331 88.2976 69.2865 88.2976 69.8307C88.2976 70.3748 88.3874 70.7376 88.6569 71.0096C88.9263 71.3724 89.2856 71.5538 89.6449 71.5538Z" fill="white"/>
<path d="M102.4 68.2889V71.8257V71.9164C101.771 72.3699 100.873 72.6419 99.8849 72.6419C98.7172 72.6419 97.8189 72.2792 97.1003 71.6444C96.3818 71.0095 96.0225 70.012 96.0225 68.9237C96.0225 67.8354 96.3818 66.8378 97.1003 66.203C97.8189 65.4775 98.7172 65.1147 99.8849 65.1147C100.693 65.1147 101.412 65.2961 102.041 65.5682V66.9285C101.412 66.5658 100.693 66.2937 99.9747 66.2937C99.2561 66.2937 98.6274 66.5658 98.1782 67.0192C97.7291 67.4727 97.5495 68.1075 97.5495 68.833C97.5495 69.6492 97.7291 70.1933 98.1782 70.6468C98.6274 71.1002 99.2561 71.2816 99.9747 71.2816C100.334 71.2816 100.693 71.1909 101.053 71.1002V69.3771H99.7053V68.1982H102.4V68.2889Z" fill="white"/>
<path d="M105.094 67.0193V68.0169C105.364 67.2914 105.813 67.0193 106.442 67.0193C106.621 67.0193 106.711 67.0193 106.801 67.0193V68.2889C106.621 68.1982 106.442 68.1982 106.262 68.1982C105.903 68.1982 105.633 68.3796 105.364 68.6517C105.184 68.9238 105.005 69.2865 105.005 69.74V72.5513H103.657V67.0193H105.094Z" fill="white"/>
<path d="M109.945 72.6421C109.136 72.6421 108.508 72.3701 107.969 71.8259C107.519 71.2818 107.25 70.647 107.25 69.8308C107.25 69.0146 107.519 68.289 107.969 67.7449C108.418 67.2008 109.046 66.9287 109.855 66.9287C110.663 66.9287 111.382 67.2008 111.831 67.7449C112.28 68.289 112.55 68.9239 112.55 69.7401C112.55 70.5563 112.28 71.2818 111.831 71.8259C111.472 72.3701 110.753 72.6421 109.945 72.6421ZM109.945 68.017C109.496 68.017 109.226 68.1984 109.046 68.5611C108.867 68.9239 108.687 69.2866 108.687 69.8308C108.687 70.3749 108.777 70.7377 109.046 71.1004C109.226 71.4632 109.585 71.6445 110.035 71.6445C110.484 71.6445 110.753 71.4632 111.023 71.1004C111.292 70.7377 111.382 70.3749 111.382 69.8308C111.382 69.2866 111.292 68.8332 111.112 68.5611C110.753 68.1984 110.394 68.017 109.945 68.017Z" fill="white"/>
<path d="M117.131 67.0193H118.478V72.5513H117.131V71.6444C116.862 72.2793 116.323 72.642 115.424 72.642C114.885 72.642 114.436 72.4606 114.167 72.1886C113.897 71.9165 113.718 71.3724 113.718 70.8282V67.11H114.975V70.5562C114.975 70.9189 115.065 71.191 115.245 71.3724C115.424 71.5537 115.604 71.6444 115.963 71.6444C116.323 71.6444 116.592 71.5537 116.862 71.2817C117.041 71.0096 117.221 70.6469 117.221 70.1027V67.0193H117.131Z" fill="white"/>
<path d="M121.083 67.0194V67.8356C121.443 67.2008 122.071 66.9287 122.79 66.9287C123.508 66.9287 124.047 67.2008 124.497 67.7449C124.946 68.289 125.125 68.9239 125.125 69.7401C125.125 70.5563 124.946 71.2818 124.497 71.8259C124.047 72.3701 123.508 72.6421 122.79 72.6421C122.071 72.6421 121.532 72.3701 121.173 71.7352V74.6373H119.916V67.0194H121.083ZM122.431 71.5539C122.79 71.5539 123.149 71.3725 123.419 71.1004C123.688 70.8283 123.778 70.3749 123.778 69.8308C123.778 69.2866 123.688 68.8332 123.419 68.5611C123.149 68.289 122.88 68.1077 122.52 68.1077C122.161 68.1077 121.802 68.289 121.532 68.5611C121.263 68.8332 121.083 69.2866 121.083 69.8308C121.083 70.3749 121.173 70.8283 121.443 71.1004C121.802 71.3725 122.071 71.5539 122.431 71.5539Z" fill="white"/>
</svg>
