<svg width="206" height="77" viewBox="0 0 206 77" fill="none" xmlns="http://www.w3.org/2000/svg">
<path d="M68.6 5.30005L53 21.2H45.2L60.7 5.30005H0V76.7H71.4V5.30005H68.6Z" fill="#55664C"/>
<path d="M22.1 27.9999V32.3999C20.3 31.2999 18.4 30.7999 16.3 30.7999C15.2 30.7999 14.3 31.0999 13.7 31.5999C13.1 32.0999 12.7 32.7999 12.7 33.4999C12.7 34.1999 13 34.8999 13.7 35.4999C14.4 35.9999 15.4 36.5999 16.8 37.1999C17.8 37.5999 18.5 37.9999 19.1 38.2999C19.7 38.5999 20.4 39.0999 21.1 39.6999C21.8 40.2999 22.3 40.9999 22.7 41.7999C23 42.5999 23.2 43.4999 23.2 44.5999C23.2 46.7999 22.4 48.4999 20.9 49.7999C19.4 51.0999 17.3 51.6999 14.8 51.6999C12.1 51.6999 9.80005 51.1999 8.00005 50.1999V45.5999C10.1 47.0999 12.3 47.7999 14.8 47.7999C15.9 47.7999 16.8 47.4999 17.5 46.9999C18.2 46.4999 18.5 45.6999 18.5 44.7999C18.5 44.3999 18.4 43.9999 18.2 43.5999C18 43.2999 17.7 42.8999 17.2 42.5999C16.7 42.2999 16.3 41.9999 16 41.8999C15.7 41.7999 15.2 41.4999 14.3 41.0999C14.1 40.9999 13.9 40.8999 13.8 40.7999C12.9 40.3999 12.2 39.9999 11.6 39.6999C11 39.3999 10.4 38.8999 9.80005 38.3999C9.20005 37.7999 8.70005 37.1999 8.30005 36.3999C8.00005 35.5999 7.80005 34.7999 7.80005 33.7999C7.80005 31.6999 8.60005 30.0999 10.1 28.7999C11.6 27.5999 13.6 26.8999 16.2 26.8999C18.5 26.7999 20.5 27.1999 22.1 27.9999Z" fill="white"/>
<path d="M40.8 27.9999V32.3999C39 31.2999 37 30.7999 35 30.7999C33.9 30.7999 33 31.0999 32.4 31.5999C31.8 32.0999 31.4 32.7999 31.4 33.4999C31.4 34.1999 31.7 34.8999 32.4 35.4999C33.1 35.9999 34.1 36.5999 35.5 37.1999C36.5 37.5999 37.2 37.9999 37.8 38.2999C38.4 38.5999 39.1 39.0999 39.8 39.6999C40.5 40.2999 41 40.9999 41.4 41.7999C41.7 42.5999 41.9 43.4999 41.9 44.5999C41.9 46.7999 41.1 48.4999 39.6 49.7999C38.1 51.0999 36 51.6999 33.5 51.6999C30.8 51.6999 28.5 51.1999 26.7 50.1999V45.5999C28.8 47.0999 31 47.7999 33.5 47.7999C34.6 47.7999 35.5 47.4999 36.2 46.9999C36.9 46.4999 37.2 45.6999 37.2 44.7999C37.2 44.3999 37.1 43.9999 36.9 43.5999C36.7 43.2999 36.4 42.8999 35.9 42.5999C35.4 42.2999 35 41.9999 34.7 41.8999C34.4 41.7999 33.9 41.4999 33 41.0999C32.8 40.9999 32.6 40.8999 32.5 40.7999C31.6 40.3999 30.9 39.9999 30.3 39.6999C29.7 39.3999 29.1 38.8999 28.5 38.3999C27.9 37.7999 27.4 37.1999 27 36.3999C26.7 35.5999 26.5 34.7999 26.5 33.7999C26.5 31.6999 27.3 30.0999 28.8 28.7999C30.3 27.5999 32.3 26.8999 34.9 26.8999C37.1 26.7999 39.1 27.1999 40.8 27.9999Z" fill="white"/>
<path d="M63.6 28V32.4C61.8 31.3 59.8 30.8 57.6 30.8C55.4 30.8 53.6 31.6 52.1 33.1C50.6 34.6 49.9 36.6 49.9 39.1C49.9 41.6 50.6 43.6 52.1 45.1C53.6 46.6 55.5 47.3 57.9 47.3C60.2 47.3 62.1 46.7 63.7 45.5V50C62.2 51 60.1 51.4 57.4 51.4C53.8 51.4 50.8 50.3 48.5 48C46.2 45.7 45 42.7 45 39C45 35.3 46.2 32.3 48.5 30C50.8 27.7 53.8 26.5 57.4 26.5C60 26.7 62.1 27.1 63.6 28Z" fill="white"/>
<path d="M86.3001 4.7V13.5C86.3001 16.8 87.8001 18.2 89.8001 18.2C92.0001 18.2 93.4001 16.7 93.4001 13.5V4.7H95.3001V13.3C95.3001 17.9 92.9001 19.7 89.7001 19.7C86.7001 19.7 84.4001 18 84.4001 13.4V4.7H86.3001ZM89.3001 3.7C89.7001 2.8 90.4001 2.6 90.4001 1.9C90.4001 1.5 90.1001 1.2 89.7001 1.2C89.2001 1.2 88.9001 1.6 88.6001 2L87.9001 1.6C88.3001 0.7 89.0001 0 90.1001 0C91.1001 0 91.9001 0.7 91.9001 1.6C91.9001 2.7 90.9001 3 90.3001 4L89.3001 3.7Z" fill="#55664C"/>
<path d="M99.2 8.8999L101.5 15.1999C101.7 15.8999 102 16.6999 102.2 17.3999C102.4 16.7999 102.6 15.8999 102.9 15.1999L105 8.9999H107L104.1 16.5999C102.7 20.2999 101.8 22.0999 100.4 23.2999C99.5 24.0999 98.5 24.4999 98 24.5999L97.5 22.9999C98 22.7999 98.6 22.4999 99.2 22.0999C99.7 21.6999 100.4 20.8999 100.8 19.8999C100.9 19.6999 101 19.4999 101 19.3999C101 19.2999 101 19.0999 100.9 18.8999L97 9.0999H99.2V8.8999Z" fill="#55664C"/>
<path d="M113.4 19.5999C113.4 18.8999 113.5 17.7999 113.5 16.7999V3.8999H115.4V10.5999C116.1 9.3999 117.3 8.5999 119 8.5999C121.6 8.5999 123.5 10.7999 123.5 13.9999C123.5 17.7999 121.1 19.6999 118.7 19.6999C117.2 19.6999 115.9 19.0999 115.1 17.6999H115L114.9 19.4999H113.4V19.5999ZM115.4 15.2999C115.4 15.4999 115.4 15.7999 115.5 15.9999C115.9 17.2999 117 18.2999 118.4 18.2999C120.4 18.2999 121.6 16.6999 121.6 14.1999C121.6 12.0999 120.5 10.1999 118.4 10.1999C117.1 10.1999 115.8 11.0999 115.5 12.5999C115.5 12.7999 115.4 13.0999 115.4 13.3999V15.2999Z" fill="#55664C"/>
<path d="M131.9 19.6L131.7 18.3H131.6C131 19.1 129.9 19.9 128.3 19.9C126.1 19.9 125 18.4 125 16.8C125 14.2 127.3 12.8 131.4 12.8V12.6C131.4 11.7 131.2 10.1 129 10.1C128 10.1 127 10.4 126.2 10.9L126 9.59995C126.9 8.99995 128.2 8.69995 129.5 8.69995C132.8 8.69995 133.5 10.9 133.5 13.1V17.1C133.5 18 133.5 18.9 133.7 19.7H131.9V19.6ZM131.7 14.1C129.6 14.1 127.2 14.4 127.2 16.5C127.2 17.8 128 18.3 129 18.3C130.4 18.3 131.3 17.4 131.6 16.5C131.7 16.3 131.7 16.1 131.7 15.9V14.1Z" fill="#55664C"/>
<path d="M136.6 11.8C136.6 10.7 136.6 9.79995 136.5 8.89995H138.2L138.3 10.7C138.8 9.69995 140.1 8.69995 141.8 8.69995C143.3 8.69995 145.6 9.59995 145.6 13.2V19.6H143.7V13.5C143.7 11.8 143.1 10.4 141.2 10.4C139.9 10.4 138.9 11.3 138.6 12.4C138.5 12.6 138.5 13 138.5 13.3V19.7H136.6V11.8Z" fill="#55664C"/>
<path d="M94.8001 45.4999C94.1001 45.8999 92.7001 46.1999 90.9001 46.1999C86.7001 46.1999 83.6001 43.5999 83.6001 38.6999C83.6001 34.0999 86.7001 30.8999 91.3001 30.8999C93.1001 30.8999 94.3001 31.2999 94.8001 31.5999L94.3001 33.1999C93.6001 32.7999 92.5001 32.5999 91.3001 32.5999C87.8001 32.5999 85.5001 34.7999 85.5001 38.6999C85.5001 42.2999 87.6001 44.6999 91.2001 44.6999C92.4001 44.6999 93.6001 44.4999 94.3001 44.0999L94.8001 45.4999Z" fill="#55664C"/>
<path d="M97.1001 30.3H99.0001V37C99.3001 36.5 99.8001 36 100.4 35.6C101 35.3 101.7 35 102.4 35C103.8 35 106.1 35.9 106.1 39.6V46H104.2V39.9001C104.2 38.2001 103.6 36.7001 101.7 36.7001C100.4 36.7001 99.5001 37.6 99.1001 38.6C99.0001 38.9 99.0001 39.2 99.0001 39.5V46H97.1001V30.3Z" fill="#55664C"/>
<path d="M119.9 32.9C120.1 33.3 120.3 33.9 120.3 34.5C120.3 35.6 119.5 36.2999 118.4 36.2999H118.2V43C118.2 44.1 118.2 45.1 118.3 45.9H116.6L116.5 44.2C116 45.1 114.9 46.2 113 46.2C111.3 46.2 109.3 45.3 109.3 41.5V35.2999H111.2V41.2C111.2 43.2 111.8 44.5999 113.6 44.5999C114.9 44.5999 115.8 43.6999 116.2 42.7999C116.3 42.4999 116.4 42.1999 116.4 41.7999V35.2999H117.9C118.7 35.2999 118.9 35 118.9 34.4C118.9 34 118.7 33.4999 118.5 33.0999L119.9 32.9ZM117.1 30.7L114.4 33.7999H113L114.9 30.7H117.1Z" fill="#55664C"/>
<path d="M121.4 38.2001C121.4 37.1001 121.4 36.2001 121.3 35.3001H123L123.1 37.1001C123.6 36.1001 124.9 35.1001 126.6 35.1001C128.1 35.1001 130.4 36.0001 130.4 39.6001V46.0001H128.5V39.9001C128.5 38.2001 127.9 36.8001 126 36.8001C124.7 36.8001 123.7 37.7001 123.4 38.8001C123.3 39.0001 123.3 39.4001 123.3 39.7001V46.0001H121.4V38.2001Z" fill="#55664C"/>
<path d="M142.8 35.3C142.8 36.1 142.7 36.9 142.7 38.2V44.4C142.7 46.8 142.2 48.3 141.2 49.3C140.2 50.3 138.7 50.6 137.3 50.6C136 50.6 134.6 50.3 133.8 49.7L134.3 48.2C135 48.6 136.1 49 137.4 49C139.4 49 140.8 48 140.8 45.3V44.1C140.2 45.1 139.1 45.9 137.4 45.9C134.8 45.9 132.9 43.7 132.9 40.7C132.9 37.1 135.3 35 137.7 35C139.5 35 140.6 36 141 36.8L141.1 35.2H142.8V35.3ZM140.8 39.5C140.8 39.2 140.8 38.9 140.7 38.6C140.3 37.5 139.4 36.6 138 36.6C136.2 36.6 134.8 38.2 134.8 40.6C134.8 42.7 135.9 44.4 137.9 44.4C139.1 44.4 140.2 43.7 140.6 42.4C140.7 42.1 140.8 41.7 140.8 41.4V39.5Z" fill="#55664C"/>
<path d="M152.5 40.2001C152.8 39.8001 153.2 39.4 153.5 39L156.6 35.3H158.9L154.8 39.7001L159.5 46H157.1L153.4 40.9001L152.4 42V46H150.5V30.3H152.4V40.2001H152.5Z" fill="#55664C"/>
<path d="M161.3 30.3H163.2V37C163.5 36.5 164 36 164.6 35.6C165.2 35.3 165.9 35 166.6 35C168 35 170.3 35.9 170.3 39.6V46H168.4V39.9001C168.4 38.2001 167.8 36.7001 165.9 36.7001C164.6 36.7001 163.7 37.6 163.3 38.6C163.2 38.9 163.2 39.2 163.2 39.5V46H161.3V30.3Z" fill="#55664C"/>
<path d="M183.1 40.5C183.1 44.4 180.4 46.2 177.8 46.2C174.9 46.2 172.7 44.1 172.7 40.7C172.7 37.1 175 35 178 35C181.1 35.1 183.1 37.3 183.1 40.5ZM174.7 40.7C174.7 43 176 44.8 177.9 44.8C179.7 44.8 181.1 43.1 181.1 40.7C181.1 38.9 180.2 36.6 177.9 36.6C175.7 36.5 174.7 38.6 174.7 40.7Z" fill="#55664C"/>
<path d="M191.5 46L191.3 44.7H191.2C190.6 45.5 189.5 46.2999 187.9 46.2999C185.7 46.2999 184.6 44.8 184.6 43.2C184.6 40.6 186.9 39.2 191 39.2V39C191 38.1 190.8 36.5 188.6 36.5C187.6 36.5 186.6 36.7999 185.8 37.2999L185.4 36C186.3 35.4 187.6 35.0999 188.9 35.0999C192.2 35.0999 192.9 37.3 192.9 39.5V43.5C192.9 44.4 192.9 45.2999 193.1 46.0999H191.5V46ZM191.2 40.5C189.1 40.5 186.7 40.8 186.7 42.9C186.7 44.2 187.5 44.7 188.5 44.7C189.9 44.7 190.8 43.8 191.1 42.9C191.2 42.7 191.2 42.4999 191.2 42.2999V40.5ZM192.2 30.7L189.5 33.7999H188.1L190 30.7H192.2Z" fill="#55664C"/>
<path d="M196.2 38.2001C196.2 37.1001 196.2 36.2001 196.1 35.3001H197.8L197.9 37.1001C198.4 36.1001 199.7 35.1001 201.4 35.1001C202.9 35.1001 205.2 36.0001 205.2 39.6001V46.0001H203.3V39.9001C203.3 38.2001 202.7 36.8001 200.8 36.8001C199.5 36.8001 198.5 37.7001 198.2 38.8001C198.1 39.0001 198.1 39.4001 198.1 39.7001V46.0001H196.2V38.2001Z" fill="#55664C"/>
<path d="M84.4001 72.4V57.5H86.5001L91.3001 65C92.4001 66.7 93.3001 68.3 94.0001 69.8C93.8001 67.8 93.8001 66 93.8001 63.7V57.5H95.6001V72.3H93.7001L89.0001 64.8C88.0001 63.1 87.0001 61.5 86.2001 59.8H86.1001C86.2001 61.7 86.3001 63.5 86.3001 65.9V72.2H84.4001V72.4Z" fill="#55664C"/>
<path d="M99 56.7H100.9V63.2999C101.2 62.6999 101.7 62.3 102.3 61.9C102.9 61.6 103.6 61.2999 104.3 61.2999C105.7 61.2999 108 62.2 108 65.9V72.1999H106.1V66.0999C106.1 64.3999 105.5 62.9 103.6 62.9C102.3 62.9 101.4 63.8 101 64.8C100.9 65.1 100.9 65.3999 100.9 65.6999V72.0999H99V56.7Z" fill="#55664C"/>
<path d="M117.1 72.4001L117 71.0001H116.9C116.3 71.8001 115.2 72.6001 113.6 72.6001C111.4 72.6001 110.3 71.1001 110.3 69.5001C110.3 66.9001 112.6 65.5001 116.7 65.5001V65.3001C116.7 64.4001 116.5 62.8001 114.3 62.8001C113.3 62.8001 112.3 63.1001 111.5 63.6001L111.1 62.3001C112 61.7001 113.3 61.4001 114.6 61.4001C117.9 61.4001 118.6 63.6001 118.6 65.8001V69.8001C118.6 70.7001 118.6 71.6001 118.8 72.4001H117.1ZM113.9 57.1001L115.8 60.2001H114.4L111.7 57.1001H113.9ZM116.8 66.9001C114.7 66.9001 112.3 67.2001 112.3 69.3001C112.3 70.6001 113.1 71.1001 114.1 71.1001C115.5 71.1001 116.4 70.2001 116.7 69.3001C116.8 69.1001 116.8 68.9001 116.8 68.7001V66.9001Z" fill="#55664C"/>
<path d="M126.5 64.6C126.5 63.5 126.5 62.6 126.4 61.7H128.1L128.2 63.5C128.7 62.5 130 61.5 131.7 61.5C133.2 61.5 135.5 62.4 135.5 66V72.4H133.6V66.3C133.6 64.6 133 63.2 131.1 63.2C129.8 63.2 128.8 64.1 128.5 65.2C128.4 65.4 128.4 65.8 128.4 66.1V72.5H126.5V64.6Z" fill="#55664C"/>
<path d="M149.3 59.3C149.5 59.7 149.7 60.3001 149.7 60.9001C149.7 62.0001 148.9 62.7001 147.8 62.7001H147.6V69.4001C147.6 70.5001 147.6 71.5001 147.7 72.3001H146L145.9 70.6C145.4 71.5 144.3 72.6 142.4 72.6C140.7 72.6 138.7 71.7001 138.7 67.9001V61.7001H140.6V67.6C140.6 69.6 141.2 71 143 71C144.3 71 145.2 70.1 145.6 69.2C145.7 68.9 145.8 68.6 145.8 68.2V61.7001H147.3C148.1 61.7001 148.3 61.4 148.3 60.8C148.3 60.4 148.1 59.9 147.9 59.5L149.3 59.3Z" fill="#55664C"/>
<path d="M161 59.9001C161.2 60.4001 161.4 60.9001 161.4 61.5001C161.4 62.7001 160.7 63.5001 159.4 63.4001C160.1 64.3001 160.5 65.5001 160.5 66.9001C160.5 70.8001 157.8 72.6001 155.2 72.6001C152.3 72.6001 150.1 70.5001 150.1 67.1001C150.1 63.5001 152.4 61.4001 155.4 61.4001C156.1 61.4001 156.6 61.5001 157.2 61.7001C157.7 61.9001 158.4 62.3001 159.1 62.3001C159.7 62.3001 160 62.0001 160 61.4001C160 60.9001 159.8 60.5001 159.6 60.1001L161 59.9001ZM152 67.1001C152 69.4001 153.3 71.2001 155.2 71.2001C157 71.2001 158.4 69.5001 158.4 67.1001C158.4 65.3001 157.5 63.0001 155.2 63.0001C153 62.9001 152 65.0001 152 67.1001ZM158.4 57.1001L155.7 60.2001H154.3L156.2 57.1001H158.4Z" fill="#55664C"/>
<path d="M170.6 72C170.1 72.3 169 72.6 167.5 72.6C164.3 72.6 162.2 70.4 162.2 67.2C162.2 63.9 164.4 61.5 167.9 61.5C169 61.5 170.1 61.8 170.6 62.1L170.2 63.6C169.7 63.3 169 63.1 168 63.1C165.6 63.1 164.2 64.9 164.2 67.1C164.2 69.6 165.8 71.1 167.9 71.1C169 71.1 169.7 70.8 170.3 70.6L170.6 72Z" fill="#55664C"/>
</svg>
