<svg width="12" height="12" viewBox="0 0 12 12" fill="none" xmlns="http://www.w3.org/2000/svg">
<path d="M11.4528 11.4527C11.1505 11.755 10.6604 11.755 10.3582 11.4527L7.33048 8.42448C5.3639 9.82252 2.65404 9.48055 1.09648 7.63779C-0.461074 5.79504 -0.346706 3.06625 1.35958 1.36027C3.06542 -0.346461 5.79465 -0.461316 7.63787 1.09606C9.48109 2.65343 9.82327 5.36338 8.42502 7.33L11.4528 10.3582C11.755 10.6605 11.755 11.1505 11.4528 11.4527ZM4.6409 1.54744C3.17406 1.54711 1.90855 2.5767 1.61057 4.01287C1.3126 5.44904 2.06405 6.89706 3.40997 7.48024C4.75589 8.06342 6.32635 7.62147 7.17054 6.42197C8.58682 4.4096 7.06633 1.54091 4.6409 1.54744Z" fill="#2E3A59"/>
</svg>
